G04 #@! TF.GenerationSoftware,KiCad,Pcbnew,(5.0.2)-1*
G04 #@! TF.CreationDate,2019-04-07T19:54:09+02:00*
G04 #@! TF.ProjectId,dip28_zif_programmer,64697032-385f-47a6-9966-5f70726f6772,rev?*
G04 #@! TF.SameCoordinates,Original*
G04 #@! TF.FileFunction,Copper,L2,Bot*
G04 #@! TF.FilePolarity,Positive*
%FSLAX46Y46*%
G04 Gerber Fmt 4.6, Leading zero omitted, Abs format (unit mm)*
G04 Created by KiCad (PCBNEW (5.0.2)-1) date 07/04/2019 19:54:09*
%MOMM*%
%LPD*%
G01*
G04 APERTURE LIST*
G04 #@! TA.AperFunction,ComponentPad*
%ADD10O,1.700000X1.700000*%
G04 #@! TD*
G04 #@! TA.AperFunction,ComponentPad*
%ADD11R,1.700000X1.700000*%
G04 #@! TD*
G04 #@! TA.AperFunction,ComponentPad*
%ADD12O,1.600000X1.600000*%
G04 #@! TD*
G04 #@! TA.AperFunction,ComponentPad*
%ADD13C,1.600000*%
G04 #@! TD*
G04 #@! TA.AperFunction,ComponentPad*
%ADD14C,1.800000*%
G04 #@! TD*
G04 #@! TA.AperFunction,ComponentPad*
%ADD15R,1.800000X1.800000*%
G04 #@! TD*
G04 #@! TA.AperFunction,ComponentPad*
%ADD16R,3.500000X3.500000*%
G04 #@! TD*
G04 #@! TA.AperFunction,ComponentPad*
%ADD17R,1.000000X1.000000*%
G04 #@! TD*
G04 #@! TA.AperFunction,ComponentPad*
%ADD18C,1.000000*%
G04 #@! TD*
G04 #@! TA.AperFunction,Conductor*
%ADD19C,0.250000*%
G04 #@! TD*
G04 APERTURE END LIST*
D10*
G04 #@! TO.P,J5,14*
G04 #@! TO.N,Net-(J5-Pad14)*
X157480000Y-112268000D03*
G04 #@! TO.P,J5,13*
G04 #@! TO.N,Net-(J5-Pad13)*
X157480000Y-109728000D03*
G04 #@! TO.P,J5,12*
G04 #@! TO.N,MOSI*
X157480000Y-107188000D03*
G04 #@! TO.P,J5,11*
G04 #@! TO.N,MISO*
X157480000Y-104648000D03*
G04 #@! TO.P,J5,10*
G04 #@! TO.N,SCK*
X157480000Y-102108000D03*
G04 #@! TO.P,J5,9*
G04 #@! TO.N,VCC*
X157480000Y-99568000D03*
G04 #@! TO.P,J5,8*
X157480000Y-97028000D03*
G04 #@! TO.P,J5,7*
G04 #@! TO.N,GND*
X157480000Y-94488000D03*
G04 #@! TO.P,J5,6*
G04 #@! TO.N,Net-(J5-Pad6)*
X157480000Y-91948000D03*
G04 #@! TO.P,J5,5*
G04 #@! TO.N,Net-(J5-Pad5)*
X157480000Y-89408000D03*
G04 #@! TO.P,J5,4*
G04 #@! TO.N,Net-(J5-Pad4)*
X157480000Y-86868000D03*
G04 #@! TO.P,J5,3*
G04 #@! TO.N,Net-(J5-Pad3)*
X157480000Y-84328000D03*
G04 #@! TO.P,J5,2*
G04 #@! TO.N,Net-(J5-Pad2)*
X157480000Y-81788000D03*
D11*
G04 #@! TO.P,J5,1*
G04 #@! TO.N,Net-(J5-Pad1)*
X157480000Y-79248000D03*
G04 #@! TD*
D12*
G04 #@! TO.P,R1,2*
G04 #@! TO.N,VCC*
X133350000Y-85090000D03*
D13*
G04 #@! TO.P,R1,1*
G04 #@! TO.N,RST*
X133350000Y-77470000D03*
G04 #@! TD*
G04 #@! TO.P,C1,2*
G04 #@! TO.N,GND*
X133350000Y-90210000D03*
G04 #@! TO.P,C1,1*
G04 #@! TO.N,VCC*
X133350000Y-92710000D03*
G04 #@! TD*
G04 #@! TO.P,C2,1*
G04 #@! TO.N,XTAL2*
X133350000Y-104140000D03*
G04 #@! TO.P,C2,2*
G04 #@! TO.N,GND*
X133350000Y-106640000D03*
G04 #@! TD*
G04 #@! TO.P,C3,2*
G04 #@! TO.N,GND*
X133350000Y-96560000D03*
G04 #@! TO.P,C3,1*
G04 #@! TO.N,XTAL1*
X133350000Y-99060000D03*
G04 #@! TD*
D14*
G04 #@! TO.P,D1,2*
G04 #@! TO.N,Net-(D1-Pad2)*
X161290000Y-57150000D03*
D15*
G04 #@! TO.P,D1,1*
G04 #@! TO.N,Net-(D1-Pad1)*
X158750000Y-57150000D03*
G04 #@! TD*
D10*
G04 #@! TO.P,J1,10*
G04 #@! TO.N,GND*
X173990000Y-107950000D03*
G04 #@! TO.P,J1,9*
G04 #@! TO.N,MISO*
X171450000Y-107950000D03*
G04 #@! TO.P,J1,8*
G04 #@! TO.N,GND*
X173990000Y-105410000D03*
G04 #@! TO.P,J1,7*
G04 #@! TO.N,SCK*
X171450000Y-105410000D03*
G04 #@! TO.P,J1,6*
G04 #@! TO.N,GND*
X173990000Y-102870000D03*
G04 #@! TO.P,J1,5*
G04 #@! TO.N,RST*
X171450000Y-102870000D03*
G04 #@! TO.P,J1,4*
G04 #@! TO.N,GND*
X173990000Y-100330000D03*
G04 #@! TO.P,J1,3*
G04 #@! TO.N,Net-(J1-Pad3)*
X171450000Y-100330000D03*
G04 #@! TO.P,J1,2*
G04 #@! TO.N,VCC*
X173990000Y-97790000D03*
D11*
G04 #@! TO.P,J1,1*
G04 #@! TO.N,MOSI*
X171450000Y-97790000D03*
G04 #@! TD*
D16*
G04 #@! TO.P,J2,3*
G04 #@! TO.N,GND*
X168020000Y-63040000D03*
G04 #@! TO.P,J2,2*
X172720000Y-60040000D03*
G04 #@! TO.P,J2,1*
G04 #@! TO.N,VCC*
X172720000Y-66040000D03*
G04 #@! TD*
D11*
G04 #@! TO.P,J3,1*
G04 #@! TO.N,RST*
X142621000Y-79248000D03*
D10*
G04 #@! TO.P,J3,2*
G04 #@! TO.N,Net-(J3-Pad2)*
X142621000Y-81788000D03*
G04 #@! TO.P,J3,3*
G04 #@! TO.N,Net-(J3-Pad3)*
X142621000Y-84328000D03*
G04 #@! TO.P,J3,4*
G04 #@! TO.N,Net-(J3-Pad4)*
X142621000Y-86868000D03*
G04 #@! TO.P,J3,5*
G04 #@! TO.N,LED*
X142621000Y-89408000D03*
G04 #@! TO.P,J3,6*
G04 #@! TO.N,Net-(J3-Pad6)*
X142621000Y-91948000D03*
G04 #@! TO.P,J3,7*
G04 #@! TO.N,VCC*
X142621000Y-94488000D03*
G04 #@! TO.P,J3,8*
G04 #@! TO.N,GND*
X142621000Y-97028000D03*
G04 #@! TO.P,J3,9*
G04 #@! TO.N,XTAL1*
X142621000Y-99568000D03*
G04 #@! TO.P,J3,10*
G04 #@! TO.N,XTAL2*
X142621000Y-102108000D03*
G04 #@! TO.P,J3,11*
G04 #@! TO.N,Net-(J3-Pad11)*
X142621000Y-104648000D03*
G04 #@! TO.P,J3,12*
G04 #@! TO.N,Net-(J3-Pad12)*
X142621000Y-107188000D03*
G04 #@! TO.P,J3,13*
G04 #@! TO.N,Net-(J3-Pad13)*
X142621000Y-109728000D03*
G04 #@! TO.P,J3,14*
G04 #@! TO.N,Net-(J3-Pad14)*
X142621000Y-112268000D03*
G04 #@! TD*
D11*
G04 #@! TO.P,J4,1*
G04 #@! TO.N,XTAL1*
X124460000Y-99060000D03*
D10*
G04 #@! TO.P,J4,2*
G04 #@! TO.N,Net-(J4-Pad2)*
X124460000Y-101600000D03*
G04 #@! TO.P,J4,3*
G04 #@! TO.N,XTAL2*
X124460000Y-104140000D03*
G04 #@! TD*
D13*
G04 #@! TO.P,R2,1*
G04 #@! TO.N,LED*
X146050000Y-63500000D03*
D12*
G04 #@! TO.P,R2,2*
G04 #@! TO.N,Net-(Q1-Pad2)*
X153670000Y-63500000D03*
G04 #@! TD*
G04 #@! TO.P,R3,2*
G04 #@! TO.N,Net-(D1-Pad2)*
X163830000Y-63500000D03*
D13*
G04 #@! TO.P,R3,1*
G04 #@! TO.N,VCC*
X156210000Y-63500000D03*
G04 #@! TD*
D17*
G04 #@! TO.P,Q1,1*
G04 #@! TO.N,Net-(D1-Pad1)*
X152400000Y-55880000D03*
D18*
G04 #@! TO.P,Q1,3*
G04 #@! TO.N,GND*
X152400000Y-58420000D03*
G04 #@! TO.P,Q1,2*
G04 #@! TO.N,Net-(Q1-Pad2)*
X153670000Y-57150000D03*
G04 #@! TD*
D19*
G04 #@! TO.N,RST*
X145839000Y-74930000D02*
X142621000Y-78148000D01*
X142621000Y-78148000D02*
X142621000Y-79248000D01*
X161290000Y-74930000D02*
X145839000Y-74930000D01*
X162560000Y-76200000D02*
X161290000Y-74930000D01*
X162560000Y-99060000D02*
X162560000Y-76200000D01*
X171450000Y-102870000D02*
X166370000Y-102870000D01*
X166370000Y-102870000D02*
X162560000Y-99060000D01*
G04 #@! TD*
M02*
