G04 #@! TF.GenerationSoftware,KiCad,Pcbnew,(5.0.2)-1*
G04 #@! TF.CreationDate,2019-04-07T19:54:09+02:00*
G04 #@! TF.ProjectId,dip28_zif_programmer,64697032-385f-47a6-9966-5f70726f6772,rev?*
G04 #@! TF.SameCoordinates,Original*
G04 #@! TF.FileFunction,Copper,L1,Top*
G04 #@! TF.FilePolarity,Positive*
%FSLAX46Y46*%
G04 Gerber Fmt 4.6, Leading zero omitted, Abs format (unit mm)*
G04 Created by KiCad (PCBNEW (5.0.2)-1) date 07/04/2019 19:54:09*
%MOMM*%
%LPD*%
G01*
G04 APERTURE LIST*
G04 #@! TA.AperFunction,ComponentPad*
%ADD10O,1.700000X1.700000*%
G04 #@! TD*
G04 #@! TA.AperFunction,ComponentPad*
%ADD11R,1.700000X1.700000*%
G04 #@! TD*
G04 #@! TA.AperFunction,ComponentPad*
%ADD12O,1.600000X1.600000*%
G04 #@! TD*
G04 #@! TA.AperFunction,ComponentPad*
%ADD13C,1.600000*%
G04 #@! TD*
G04 #@! TA.AperFunction,ComponentPad*
%ADD14C,1.800000*%
G04 #@! TD*
G04 #@! TA.AperFunction,ComponentPad*
%ADD15R,1.800000X1.800000*%
G04 #@! TD*
G04 #@! TA.AperFunction,ComponentPad*
%ADD16R,3.500000X3.500000*%
G04 #@! TD*
G04 #@! TA.AperFunction,ComponentPad*
%ADD17R,1.000000X1.000000*%
G04 #@! TD*
G04 #@! TA.AperFunction,ComponentPad*
%ADD18C,1.000000*%
G04 #@! TD*
G04 #@! TA.AperFunction,Conductor*
%ADD19C,0.250000*%
G04 #@! TD*
G04 #@! TA.AperFunction,Conductor*
%ADD20C,0.254000*%
G04 #@! TD*
G04 APERTURE END LIST*
D10*
G04 #@! TO.P,J5,14*
G04 #@! TO.N,Net-(J5-Pad14)*
X157480000Y-112268000D03*
G04 #@! TO.P,J5,13*
G04 #@! TO.N,Net-(J5-Pad13)*
X157480000Y-109728000D03*
G04 #@! TO.P,J5,12*
G04 #@! TO.N,MOSI*
X157480000Y-107188000D03*
G04 #@! TO.P,J5,11*
G04 #@! TO.N,MISO*
X157480000Y-104648000D03*
G04 #@! TO.P,J5,10*
G04 #@! TO.N,SCK*
X157480000Y-102108000D03*
G04 #@! TO.P,J5,9*
G04 #@! TO.N,VCC*
X157480000Y-99568000D03*
G04 #@! TO.P,J5,8*
X157480000Y-97028000D03*
G04 #@! TO.P,J5,7*
G04 #@! TO.N,GND*
X157480000Y-94488000D03*
G04 #@! TO.P,J5,6*
G04 #@! TO.N,Net-(J5-Pad6)*
X157480000Y-91948000D03*
G04 #@! TO.P,J5,5*
G04 #@! TO.N,Net-(J5-Pad5)*
X157480000Y-89408000D03*
G04 #@! TO.P,J5,4*
G04 #@! TO.N,Net-(J5-Pad4)*
X157480000Y-86868000D03*
G04 #@! TO.P,J5,3*
G04 #@! TO.N,Net-(J5-Pad3)*
X157480000Y-84328000D03*
G04 #@! TO.P,J5,2*
G04 #@! TO.N,Net-(J5-Pad2)*
X157480000Y-81788000D03*
D11*
G04 #@! TO.P,J5,1*
G04 #@! TO.N,Net-(J5-Pad1)*
X157480000Y-79248000D03*
G04 #@! TD*
D12*
G04 #@! TO.P,R1,2*
G04 #@! TO.N,VCC*
X133350000Y-85090000D03*
D13*
G04 #@! TO.P,R1,1*
G04 #@! TO.N,RST*
X133350000Y-77470000D03*
G04 #@! TD*
G04 #@! TO.P,C1,2*
G04 #@! TO.N,GND*
X133350000Y-90210000D03*
G04 #@! TO.P,C1,1*
G04 #@! TO.N,VCC*
X133350000Y-92710000D03*
G04 #@! TD*
G04 #@! TO.P,C2,1*
G04 #@! TO.N,XTAL2*
X133350000Y-104140000D03*
G04 #@! TO.P,C2,2*
G04 #@! TO.N,GND*
X133350000Y-106640000D03*
G04 #@! TD*
G04 #@! TO.P,C3,2*
G04 #@! TO.N,GND*
X133350000Y-96560000D03*
G04 #@! TO.P,C3,1*
G04 #@! TO.N,XTAL1*
X133350000Y-99060000D03*
G04 #@! TD*
D14*
G04 #@! TO.P,D1,2*
G04 #@! TO.N,Net-(D1-Pad2)*
X161290000Y-57150000D03*
D15*
G04 #@! TO.P,D1,1*
G04 #@! TO.N,Net-(D1-Pad1)*
X158750000Y-57150000D03*
G04 #@! TD*
D10*
G04 #@! TO.P,J1,10*
G04 #@! TO.N,GND*
X173990000Y-107950000D03*
G04 #@! TO.P,J1,9*
G04 #@! TO.N,MISO*
X171450000Y-107950000D03*
G04 #@! TO.P,J1,8*
G04 #@! TO.N,GND*
X173990000Y-105410000D03*
G04 #@! TO.P,J1,7*
G04 #@! TO.N,SCK*
X171450000Y-105410000D03*
G04 #@! TO.P,J1,6*
G04 #@! TO.N,GND*
X173990000Y-102870000D03*
G04 #@! TO.P,J1,5*
G04 #@! TO.N,RST*
X171450000Y-102870000D03*
G04 #@! TO.P,J1,4*
G04 #@! TO.N,GND*
X173990000Y-100330000D03*
G04 #@! TO.P,J1,3*
G04 #@! TO.N,Net-(J1-Pad3)*
X171450000Y-100330000D03*
G04 #@! TO.P,J1,2*
G04 #@! TO.N,VCC*
X173990000Y-97790000D03*
D11*
G04 #@! TO.P,J1,1*
G04 #@! TO.N,MOSI*
X171450000Y-97790000D03*
G04 #@! TD*
D16*
G04 #@! TO.P,J2,3*
G04 #@! TO.N,GND*
X168020000Y-63040000D03*
G04 #@! TO.P,J2,2*
X172720000Y-60040000D03*
G04 #@! TO.P,J2,1*
G04 #@! TO.N,VCC*
X172720000Y-66040000D03*
G04 #@! TD*
D11*
G04 #@! TO.P,J3,1*
G04 #@! TO.N,RST*
X142621000Y-79248000D03*
D10*
G04 #@! TO.P,J3,2*
G04 #@! TO.N,Net-(J3-Pad2)*
X142621000Y-81788000D03*
G04 #@! TO.P,J3,3*
G04 #@! TO.N,Net-(J3-Pad3)*
X142621000Y-84328000D03*
G04 #@! TO.P,J3,4*
G04 #@! TO.N,Net-(J3-Pad4)*
X142621000Y-86868000D03*
G04 #@! TO.P,J3,5*
G04 #@! TO.N,LED*
X142621000Y-89408000D03*
G04 #@! TO.P,J3,6*
G04 #@! TO.N,Net-(J3-Pad6)*
X142621000Y-91948000D03*
G04 #@! TO.P,J3,7*
G04 #@! TO.N,VCC*
X142621000Y-94488000D03*
G04 #@! TO.P,J3,8*
G04 #@! TO.N,GND*
X142621000Y-97028000D03*
G04 #@! TO.P,J3,9*
G04 #@! TO.N,XTAL1*
X142621000Y-99568000D03*
G04 #@! TO.P,J3,10*
G04 #@! TO.N,XTAL2*
X142621000Y-102108000D03*
G04 #@! TO.P,J3,11*
G04 #@! TO.N,Net-(J3-Pad11)*
X142621000Y-104648000D03*
G04 #@! TO.P,J3,12*
G04 #@! TO.N,Net-(J3-Pad12)*
X142621000Y-107188000D03*
G04 #@! TO.P,J3,13*
G04 #@! TO.N,Net-(J3-Pad13)*
X142621000Y-109728000D03*
G04 #@! TO.P,J3,14*
G04 #@! TO.N,Net-(J3-Pad14)*
X142621000Y-112268000D03*
G04 #@! TD*
D11*
G04 #@! TO.P,J4,1*
G04 #@! TO.N,XTAL1*
X124460000Y-99060000D03*
D10*
G04 #@! TO.P,J4,2*
G04 #@! TO.N,Net-(J4-Pad2)*
X124460000Y-101600000D03*
G04 #@! TO.P,J4,3*
G04 #@! TO.N,XTAL2*
X124460000Y-104140000D03*
G04 #@! TD*
D13*
G04 #@! TO.P,R2,1*
G04 #@! TO.N,LED*
X146050000Y-63500000D03*
D12*
G04 #@! TO.P,R2,2*
G04 #@! TO.N,Net-(Q1-Pad2)*
X153670000Y-63500000D03*
G04 #@! TD*
G04 #@! TO.P,R3,2*
G04 #@! TO.N,Net-(D1-Pad2)*
X163830000Y-63500000D03*
D13*
G04 #@! TO.P,R3,1*
G04 #@! TO.N,VCC*
X156210000Y-63500000D03*
G04 #@! TD*
D17*
G04 #@! TO.P,Q1,1*
G04 #@! TO.N,Net-(D1-Pad1)*
X152400000Y-55880000D03*
D18*
G04 #@! TO.P,Q1,3*
G04 #@! TO.N,GND*
X152400000Y-58420000D03*
G04 #@! TO.P,Q1,2*
G04 #@! TO.N,Net-(Q1-Pad2)*
X153670000Y-57150000D03*
G04 #@! TD*
D19*
G04 #@! TO.N,VCC*
X158750000Y-66040000D02*
X156210000Y-63500000D01*
X172720000Y-66040000D02*
X158750000Y-66040000D01*
X135128000Y-94488000D02*
X133350000Y-92710000D01*
X142621000Y-94488000D02*
X135128000Y-94488000D01*
X157480000Y-97028000D02*
X157480000Y-99568000D01*
X173990000Y-67310000D02*
X172720000Y-66040000D01*
X158329999Y-96178001D02*
X157480000Y-97028000D01*
X145161000Y-97028000D02*
X142621000Y-94488000D01*
X157480000Y-97028000D02*
X145161000Y-97028000D01*
X134149999Y-85889999D02*
X133350000Y-85090000D01*
X135890000Y-87630000D02*
X134149999Y-85889999D01*
X135890000Y-90170000D02*
X135890000Y-87630000D01*
X133350000Y-92710000D02*
X135890000Y-90170000D01*
X172720000Y-96520000D02*
X173990000Y-97790000D01*
X173990000Y-97790000D02*
X172378001Y-96178001D01*
X172378001Y-96178001D02*
X158329999Y-96178001D01*
X172720000Y-66040000D02*
X172720000Y-96520000D01*
G04 #@! TO.N,XTAL2*
X140589000Y-104140000D02*
X142621000Y-102108000D01*
X133350000Y-104140000D02*
X140589000Y-104140000D01*
X124460000Y-104140000D02*
X133350000Y-104140000D01*
G04 #@! TO.N,XTAL1*
X142113000Y-99060000D02*
X142621000Y-99568000D01*
X133350000Y-99060000D02*
X142113000Y-99060000D01*
X124460000Y-99060000D02*
X133350000Y-99060000D01*
G04 #@! TO.N,Net-(D1-Pad2)*
X161290000Y-60960000D02*
X163830000Y-63500000D01*
X161290000Y-57150000D02*
X161290000Y-60960000D01*
G04 #@! TO.N,Net-(D1-Pad1)*
X158750000Y-56000000D02*
X158750000Y-57150000D01*
X158630000Y-55880000D02*
X158750000Y-56000000D01*
X152400000Y-55880000D02*
X158630000Y-55880000D01*
G04 #@! TO.N,MISO*
X160782000Y-107950000D02*
X157480000Y-104648000D01*
X171450000Y-107950000D02*
X160782000Y-107950000D01*
G04 #@! TO.N,SCK*
X157480000Y-102108000D02*
X168148000Y-102108000D01*
X168148000Y-102108000D02*
X171450000Y-105410000D01*
G04 #@! TO.N,RST*
X143721000Y-79248000D02*
X142621000Y-79248000D01*
X142621000Y-78148000D02*
X142621000Y-79248000D01*
X141943000Y-77470000D02*
X142621000Y-78148000D01*
X133350000Y-77470000D02*
X141943000Y-77470000D01*
G04 #@! TO.N,MOSI*
X170350000Y-97790000D02*
X171450000Y-97790000D01*
X157480000Y-107188000D02*
X156304999Y-106012999D01*
X156304999Y-106012999D02*
X156304999Y-101543999D01*
X156304999Y-101543999D02*
X157105997Y-100743001D01*
X157105997Y-100743001D02*
X167396999Y-100743001D01*
X167396999Y-100743001D02*
X170350000Y-97790000D01*
G04 #@! TO.N,LED*
X146050000Y-63500000D02*
X144918630Y-63500000D01*
X142621000Y-89408000D02*
X144272000Y-89408000D01*
X146050000Y-87630000D02*
X146050000Y-63500000D01*
X144272000Y-89408000D02*
X146050000Y-87630000D01*
G04 #@! TO.N,Net-(Q1-Pad2)*
X153670000Y-63500000D02*
X153670000Y-57150000D01*
G04 #@! TD*
D20*
G04 #@! TO.N,GND*
G36*
X180900000Y-122480000D02*
X118820000Y-122480000D01*
X118820000Y-107647745D01*
X132521861Y-107647745D01*
X132595995Y-107893864D01*
X133133223Y-108086965D01*
X133703454Y-108059778D01*
X134104005Y-107893864D01*
X134178139Y-107647745D01*
X133350000Y-106819605D01*
X132521861Y-107647745D01*
X118820000Y-107647745D01*
X118820000Y-106423223D01*
X131903035Y-106423223D01*
X131930222Y-106993454D01*
X132096136Y-107394005D01*
X132342255Y-107468139D01*
X133170395Y-106640000D01*
X133529605Y-106640000D01*
X134357745Y-107468139D01*
X134603864Y-107394005D01*
X134796965Y-106856777D01*
X134769778Y-106286546D01*
X134603864Y-105885995D01*
X134357745Y-105811861D01*
X133529605Y-106640000D01*
X133170395Y-106640000D01*
X132342255Y-105811861D01*
X132096136Y-105885995D01*
X131903035Y-106423223D01*
X118820000Y-106423223D01*
X118820000Y-101600000D01*
X122945908Y-101600000D01*
X123061161Y-102179418D01*
X123389375Y-102670625D01*
X123687761Y-102870000D01*
X123389375Y-103069375D01*
X123061161Y-103560582D01*
X122945908Y-104140000D01*
X123061161Y-104719418D01*
X123389375Y-105210625D01*
X123880582Y-105538839D01*
X124313744Y-105625000D01*
X124606256Y-105625000D01*
X125039418Y-105538839D01*
X125530625Y-105210625D01*
X125738178Y-104900000D01*
X132111570Y-104900000D01*
X132133466Y-104952862D01*
X132537138Y-105356534D01*
X132602299Y-105383525D01*
X132595995Y-105386136D01*
X132521861Y-105632255D01*
X133350000Y-106460395D01*
X134178139Y-105632255D01*
X134104005Y-105386136D01*
X134097254Y-105383710D01*
X134162862Y-105356534D01*
X134566534Y-104952862D01*
X134588430Y-104900000D01*
X140514153Y-104900000D01*
X140589000Y-104914888D01*
X140663847Y-104900000D01*
X140663852Y-104900000D01*
X140885537Y-104855904D01*
X141117441Y-104700951D01*
X141222161Y-105227418D01*
X141550375Y-105718625D01*
X141848761Y-105918000D01*
X141550375Y-106117375D01*
X141222161Y-106608582D01*
X141106908Y-107188000D01*
X141222161Y-107767418D01*
X141550375Y-108258625D01*
X141848761Y-108458000D01*
X141550375Y-108657375D01*
X141222161Y-109148582D01*
X141106908Y-109728000D01*
X141222161Y-110307418D01*
X141550375Y-110798625D01*
X141848761Y-110998000D01*
X141550375Y-111197375D01*
X141222161Y-111688582D01*
X141106908Y-112268000D01*
X141222161Y-112847418D01*
X141550375Y-113338625D01*
X142041582Y-113666839D01*
X142474744Y-113753000D01*
X142767256Y-113753000D01*
X143200418Y-113666839D01*
X143691625Y-113338625D01*
X144019839Y-112847418D01*
X144135092Y-112268000D01*
X144019839Y-111688582D01*
X143691625Y-111197375D01*
X143393239Y-110998000D01*
X143691625Y-110798625D01*
X144019839Y-110307418D01*
X144135092Y-109728000D01*
X144019839Y-109148582D01*
X143691625Y-108657375D01*
X143393239Y-108458000D01*
X143691625Y-108258625D01*
X144019839Y-107767418D01*
X144135092Y-107188000D01*
X144019839Y-106608582D01*
X143691625Y-106117375D01*
X143393239Y-105918000D01*
X143691625Y-105718625D01*
X144019839Y-105227418D01*
X144135092Y-104648000D01*
X144019839Y-104068582D01*
X143691625Y-103577375D01*
X143393239Y-103378000D01*
X143691625Y-103178625D01*
X144019839Y-102687418D01*
X144135092Y-102108000D01*
X144019839Y-101528582D01*
X143691625Y-101037375D01*
X143393239Y-100838000D01*
X143691625Y-100638625D01*
X144019839Y-100147418D01*
X144135092Y-99568000D01*
X144019839Y-98988582D01*
X143691625Y-98497375D01*
X143372522Y-98284157D01*
X143502358Y-98223183D01*
X143892645Y-97794924D01*
X144062476Y-97384890D01*
X143941156Y-97155002D01*
X144106000Y-97155002D01*
X144106000Y-97047802D01*
X144570673Y-97512476D01*
X144613071Y-97575929D01*
X144676524Y-97618327D01*
X144676526Y-97618329D01*
X144801902Y-97702102D01*
X144864463Y-97743904D01*
X145086148Y-97788000D01*
X145086152Y-97788000D01*
X145160999Y-97802888D01*
X145235846Y-97788000D01*
X156201822Y-97788000D01*
X156409375Y-98098625D01*
X156707761Y-98298000D01*
X156409375Y-98497375D01*
X156081161Y-98988582D01*
X155965908Y-99568000D01*
X156081161Y-100147418D01*
X156299705Y-100474492D01*
X155820527Y-100953670D01*
X155757071Y-100996070D01*
X155714671Y-101059526D01*
X155714670Y-101059527D01*
X155589096Y-101247462D01*
X155530111Y-101543999D01*
X155545000Y-101618851D01*
X155544999Y-105938152D01*
X155530111Y-106012999D01*
X155544999Y-106087846D01*
X155544999Y-106087850D01*
X155589095Y-106309535D01*
X155757070Y-106560928D01*
X155820529Y-106603330D01*
X156038791Y-106821592D01*
X155965908Y-107188000D01*
X156081161Y-107767418D01*
X156409375Y-108258625D01*
X156707761Y-108458000D01*
X156409375Y-108657375D01*
X156081161Y-109148582D01*
X155965908Y-109728000D01*
X156081161Y-110307418D01*
X156409375Y-110798625D01*
X156707761Y-110998000D01*
X156409375Y-111197375D01*
X156081161Y-111688582D01*
X155965908Y-112268000D01*
X156081161Y-112847418D01*
X156409375Y-113338625D01*
X156900582Y-113666839D01*
X157333744Y-113753000D01*
X157626256Y-113753000D01*
X158059418Y-113666839D01*
X158550625Y-113338625D01*
X158878839Y-112847418D01*
X158994092Y-112268000D01*
X158878839Y-111688582D01*
X158550625Y-111197375D01*
X158252239Y-110998000D01*
X158550625Y-110798625D01*
X158878839Y-110307418D01*
X158994092Y-109728000D01*
X158878839Y-109148582D01*
X158550625Y-108657375D01*
X158252239Y-108458000D01*
X158550625Y-108258625D01*
X158878839Y-107767418D01*
X158985980Y-107228782D01*
X160191671Y-108434473D01*
X160234071Y-108497929D01*
X160485463Y-108665904D01*
X160707148Y-108710000D01*
X160707152Y-108710000D01*
X160781999Y-108724888D01*
X160856846Y-108710000D01*
X170171822Y-108710000D01*
X170379375Y-109020625D01*
X170870582Y-109348839D01*
X171303744Y-109435000D01*
X171596256Y-109435000D01*
X172029418Y-109348839D01*
X172520625Y-109020625D01*
X172721353Y-108720214D01*
X173108642Y-109145183D01*
X173633108Y-109391486D01*
X173863000Y-109270819D01*
X173863000Y-108077000D01*
X174117000Y-108077000D01*
X174117000Y-109270819D01*
X174346892Y-109391486D01*
X174871358Y-109145183D01*
X175261645Y-108716924D01*
X175431476Y-108306890D01*
X175310155Y-108077000D01*
X174117000Y-108077000D01*
X173863000Y-108077000D01*
X173843000Y-108077000D01*
X173843000Y-107823000D01*
X173863000Y-107823000D01*
X173863000Y-105537000D01*
X174117000Y-105537000D01*
X174117000Y-107823000D01*
X175310155Y-107823000D01*
X175431476Y-107593110D01*
X175261645Y-107183076D01*
X174871358Y-106754817D01*
X174712046Y-106680000D01*
X174871358Y-106605183D01*
X175261645Y-106176924D01*
X175431476Y-105766890D01*
X175310155Y-105537000D01*
X174117000Y-105537000D01*
X173863000Y-105537000D01*
X173843000Y-105537000D01*
X173843000Y-105283000D01*
X173863000Y-105283000D01*
X173863000Y-102997000D01*
X174117000Y-102997000D01*
X174117000Y-105283000D01*
X175310155Y-105283000D01*
X175431476Y-105053110D01*
X175261645Y-104643076D01*
X174871358Y-104214817D01*
X174712046Y-104140000D01*
X174871358Y-104065183D01*
X175261645Y-103636924D01*
X175431476Y-103226890D01*
X175310155Y-102997000D01*
X174117000Y-102997000D01*
X173863000Y-102997000D01*
X173843000Y-102997000D01*
X173843000Y-102743000D01*
X173863000Y-102743000D01*
X173863000Y-100457000D01*
X174117000Y-100457000D01*
X174117000Y-102743000D01*
X175310155Y-102743000D01*
X175431476Y-102513110D01*
X175261645Y-102103076D01*
X174871358Y-101674817D01*
X174712046Y-101600000D01*
X174871358Y-101525183D01*
X175261645Y-101096924D01*
X175431476Y-100686890D01*
X175310155Y-100457000D01*
X174117000Y-100457000D01*
X173863000Y-100457000D01*
X173843000Y-100457000D01*
X173843000Y-100203000D01*
X173863000Y-100203000D01*
X173863000Y-100183000D01*
X174117000Y-100183000D01*
X174117000Y-100203000D01*
X175310155Y-100203000D01*
X175431476Y-99973110D01*
X175261645Y-99563076D01*
X174871358Y-99134817D01*
X174741522Y-99073843D01*
X175060625Y-98860625D01*
X175388839Y-98369418D01*
X175504092Y-97790000D01*
X175388839Y-97210582D01*
X175060625Y-96719375D01*
X174569418Y-96391161D01*
X174136256Y-96305000D01*
X173843744Y-96305000D01*
X173623592Y-96348791D01*
X173480000Y-96205199D01*
X173480000Y-68437440D01*
X174470000Y-68437440D01*
X174717765Y-68388157D01*
X174927809Y-68247809D01*
X175068157Y-68037765D01*
X175117440Y-67790000D01*
X175117440Y-64290000D01*
X175068157Y-64042235D01*
X174927809Y-63832191D01*
X174717765Y-63691843D01*
X174470000Y-63642560D01*
X170970000Y-63642560D01*
X170722235Y-63691843D01*
X170512191Y-63832191D01*
X170405000Y-63992612D01*
X170405000Y-63325750D01*
X170246250Y-63167000D01*
X168147000Y-63167000D01*
X168147000Y-63187000D01*
X167893000Y-63187000D01*
X167893000Y-63167000D01*
X165793750Y-63167000D01*
X165635000Y-63325750D01*
X165635000Y-64916309D01*
X165731673Y-65149698D01*
X165861974Y-65280000D01*
X159064803Y-65280000D01*
X157623103Y-63838302D01*
X157645000Y-63785439D01*
X157645000Y-63214561D01*
X157426534Y-62687138D01*
X157022862Y-62283466D01*
X156495439Y-62065000D01*
X155924561Y-62065000D01*
X155397138Y-62283466D01*
X154993466Y-62687138D01*
X154939606Y-62817168D01*
X154704577Y-62465423D01*
X154430000Y-62281957D01*
X154430000Y-57995133D01*
X154632207Y-57792926D01*
X154805000Y-57375766D01*
X154805000Y-56924234D01*
X154687267Y-56640000D01*
X157202560Y-56640000D01*
X157202560Y-58050000D01*
X157251843Y-58297765D01*
X157392191Y-58507809D01*
X157602235Y-58648157D01*
X157850000Y-58697440D01*
X159650000Y-58697440D01*
X159897765Y-58648157D01*
X160107809Y-58507809D01*
X160248157Y-58297765D01*
X160251275Y-58282092D01*
X160420493Y-58451310D01*
X160530000Y-58496669D01*
X160530001Y-60885148D01*
X160515112Y-60960000D01*
X160530001Y-61034852D01*
X160574097Y-61256537D01*
X160742072Y-61507929D01*
X160805528Y-61550329D01*
X162431312Y-63176114D01*
X162366887Y-63500000D01*
X162478260Y-64059909D01*
X162795423Y-64534577D01*
X163270091Y-64851740D01*
X163688667Y-64935000D01*
X163971333Y-64935000D01*
X164389909Y-64851740D01*
X164864577Y-64534577D01*
X165181740Y-64059909D01*
X165293113Y-63500000D01*
X165181740Y-62940091D01*
X164864577Y-62465423D01*
X164389909Y-62148260D01*
X163971333Y-62065000D01*
X163688667Y-62065000D01*
X163506114Y-62101312D01*
X162568493Y-61163691D01*
X165635000Y-61163691D01*
X165635000Y-62754250D01*
X165793750Y-62913000D01*
X167893000Y-62913000D01*
X167893000Y-60813750D01*
X168147000Y-60813750D01*
X168147000Y-62913000D01*
X170246250Y-62913000D01*
X170405000Y-62754250D01*
X170405000Y-62085304D01*
X170431673Y-62149698D01*
X170610301Y-62328327D01*
X170843690Y-62425000D01*
X172434250Y-62425000D01*
X172593000Y-62266250D01*
X172593000Y-60167000D01*
X172847000Y-60167000D01*
X172847000Y-62266250D01*
X173005750Y-62425000D01*
X174596310Y-62425000D01*
X174829699Y-62328327D01*
X175008327Y-62149698D01*
X175105000Y-61916309D01*
X175105000Y-60325750D01*
X174946250Y-60167000D01*
X172847000Y-60167000D01*
X172593000Y-60167000D01*
X170493750Y-60167000D01*
X170335000Y-60325750D01*
X170335000Y-60994696D01*
X170308327Y-60930302D01*
X170129699Y-60751673D01*
X169896310Y-60655000D01*
X168305750Y-60655000D01*
X168147000Y-60813750D01*
X167893000Y-60813750D01*
X167734250Y-60655000D01*
X166143690Y-60655000D01*
X165910301Y-60751673D01*
X165731673Y-60930302D01*
X165635000Y-61163691D01*
X162568493Y-61163691D01*
X162050000Y-60645199D01*
X162050000Y-58496669D01*
X162159507Y-58451310D01*
X162447126Y-58163691D01*
X170335000Y-58163691D01*
X170335000Y-59754250D01*
X170493750Y-59913000D01*
X172593000Y-59913000D01*
X172593000Y-57813750D01*
X172847000Y-57813750D01*
X172847000Y-59913000D01*
X174946250Y-59913000D01*
X175105000Y-59754250D01*
X175105000Y-58163691D01*
X175008327Y-57930302D01*
X174829699Y-57751673D01*
X174596310Y-57655000D01*
X173005750Y-57655000D01*
X172847000Y-57813750D01*
X172593000Y-57813750D01*
X172434250Y-57655000D01*
X170843690Y-57655000D01*
X170610301Y-57751673D01*
X170431673Y-57930302D01*
X170335000Y-58163691D01*
X162447126Y-58163691D01*
X162591310Y-58019507D01*
X162825000Y-57455330D01*
X162825000Y-56844670D01*
X162591310Y-56280493D01*
X162159507Y-55848690D01*
X161595330Y-55615000D01*
X160984670Y-55615000D01*
X160420493Y-55848690D01*
X160251275Y-56017908D01*
X160248157Y-56002235D01*
X160107809Y-55792191D01*
X159897765Y-55651843D01*
X159650000Y-55602560D01*
X159398483Y-55602560D01*
X159297929Y-55452071D01*
X159234470Y-55409669D01*
X159220331Y-55395530D01*
X159177929Y-55332071D01*
X158926537Y-55164096D01*
X158704852Y-55120000D01*
X158704847Y-55120000D01*
X158630000Y-55105112D01*
X158555153Y-55120000D01*
X153489982Y-55120000D01*
X153357809Y-54922191D01*
X153147765Y-54781843D01*
X152900000Y-54732560D01*
X151900000Y-54732560D01*
X151652235Y-54781843D01*
X151442191Y-54922191D01*
X151301843Y-55132235D01*
X151252560Y-55380000D01*
X151252560Y-56380000D01*
X151301843Y-56627765D01*
X151442191Y-56837809D01*
X151652235Y-56978157D01*
X151900000Y-57027440D01*
X152535000Y-57027440D01*
X152535000Y-57272598D01*
X152094625Y-57303783D01*
X151826648Y-57414783D01*
X151789501Y-57629896D01*
X152400000Y-58240395D01*
X152414143Y-58226253D01*
X152593748Y-58405858D01*
X152579605Y-58420000D01*
X152593748Y-58434143D01*
X152414143Y-58613748D01*
X152400000Y-58599605D01*
X151789501Y-59210104D01*
X151826648Y-59425217D01*
X152254972Y-59568112D01*
X152705375Y-59536217D01*
X152910001Y-59451458D01*
X152910000Y-62281956D01*
X152635423Y-62465423D01*
X152318260Y-62940091D01*
X152206887Y-63500000D01*
X152318260Y-64059909D01*
X152635423Y-64534577D01*
X153110091Y-64851740D01*
X153528667Y-64935000D01*
X153811333Y-64935000D01*
X154229909Y-64851740D01*
X154704577Y-64534577D01*
X154939606Y-64182832D01*
X154993466Y-64312862D01*
X155397138Y-64716534D01*
X155924561Y-64935000D01*
X156495439Y-64935000D01*
X156548302Y-64913103D01*
X158159673Y-66524476D01*
X158202071Y-66587929D01*
X158265524Y-66630327D01*
X158265526Y-66630329D01*
X158390902Y-66714102D01*
X158453463Y-66755904D01*
X158675148Y-66800000D01*
X158675152Y-66800000D01*
X158749999Y-66814888D01*
X158824846Y-66800000D01*
X170322560Y-66800000D01*
X170322560Y-67790000D01*
X170371843Y-68037765D01*
X170512191Y-68247809D01*
X170722235Y-68388157D01*
X170970000Y-68437440D01*
X171960000Y-68437440D01*
X171960001Y-95418001D01*
X158603027Y-95418001D01*
X158751645Y-95254924D01*
X158921476Y-94844890D01*
X158800155Y-94615000D01*
X157607000Y-94615000D01*
X157607000Y-94635000D01*
X157353000Y-94635000D01*
X157353000Y-94615000D01*
X156159845Y-94615000D01*
X156038524Y-94844890D01*
X156208355Y-95254924D01*
X156598642Y-95683183D01*
X156728478Y-95744157D01*
X156409375Y-95957375D01*
X156201822Y-96268000D01*
X145475803Y-96268000D01*
X144062209Y-94854408D01*
X144135092Y-94488000D01*
X144019839Y-93908582D01*
X143691625Y-93417375D01*
X143393239Y-93218000D01*
X143691625Y-93018625D01*
X144019839Y-92527418D01*
X144135092Y-91948000D01*
X144019839Y-91368582D01*
X143691625Y-90877375D01*
X143393239Y-90678000D01*
X143691625Y-90478625D01*
X143899178Y-90168000D01*
X144197153Y-90168000D01*
X144272000Y-90182888D01*
X144346847Y-90168000D01*
X144346852Y-90168000D01*
X144568537Y-90123904D01*
X144819929Y-89955929D01*
X144862331Y-89892470D01*
X146534473Y-88220329D01*
X146597929Y-88177929D01*
X146640924Y-88113582D01*
X146765904Y-87926538D01*
X146775480Y-87878395D01*
X146810000Y-87704852D01*
X146810000Y-87704848D01*
X146824888Y-87630000D01*
X146810000Y-87555152D01*
X146810000Y-81788000D01*
X155965908Y-81788000D01*
X156081161Y-82367418D01*
X156409375Y-82858625D01*
X156707761Y-83058000D01*
X156409375Y-83257375D01*
X156081161Y-83748582D01*
X155965908Y-84328000D01*
X156081161Y-84907418D01*
X156409375Y-85398625D01*
X156707761Y-85598000D01*
X156409375Y-85797375D01*
X156081161Y-86288582D01*
X155965908Y-86868000D01*
X156081161Y-87447418D01*
X156409375Y-87938625D01*
X156707761Y-88138000D01*
X156409375Y-88337375D01*
X156081161Y-88828582D01*
X155965908Y-89408000D01*
X156081161Y-89987418D01*
X156409375Y-90478625D01*
X156707761Y-90678000D01*
X156409375Y-90877375D01*
X156081161Y-91368582D01*
X155965908Y-91948000D01*
X156081161Y-92527418D01*
X156409375Y-93018625D01*
X156728478Y-93231843D01*
X156598642Y-93292817D01*
X156208355Y-93721076D01*
X156038524Y-94131110D01*
X156159845Y-94361000D01*
X157353000Y-94361000D01*
X157353000Y-94341000D01*
X157607000Y-94341000D01*
X157607000Y-94361000D01*
X158800155Y-94361000D01*
X158921476Y-94131110D01*
X158751645Y-93721076D01*
X158361358Y-93292817D01*
X158231522Y-93231843D01*
X158550625Y-93018625D01*
X158878839Y-92527418D01*
X158994092Y-91948000D01*
X158878839Y-91368582D01*
X158550625Y-90877375D01*
X158252239Y-90678000D01*
X158550625Y-90478625D01*
X158878839Y-89987418D01*
X158994092Y-89408000D01*
X158878839Y-88828582D01*
X158550625Y-88337375D01*
X158252239Y-88138000D01*
X158550625Y-87938625D01*
X158878839Y-87447418D01*
X158994092Y-86868000D01*
X158878839Y-86288582D01*
X158550625Y-85797375D01*
X158252239Y-85598000D01*
X158550625Y-85398625D01*
X158878839Y-84907418D01*
X158994092Y-84328000D01*
X158878839Y-83748582D01*
X158550625Y-83257375D01*
X158252239Y-83058000D01*
X158550625Y-82858625D01*
X158878839Y-82367418D01*
X158994092Y-81788000D01*
X158878839Y-81208582D01*
X158550625Y-80717375D01*
X158532381Y-80705184D01*
X158577765Y-80696157D01*
X158787809Y-80555809D01*
X158928157Y-80345765D01*
X158977440Y-80098000D01*
X158977440Y-78398000D01*
X158928157Y-78150235D01*
X158787809Y-77940191D01*
X158577765Y-77799843D01*
X158330000Y-77750560D01*
X156630000Y-77750560D01*
X156382235Y-77799843D01*
X156172191Y-77940191D01*
X156031843Y-78150235D01*
X155982560Y-78398000D01*
X155982560Y-80098000D01*
X156031843Y-80345765D01*
X156172191Y-80555809D01*
X156382235Y-80696157D01*
X156427619Y-80705184D01*
X156409375Y-80717375D01*
X156081161Y-81208582D01*
X155965908Y-81788000D01*
X146810000Y-81788000D01*
X146810000Y-64738430D01*
X146862862Y-64716534D01*
X147266534Y-64312862D01*
X147485000Y-63785439D01*
X147485000Y-63214561D01*
X147266534Y-62687138D01*
X146862862Y-62283466D01*
X146335439Y-62065000D01*
X145764561Y-62065000D01*
X145237138Y-62283466D01*
X144833466Y-62687138D01*
X144808678Y-62746982D01*
X144622093Y-62784096D01*
X144370701Y-62952071D01*
X144202726Y-63203463D01*
X144143741Y-63500000D01*
X144202726Y-63796537D01*
X144370701Y-64047929D01*
X144622093Y-64215904D01*
X144808678Y-64253018D01*
X144833466Y-64312862D01*
X145237138Y-64716534D01*
X145290001Y-64738431D01*
X145290000Y-87315198D01*
X143957199Y-88648000D01*
X143899178Y-88648000D01*
X143691625Y-88337375D01*
X143393239Y-88138000D01*
X143691625Y-87938625D01*
X144019839Y-87447418D01*
X144135092Y-86868000D01*
X144019839Y-86288582D01*
X143691625Y-85797375D01*
X143393239Y-85598000D01*
X143691625Y-85398625D01*
X144019839Y-84907418D01*
X144135092Y-84328000D01*
X144019839Y-83748582D01*
X143691625Y-83257375D01*
X143393239Y-83058000D01*
X143691625Y-82858625D01*
X144019839Y-82367418D01*
X144135092Y-81788000D01*
X144019839Y-81208582D01*
X143691625Y-80717375D01*
X143673381Y-80705184D01*
X143718765Y-80696157D01*
X143928809Y-80555809D01*
X144069157Y-80345765D01*
X144118440Y-80098000D01*
X144118440Y-79896483D01*
X144268929Y-79795929D01*
X144436904Y-79544537D01*
X144495889Y-79248000D01*
X144436904Y-78951463D01*
X144268929Y-78700071D01*
X144118440Y-78599517D01*
X144118440Y-78398000D01*
X144069157Y-78150235D01*
X143928809Y-77940191D01*
X143718765Y-77799843D01*
X143471000Y-77750560D01*
X143269483Y-77750560D01*
X143211329Y-77663527D01*
X143168929Y-77600071D01*
X143105473Y-77557671D01*
X142533331Y-76985530D01*
X142490929Y-76922071D01*
X142239537Y-76754096D01*
X142017852Y-76710000D01*
X142017847Y-76710000D01*
X141943000Y-76695112D01*
X141868153Y-76710000D01*
X134588430Y-76710000D01*
X134566534Y-76657138D01*
X134162862Y-76253466D01*
X133635439Y-76035000D01*
X133064561Y-76035000D01*
X132537138Y-76253466D01*
X132133466Y-76657138D01*
X131915000Y-77184561D01*
X131915000Y-77755439D01*
X132133466Y-78282862D01*
X132537138Y-78686534D01*
X133064561Y-78905000D01*
X133635439Y-78905000D01*
X134162862Y-78686534D01*
X134566534Y-78282862D01*
X134588430Y-78230000D01*
X141156977Y-78230000D01*
X141123560Y-78398000D01*
X141123560Y-80098000D01*
X141172843Y-80345765D01*
X141313191Y-80555809D01*
X141523235Y-80696157D01*
X141568619Y-80705184D01*
X141550375Y-80717375D01*
X141222161Y-81208582D01*
X141106908Y-81788000D01*
X141222161Y-82367418D01*
X141550375Y-82858625D01*
X141848761Y-83058000D01*
X141550375Y-83257375D01*
X141222161Y-83748582D01*
X141106908Y-84328000D01*
X141222161Y-84907418D01*
X141550375Y-85398625D01*
X141848761Y-85598000D01*
X141550375Y-85797375D01*
X141222161Y-86288582D01*
X141106908Y-86868000D01*
X141222161Y-87447418D01*
X141550375Y-87938625D01*
X141848761Y-88138000D01*
X141550375Y-88337375D01*
X141222161Y-88828582D01*
X141106908Y-89408000D01*
X141222161Y-89987418D01*
X141550375Y-90478625D01*
X141848761Y-90678000D01*
X141550375Y-90877375D01*
X141222161Y-91368582D01*
X141106908Y-91948000D01*
X141222161Y-92527418D01*
X141550375Y-93018625D01*
X141848761Y-93218000D01*
X141550375Y-93417375D01*
X141342822Y-93728000D01*
X135442802Y-93728000D01*
X134763103Y-93048302D01*
X134785000Y-92995439D01*
X134785000Y-92424561D01*
X134763103Y-92371698D01*
X136374476Y-90760327D01*
X136437929Y-90717929D01*
X136480327Y-90654476D01*
X136480329Y-90654474D01*
X136605903Y-90466538D01*
X136605904Y-90466537D01*
X136650000Y-90244852D01*
X136650000Y-90244848D01*
X136664888Y-90170001D01*
X136650000Y-90095154D01*
X136650000Y-87704846D01*
X136664888Y-87629999D01*
X136650000Y-87555152D01*
X136650000Y-87555148D01*
X136605904Y-87333463D01*
X136437929Y-87082071D01*
X136374473Y-87039671D01*
X134748688Y-85413887D01*
X134813113Y-85090000D01*
X134701740Y-84530091D01*
X134384577Y-84055423D01*
X133909909Y-83738260D01*
X133491333Y-83655000D01*
X133208667Y-83655000D01*
X132790091Y-83738260D01*
X132315423Y-84055423D01*
X131998260Y-84530091D01*
X131886887Y-85090000D01*
X131998260Y-85649909D01*
X132315423Y-86124577D01*
X132790091Y-86441740D01*
X133208667Y-86525000D01*
X133491333Y-86525000D01*
X133673887Y-86488688D01*
X135130001Y-87944803D01*
X135130000Y-89855197D01*
X134786109Y-90199088D01*
X134769778Y-89856546D01*
X134603864Y-89455995D01*
X134357745Y-89381861D01*
X133529605Y-90210000D01*
X133543748Y-90224142D01*
X133364142Y-90403748D01*
X133350000Y-90389605D01*
X132521861Y-91217745D01*
X132595995Y-91463864D01*
X132602746Y-91466290D01*
X132537138Y-91493466D01*
X132133466Y-91897138D01*
X131915000Y-92424561D01*
X131915000Y-92995439D01*
X132133466Y-93522862D01*
X132537138Y-93926534D01*
X133064561Y-94145000D01*
X133635439Y-94145000D01*
X133688302Y-94123103D01*
X134537670Y-94972472D01*
X134580071Y-95035929D01*
X134643527Y-95078329D01*
X134831462Y-95203904D01*
X134879605Y-95213480D01*
X135053148Y-95248000D01*
X135053152Y-95248000D01*
X135128000Y-95262888D01*
X135202848Y-95248000D01*
X141342822Y-95248000D01*
X141550375Y-95558625D01*
X141869478Y-95771843D01*
X141739642Y-95832817D01*
X141349355Y-96261076D01*
X141179524Y-96671110D01*
X141300845Y-96901000D01*
X142494000Y-96901000D01*
X142494000Y-96881000D01*
X142748000Y-96881000D01*
X142748000Y-96901000D01*
X142768000Y-96901000D01*
X142768000Y-97155000D01*
X142748000Y-97155000D01*
X142748000Y-97175000D01*
X142494000Y-97175000D01*
X142494000Y-97155000D01*
X141300845Y-97155000D01*
X141179524Y-97384890D01*
X141349355Y-97794924D01*
X141739642Y-98223183D01*
X141869478Y-98284157D01*
X141845768Y-98300000D01*
X134588430Y-98300000D01*
X134566534Y-98247138D01*
X134162862Y-97843466D01*
X134097701Y-97816475D01*
X134104005Y-97813864D01*
X134178139Y-97567745D01*
X133350000Y-96739605D01*
X132521861Y-97567745D01*
X132595995Y-97813864D01*
X132602746Y-97816290D01*
X132537138Y-97843466D01*
X132133466Y-98247138D01*
X132111570Y-98300000D01*
X125957440Y-98300000D01*
X125957440Y-98210000D01*
X125908157Y-97962235D01*
X125767809Y-97752191D01*
X125557765Y-97611843D01*
X125310000Y-97562560D01*
X123610000Y-97562560D01*
X123362235Y-97611843D01*
X123152191Y-97752191D01*
X123011843Y-97962235D01*
X122962560Y-98210000D01*
X122962560Y-99910000D01*
X123011843Y-100157765D01*
X123152191Y-100367809D01*
X123362235Y-100508157D01*
X123407619Y-100517184D01*
X123389375Y-100529375D01*
X123061161Y-101020582D01*
X122945908Y-101600000D01*
X118820000Y-101600000D01*
X118820000Y-96343223D01*
X131903035Y-96343223D01*
X131930222Y-96913454D01*
X132096136Y-97314005D01*
X132342255Y-97388139D01*
X133170395Y-96560000D01*
X133529605Y-96560000D01*
X134357745Y-97388139D01*
X134603864Y-97314005D01*
X134796965Y-96776777D01*
X134769778Y-96206546D01*
X134603864Y-95805995D01*
X134357745Y-95731861D01*
X133529605Y-96560000D01*
X133170395Y-96560000D01*
X132342255Y-95731861D01*
X132096136Y-95805995D01*
X131903035Y-96343223D01*
X118820000Y-96343223D01*
X118820000Y-95552255D01*
X132521861Y-95552255D01*
X133350000Y-96380395D01*
X134178139Y-95552255D01*
X134104005Y-95306136D01*
X133566777Y-95113035D01*
X132996546Y-95140222D01*
X132595995Y-95306136D01*
X132521861Y-95552255D01*
X118820000Y-95552255D01*
X118820000Y-89993223D01*
X131903035Y-89993223D01*
X131930222Y-90563454D01*
X132096136Y-90964005D01*
X132342255Y-91038139D01*
X133170395Y-90210000D01*
X132342255Y-89381861D01*
X132096136Y-89455995D01*
X131903035Y-89993223D01*
X118820000Y-89993223D01*
X118820000Y-89202255D01*
X132521861Y-89202255D01*
X133350000Y-90030395D01*
X134178139Y-89202255D01*
X134104005Y-88956136D01*
X133566777Y-88763035D01*
X132996546Y-88790222D01*
X132595995Y-88956136D01*
X132521861Y-89202255D01*
X118820000Y-89202255D01*
X118820000Y-58274972D01*
X151251888Y-58274972D01*
X151283783Y-58725375D01*
X151394783Y-58993352D01*
X151609896Y-59030499D01*
X152220395Y-58420000D01*
X151609896Y-57809501D01*
X151394783Y-57846648D01*
X151251888Y-58274972D01*
X118820000Y-58274972D01*
X118820000Y-52780000D01*
X180900001Y-52780000D01*
X180900000Y-122480000D01*
X180900000Y-122480000D01*
G37*
X180900000Y-122480000D02*
X118820000Y-122480000D01*
X118820000Y-107647745D01*
X132521861Y-107647745D01*
X132595995Y-107893864D01*
X133133223Y-108086965D01*
X133703454Y-108059778D01*
X134104005Y-107893864D01*
X134178139Y-107647745D01*
X133350000Y-106819605D01*
X132521861Y-107647745D01*
X118820000Y-107647745D01*
X118820000Y-106423223D01*
X131903035Y-106423223D01*
X131930222Y-106993454D01*
X132096136Y-107394005D01*
X132342255Y-107468139D01*
X133170395Y-106640000D01*
X133529605Y-106640000D01*
X134357745Y-107468139D01*
X134603864Y-107394005D01*
X134796965Y-106856777D01*
X134769778Y-106286546D01*
X134603864Y-105885995D01*
X134357745Y-105811861D01*
X133529605Y-106640000D01*
X133170395Y-106640000D01*
X132342255Y-105811861D01*
X132096136Y-105885995D01*
X131903035Y-106423223D01*
X118820000Y-106423223D01*
X118820000Y-101600000D01*
X122945908Y-101600000D01*
X123061161Y-102179418D01*
X123389375Y-102670625D01*
X123687761Y-102870000D01*
X123389375Y-103069375D01*
X123061161Y-103560582D01*
X122945908Y-104140000D01*
X123061161Y-104719418D01*
X123389375Y-105210625D01*
X123880582Y-105538839D01*
X124313744Y-105625000D01*
X124606256Y-105625000D01*
X125039418Y-105538839D01*
X125530625Y-105210625D01*
X125738178Y-104900000D01*
X132111570Y-104900000D01*
X132133466Y-104952862D01*
X132537138Y-105356534D01*
X132602299Y-105383525D01*
X132595995Y-105386136D01*
X132521861Y-105632255D01*
X133350000Y-106460395D01*
X134178139Y-105632255D01*
X134104005Y-105386136D01*
X134097254Y-105383710D01*
X134162862Y-105356534D01*
X134566534Y-104952862D01*
X134588430Y-104900000D01*
X140514153Y-104900000D01*
X140589000Y-104914888D01*
X140663847Y-104900000D01*
X140663852Y-104900000D01*
X140885537Y-104855904D01*
X141117441Y-104700951D01*
X141222161Y-105227418D01*
X141550375Y-105718625D01*
X141848761Y-105918000D01*
X141550375Y-106117375D01*
X141222161Y-106608582D01*
X141106908Y-107188000D01*
X141222161Y-107767418D01*
X141550375Y-108258625D01*
X141848761Y-108458000D01*
X141550375Y-108657375D01*
X141222161Y-109148582D01*
X141106908Y-109728000D01*
X141222161Y-110307418D01*
X141550375Y-110798625D01*
X141848761Y-110998000D01*
X141550375Y-111197375D01*
X141222161Y-111688582D01*
X141106908Y-112268000D01*
X141222161Y-112847418D01*
X141550375Y-113338625D01*
X142041582Y-113666839D01*
X142474744Y-113753000D01*
X142767256Y-113753000D01*
X143200418Y-113666839D01*
X143691625Y-113338625D01*
X144019839Y-112847418D01*
X144135092Y-112268000D01*
X144019839Y-111688582D01*
X143691625Y-111197375D01*
X143393239Y-110998000D01*
X143691625Y-110798625D01*
X144019839Y-110307418D01*
X144135092Y-109728000D01*
X144019839Y-109148582D01*
X143691625Y-108657375D01*
X143393239Y-108458000D01*
X143691625Y-108258625D01*
X144019839Y-107767418D01*
X144135092Y-107188000D01*
X144019839Y-106608582D01*
X143691625Y-106117375D01*
X143393239Y-105918000D01*
X143691625Y-105718625D01*
X144019839Y-105227418D01*
X144135092Y-104648000D01*
X144019839Y-104068582D01*
X143691625Y-103577375D01*
X143393239Y-103378000D01*
X143691625Y-103178625D01*
X144019839Y-102687418D01*
X144135092Y-102108000D01*
X144019839Y-101528582D01*
X143691625Y-101037375D01*
X143393239Y-100838000D01*
X143691625Y-100638625D01*
X144019839Y-100147418D01*
X144135092Y-99568000D01*
X144019839Y-98988582D01*
X143691625Y-98497375D01*
X143372522Y-98284157D01*
X143502358Y-98223183D01*
X143892645Y-97794924D01*
X144062476Y-97384890D01*
X143941156Y-97155002D01*
X144106000Y-97155002D01*
X144106000Y-97047802D01*
X144570673Y-97512476D01*
X144613071Y-97575929D01*
X144676524Y-97618327D01*
X144676526Y-97618329D01*
X144801902Y-97702102D01*
X144864463Y-97743904D01*
X145086148Y-97788000D01*
X145086152Y-97788000D01*
X145160999Y-97802888D01*
X145235846Y-97788000D01*
X156201822Y-97788000D01*
X156409375Y-98098625D01*
X156707761Y-98298000D01*
X156409375Y-98497375D01*
X156081161Y-98988582D01*
X155965908Y-99568000D01*
X156081161Y-100147418D01*
X156299705Y-100474492D01*
X155820527Y-100953670D01*
X155757071Y-100996070D01*
X155714671Y-101059526D01*
X155714670Y-101059527D01*
X155589096Y-101247462D01*
X155530111Y-101543999D01*
X155545000Y-101618851D01*
X155544999Y-105938152D01*
X155530111Y-106012999D01*
X155544999Y-106087846D01*
X155544999Y-106087850D01*
X155589095Y-106309535D01*
X155757070Y-106560928D01*
X155820529Y-106603330D01*
X156038791Y-106821592D01*
X155965908Y-107188000D01*
X156081161Y-107767418D01*
X156409375Y-108258625D01*
X156707761Y-108458000D01*
X156409375Y-108657375D01*
X156081161Y-109148582D01*
X155965908Y-109728000D01*
X156081161Y-110307418D01*
X156409375Y-110798625D01*
X156707761Y-110998000D01*
X156409375Y-111197375D01*
X156081161Y-111688582D01*
X155965908Y-112268000D01*
X156081161Y-112847418D01*
X156409375Y-113338625D01*
X156900582Y-113666839D01*
X157333744Y-113753000D01*
X157626256Y-113753000D01*
X158059418Y-113666839D01*
X158550625Y-113338625D01*
X158878839Y-112847418D01*
X158994092Y-112268000D01*
X158878839Y-111688582D01*
X158550625Y-111197375D01*
X158252239Y-110998000D01*
X158550625Y-110798625D01*
X158878839Y-110307418D01*
X158994092Y-109728000D01*
X158878839Y-109148582D01*
X158550625Y-108657375D01*
X158252239Y-108458000D01*
X158550625Y-108258625D01*
X158878839Y-107767418D01*
X158985980Y-107228782D01*
X160191671Y-108434473D01*
X160234071Y-108497929D01*
X160485463Y-108665904D01*
X160707148Y-108710000D01*
X160707152Y-108710000D01*
X160781999Y-108724888D01*
X160856846Y-108710000D01*
X170171822Y-108710000D01*
X170379375Y-109020625D01*
X170870582Y-109348839D01*
X171303744Y-109435000D01*
X171596256Y-109435000D01*
X172029418Y-109348839D01*
X172520625Y-109020625D01*
X172721353Y-108720214D01*
X173108642Y-109145183D01*
X173633108Y-109391486D01*
X173863000Y-109270819D01*
X173863000Y-108077000D01*
X174117000Y-108077000D01*
X174117000Y-109270819D01*
X174346892Y-109391486D01*
X174871358Y-109145183D01*
X175261645Y-108716924D01*
X175431476Y-108306890D01*
X175310155Y-108077000D01*
X174117000Y-108077000D01*
X173863000Y-108077000D01*
X173843000Y-108077000D01*
X173843000Y-107823000D01*
X173863000Y-107823000D01*
X173863000Y-105537000D01*
X174117000Y-105537000D01*
X174117000Y-107823000D01*
X175310155Y-107823000D01*
X175431476Y-107593110D01*
X175261645Y-107183076D01*
X174871358Y-106754817D01*
X174712046Y-106680000D01*
X174871358Y-106605183D01*
X175261645Y-106176924D01*
X175431476Y-105766890D01*
X175310155Y-105537000D01*
X174117000Y-105537000D01*
X173863000Y-105537000D01*
X173843000Y-105537000D01*
X173843000Y-105283000D01*
X173863000Y-105283000D01*
X173863000Y-102997000D01*
X174117000Y-102997000D01*
X174117000Y-105283000D01*
X175310155Y-105283000D01*
X175431476Y-105053110D01*
X175261645Y-104643076D01*
X174871358Y-104214817D01*
X174712046Y-104140000D01*
X174871358Y-104065183D01*
X175261645Y-103636924D01*
X175431476Y-103226890D01*
X175310155Y-102997000D01*
X174117000Y-102997000D01*
X173863000Y-102997000D01*
X173843000Y-102997000D01*
X173843000Y-102743000D01*
X173863000Y-102743000D01*
X173863000Y-100457000D01*
X174117000Y-100457000D01*
X174117000Y-102743000D01*
X175310155Y-102743000D01*
X175431476Y-102513110D01*
X175261645Y-102103076D01*
X174871358Y-101674817D01*
X174712046Y-101600000D01*
X174871358Y-101525183D01*
X175261645Y-101096924D01*
X175431476Y-100686890D01*
X175310155Y-100457000D01*
X174117000Y-100457000D01*
X173863000Y-100457000D01*
X173843000Y-100457000D01*
X173843000Y-100203000D01*
X173863000Y-100203000D01*
X173863000Y-100183000D01*
X174117000Y-100183000D01*
X174117000Y-100203000D01*
X175310155Y-100203000D01*
X175431476Y-99973110D01*
X175261645Y-99563076D01*
X174871358Y-99134817D01*
X174741522Y-99073843D01*
X175060625Y-98860625D01*
X175388839Y-98369418D01*
X175504092Y-97790000D01*
X175388839Y-97210582D01*
X175060625Y-96719375D01*
X174569418Y-96391161D01*
X174136256Y-96305000D01*
X173843744Y-96305000D01*
X173623592Y-96348791D01*
X173480000Y-96205199D01*
X173480000Y-68437440D01*
X174470000Y-68437440D01*
X174717765Y-68388157D01*
X174927809Y-68247809D01*
X175068157Y-68037765D01*
X175117440Y-67790000D01*
X175117440Y-64290000D01*
X175068157Y-64042235D01*
X174927809Y-63832191D01*
X174717765Y-63691843D01*
X174470000Y-63642560D01*
X170970000Y-63642560D01*
X170722235Y-63691843D01*
X170512191Y-63832191D01*
X170405000Y-63992612D01*
X170405000Y-63325750D01*
X170246250Y-63167000D01*
X168147000Y-63167000D01*
X168147000Y-63187000D01*
X167893000Y-63187000D01*
X167893000Y-63167000D01*
X165793750Y-63167000D01*
X165635000Y-63325750D01*
X165635000Y-64916309D01*
X165731673Y-65149698D01*
X165861974Y-65280000D01*
X159064803Y-65280000D01*
X157623103Y-63838302D01*
X157645000Y-63785439D01*
X157645000Y-63214561D01*
X157426534Y-62687138D01*
X157022862Y-62283466D01*
X156495439Y-62065000D01*
X155924561Y-62065000D01*
X155397138Y-62283466D01*
X154993466Y-62687138D01*
X154939606Y-62817168D01*
X154704577Y-62465423D01*
X154430000Y-62281957D01*
X154430000Y-57995133D01*
X154632207Y-57792926D01*
X154805000Y-57375766D01*
X154805000Y-56924234D01*
X154687267Y-56640000D01*
X157202560Y-56640000D01*
X157202560Y-58050000D01*
X157251843Y-58297765D01*
X157392191Y-58507809D01*
X157602235Y-58648157D01*
X157850000Y-58697440D01*
X159650000Y-58697440D01*
X159897765Y-58648157D01*
X160107809Y-58507809D01*
X160248157Y-58297765D01*
X160251275Y-58282092D01*
X160420493Y-58451310D01*
X160530000Y-58496669D01*
X160530001Y-60885148D01*
X160515112Y-60960000D01*
X160530001Y-61034852D01*
X160574097Y-61256537D01*
X160742072Y-61507929D01*
X160805528Y-61550329D01*
X162431312Y-63176114D01*
X162366887Y-63500000D01*
X162478260Y-64059909D01*
X162795423Y-64534577D01*
X163270091Y-64851740D01*
X163688667Y-64935000D01*
X163971333Y-64935000D01*
X164389909Y-64851740D01*
X164864577Y-64534577D01*
X165181740Y-64059909D01*
X165293113Y-63500000D01*
X165181740Y-62940091D01*
X164864577Y-62465423D01*
X164389909Y-62148260D01*
X163971333Y-62065000D01*
X163688667Y-62065000D01*
X163506114Y-62101312D01*
X162568493Y-61163691D01*
X165635000Y-61163691D01*
X165635000Y-62754250D01*
X165793750Y-62913000D01*
X167893000Y-62913000D01*
X167893000Y-60813750D01*
X168147000Y-60813750D01*
X168147000Y-62913000D01*
X170246250Y-62913000D01*
X170405000Y-62754250D01*
X170405000Y-62085304D01*
X170431673Y-62149698D01*
X170610301Y-62328327D01*
X170843690Y-62425000D01*
X172434250Y-62425000D01*
X172593000Y-62266250D01*
X172593000Y-60167000D01*
X172847000Y-60167000D01*
X172847000Y-62266250D01*
X173005750Y-62425000D01*
X174596310Y-62425000D01*
X174829699Y-62328327D01*
X175008327Y-62149698D01*
X175105000Y-61916309D01*
X175105000Y-60325750D01*
X174946250Y-60167000D01*
X172847000Y-60167000D01*
X172593000Y-60167000D01*
X170493750Y-60167000D01*
X170335000Y-60325750D01*
X170335000Y-60994696D01*
X170308327Y-60930302D01*
X170129699Y-60751673D01*
X169896310Y-60655000D01*
X168305750Y-60655000D01*
X168147000Y-60813750D01*
X167893000Y-60813750D01*
X167734250Y-60655000D01*
X166143690Y-60655000D01*
X165910301Y-60751673D01*
X165731673Y-60930302D01*
X165635000Y-61163691D01*
X162568493Y-61163691D01*
X162050000Y-60645199D01*
X162050000Y-58496669D01*
X162159507Y-58451310D01*
X162447126Y-58163691D01*
X170335000Y-58163691D01*
X170335000Y-59754250D01*
X170493750Y-59913000D01*
X172593000Y-59913000D01*
X172593000Y-57813750D01*
X172847000Y-57813750D01*
X172847000Y-59913000D01*
X174946250Y-59913000D01*
X175105000Y-59754250D01*
X175105000Y-58163691D01*
X175008327Y-57930302D01*
X174829699Y-57751673D01*
X174596310Y-57655000D01*
X173005750Y-57655000D01*
X172847000Y-57813750D01*
X172593000Y-57813750D01*
X172434250Y-57655000D01*
X170843690Y-57655000D01*
X170610301Y-57751673D01*
X170431673Y-57930302D01*
X170335000Y-58163691D01*
X162447126Y-58163691D01*
X162591310Y-58019507D01*
X162825000Y-57455330D01*
X162825000Y-56844670D01*
X162591310Y-56280493D01*
X162159507Y-55848690D01*
X161595330Y-55615000D01*
X160984670Y-55615000D01*
X160420493Y-55848690D01*
X160251275Y-56017908D01*
X160248157Y-56002235D01*
X160107809Y-55792191D01*
X159897765Y-55651843D01*
X159650000Y-55602560D01*
X159398483Y-55602560D01*
X159297929Y-55452071D01*
X159234470Y-55409669D01*
X159220331Y-55395530D01*
X159177929Y-55332071D01*
X158926537Y-55164096D01*
X158704852Y-55120000D01*
X158704847Y-55120000D01*
X158630000Y-55105112D01*
X158555153Y-55120000D01*
X153489982Y-55120000D01*
X153357809Y-54922191D01*
X153147765Y-54781843D01*
X152900000Y-54732560D01*
X151900000Y-54732560D01*
X151652235Y-54781843D01*
X151442191Y-54922191D01*
X151301843Y-55132235D01*
X151252560Y-55380000D01*
X151252560Y-56380000D01*
X151301843Y-56627765D01*
X151442191Y-56837809D01*
X151652235Y-56978157D01*
X151900000Y-57027440D01*
X152535000Y-57027440D01*
X152535000Y-57272598D01*
X152094625Y-57303783D01*
X151826648Y-57414783D01*
X151789501Y-57629896D01*
X152400000Y-58240395D01*
X152414143Y-58226253D01*
X152593748Y-58405858D01*
X152579605Y-58420000D01*
X152593748Y-58434143D01*
X152414143Y-58613748D01*
X152400000Y-58599605D01*
X151789501Y-59210104D01*
X151826648Y-59425217D01*
X152254972Y-59568112D01*
X152705375Y-59536217D01*
X152910001Y-59451458D01*
X152910000Y-62281956D01*
X152635423Y-62465423D01*
X152318260Y-62940091D01*
X152206887Y-63500000D01*
X152318260Y-64059909D01*
X152635423Y-64534577D01*
X153110091Y-64851740D01*
X153528667Y-64935000D01*
X153811333Y-64935000D01*
X154229909Y-64851740D01*
X154704577Y-64534577D01*
X154939606Y-64182832D01*
X154993466Y-64312862D01*
X155397138Y-64716534D01*
X155924561Y-64935000D01*
X156495439Y-64935000D01*
X156548302Y-64913103D01*
X158159673Y-66524476D01*
X158202071Y-66587929D01*
X158265524Y-66630327D01*
X158265526Y-66630329D01*
X158390902Y-66714102D01*
X158453463Y-66755904D01*
X158675148Y-66800000D01*
X158675152Y-66800000D01*
X158749999Y-66814888D01*
X158824846Y-66800000D01*
X170322560Y-66800000D01*
X170322560Y-67790000D01*
X170371843Y-68037765D01*
X170512191Y-68247809D01*
X170722235Y-68388157D01*
X170970000Y-68437440D01*
X171960000Y-68437440D01*
X171960001Y-95418001D01*
X158603027Y-95418001D01*
X158751645Y-95254924D01*
X158921476Y-94844890D01*
X158800155Y-94615000D01*
X157607000Y-94615000D01*
X157607000Y-94635000D01*
X157353000Y-94635000D01*
X157353000Y-94615000D01*
X156159845Y-94615000D01*
X156038524Y-94844890D01*
X156208355Y-95254924D01*
X156598642Y-95683183D01*
X156728478Y-95744157D01*
X156409375Y-95957375D01*
X156201822Y-96268000D01*
X145475803Y-96268000D01*
X144062209Y-94854408D01*
X144135092Y-94488000D01*
X144019839Y-93908582D01*
X143691625Y-93417375D01*
X143393239Y-93218000D01*
X143691625Y-93018625D01*
X144019839Y-92527418D01*
X144135092Y-91948000D01*
X144019839Y-91368582D01*
X143691625Y-90877375D01*
X143393239Y-90678000D01*
X143691625Y-90478625D01*
X143899178Y-90168000D01*
X144197153Y-90168000D01*
X144272000Y-90182888D01*
X144346847Y-90168000D01*
X144346852Y-90168000D01*
X144568537Y-90123904D01*
X144819929Y-89955929D01*
X144862331Y-89892470D01*
X146534473Y-88220329D01*
X146597929Y-88177929D01*
X146640924Y-88113582D01*
X146765904Y-87926538D01*
X146775480Y-87878395D01*
X146810000Y-87704852D01*
X146810000Y-87704848D01*
X146824888Y-87630000D01*
X146810000Y-87555152D01*
X146810000Y-81788000D01*
X155965908Y-81788000D01*
X156081161Y-82367418D01*
X156409375Y-82858625D01*
X156707761Y-83058000D01*
X156409375Y-83257375D01*
X156081161Y-83748582D01*
X155965908Y-84328000D01*
X156081161Y-84907418D01*
X156409375Y-85398625D01*
X156707761Y-85598000D01*
X156409375Y-85797375D01*
X156081161Y-86288582D01*
X155965908Y-86868000D01*
X156081161Y-87447418D01*
X156409375Y-87938625D01*
X156707761Y-88138000D01*
X156409375Y-88337375D01*
X156081161Y-88828582D01*
X155965908Y-89408000D01*
X156081161Y-89987418D01*
X156409375Y-90478625D01*
X156707761Y-90678000D01*
X156409375Y-90877375D01*
X156081161Y-91368582D01*
X155965908Y-91948000D01*
X156081161Y-92527418D01*
X156409375Y-93018625D01*
X156728478Y-93231843D01*
X156598642Y-93292817D01*
X156208355Y-93721076D01*
X156038524Y-94131110D01*
X156159845Y-94361000D01*
X157353000Y-94361000D01*
X157353000Y-94341000D01*
X157607000Y-94341000D01*
X157607000Y-94361000D01*
X158800155Y-94361000D01*
X158921476Y-94131110D01*
X158751645Y-93721076D01*
X158361358Y-93292817D01*
X158231522Y-93231843D01*
X158550625Y-93018625D01*
X158878839Y-92527418D01*
X158994092Y-91948000D01*
X158878839Y-91368582D01*
X158550625Y-90877375D01*
X158252239Y-90678000D01*
X158550625Y-90478625D01*
X158878839Y-89987418D01*
X158994092Y-89408000D01*
X158878839Y-88828582D01*
X158550625Y-88337375D01*
X158252239Y-88138000D01*
X158550625Y-87938625D01*
X158878839Y-87447418D01*
X158994092Y-86868000D01*
X158878839Y-86288582D01*
X158550625Y-85797375D01*
X158252239Y-85598000D01*
X158550625Y-85398625D01*
X158878839Y-84907418D01*
X158994092Y-84328000D01*
X158878839Y-83748582D01*
X158550625Y-83257375D01*
X158252239Y-83058000D01*
X158550625Y-82858625D01*
X158878839Y-82367418D01*
X158994092Y-81788000D01*
X158878839Y-81208582D01*
X158550625Y-80717375D01*
X158532381Y-80705184D01*
X158577765Y-80696157D01*
X158787809Y-80555809D01*
X158928157Y-80345765D01*
X158977440Y-80098000D01*
X158977440Y-78398000D01*
X158928157Y-78150235D01*
X158787809Y-77940191D01*
X158577765Y-77799843D01*
X158330000Y-77750560D01*
X156630000Y-77750560D01*
X156382235Y-77799843D01*
X156172191Y-77940191D01*
X156031843Y-78150235D01*
X155982560Y-78398000D01*
X155982560Y-80098000D01*
X156031843Y-80345765D01*
X156172191Y-80555809D01*
X156382235Y-80696157D01*
X156427619Y-80705184D01*
X156409375Y-80717375D01*
X156081161Y-81208582D01*
X155965908Y-81788000D01*
X146810000Y-81788000D01*
X146810000Y-64738430D01*
X146862862Y-64716534D01*
X147266534Y-64312862D01*
X147485000Y-63785439D01*
X147485000Y-63214561D01*
X147266534Y-62687138D01*
X146862862Y-62283466D01*
X146335439Y-62065000D01*
X145764561Y-62065000D01*
X145237138Y-62283466D01*
X144833466Y-62687138D01*
X144808678Y-62746982D01*
X144622093Y-62784096D01*
X144370701Y-62952071D01*
X144202726Y-63203463D01*
X144143741Y-63500000D01*
X144202726Y-63796537D01*
X144370701Y-64047929D01*
X144622093Y-64215904D01*
X144808678Y-64253018D01*
X144833466Y-64312862D01*
X145237138Y-64716534D01*
X145290001Y-64738431D01*
X145290000Y-87315198D01*
X143957199Y-88648000D01*
X143899178Y-88648000D01*
X143691625Y-88337375D01*
X143393239Y-88138000D01*
X143691625Y-87938625D01*
X144019839Y-87447418D01*
X144135092Y-86868000D01*
X144019839Y-86288582D01*
X143691625Y-85797375D01*
X143393239Y-85598000D01*
X143691625Y-85398625D01*
X144019839Y-84907418D01*
X144135092Y-84328000D01*
X144019839Y-83748582D01*
X143691625Y-83257375D01*
X143393239Y-83058000D01*
X143691625Y-82858625D01*
X144019839Y-82367418D01*
X144135092Y-81788000D01*
X144019839Y-81208582D01*
X143691625Y-80717375D01*
X143673381Y-80705184D01*
X143718765Y-80696157D01*
X143928809Y-80555809D01*
X144069157Y-80345765D01*
X144118440Y-80098000D01*
X144118440Y-79896483D01*
X144268929Y-79795929D01*
X144436904Y-79544537D01*
X144495889Y-79248000D01*
X144436904Y-78951463D01*
X144268929Y-78700071D01*
X144118440Y-78599517D01*
X144118440Y-78398000D01*
X144069157Y-78150235D01*
X143928809Y-77940191D01*
X143718765Y-77799843D01*
X143471000Y-77750560D01*
X143269483Y-77750560D01*
X143211329Y-77663527D01*
X143168929Y-77600071D01*
X143105473Y-77557671D01*
X142533331Y-76985530D01*
X142490929Y-76922071D01*
X142239537Y-76754096D01*
X142017852Y-76710000D01*
X142017847Y-76710000D01*
X141943000Y-76695112D01*
X141868153Y-76710000D01*
X134588430Y-76710000D01*
X134566534Y-76657138D01*
X134162862Y-76253466D01*
X133635439Y-76035000D01*
X133064561Y-76035000D01*
X132537138Y-76253466D01*
X132133466Y-76657138D01*
X131915000Y-77184561D01*
X131915000Y-77755439D01*
X132133466Y-78282862D01*
X132537138Y-78686534D01*
X133064561Y-78905000D01*
X133635439Y-78905000D01*
X134162862Y-78686534D01*
X134566534Y-78282862D01*
X134588430Y-78230000D01*
X141156977Y-78230000D01*
X141123560Y-78398000D01*
X141123560Y-80098000D01*
X141172843Y-80345765D01*
X141313191Y-80555809D01*
X141523235Y-80696157D01*
X141568619Y-80705184D01*
X141550375Y-80717375D01*
X141222161Y-81208582D01*
X141106908Y-81788000D01*
X141222161Y-82367418D01*
X141550375Y-82858625D01*
X141848761Y-83058000D01*
X141550375Y-83257375D01*
X141222161Y-83748582D01*
X141106908Y-84328000D01*
X141222161Y-84907418D01*
X141550375Y-85398625D01*
X141848761Y-85598000D01*
X141550375Y-85797375D01*
X141222161Y-86288582D01*
X141106908Y-86868000D01*
X141222161Y-87447418D01*
X141550375Y-87938625D01*
X141848761Y-88138000D01*
X141550375Y-88337375D01*
X141222161Y-88828582D01*
X141106908Y-89408000D01*
X141222161Y-89987418D01*
X141550375Y-90478625D01*
X141848761Y-90678000D01*
X141550375Y-90877375D01*
X141222161Y-91368582D01*
X141106908Y-91948000D01*
X141222161Y-92527418D01*
X141550375Y-93018625D01*
X141848761Y-93218000D01*
X141550375Y-93417375D01*
X141342822Y-93728000D01*
X135442802Y-93728000D01*
X134763103Y-93048302D01*
X134785000Y-92995439D01*
X134785000Y-92424561D01*
X134763103Y-92371698D01*
X136374476Y-90760327D01*
X136437929Y-90717929D01*
X136480327Y-90654476D01*
X136480329Y-90654474D01*
X136605903Y-90466538D01*
X136605904Y-90466537D01*
X136650000Y-90244852D01*
X136650000Y-90244848D01*
X136664888Y-90170001D01*
X136650000Y-90095154D01*
X136650000Y-87704846D01*
X136664888Y-87629999D01*
X136650000Y-87555152D01*
X136650000Y-87555148D01*
X136605904Y-87333463D01*
X136437929Y-87082071D01*
X136374473Y-87039671D01*
X134748688Y-85413887D01*
X134813113Y-85090000D01*
X134701740Y-84530091D01*
X134384577Y-84055423D01*
X133909909Y-83738260D01*
X133491333Y-83655000D01*
X133208667Y-83655000D01*
X132790091Y-83738260D01*
X132315423Y-84055423D01*
X131998260Y-84530091D01*
X131886887Y-85090000D01*
X131998260Y-85649909D01*
X132315423Y-86124577D01*
X132790091Y-86441740D01*
X133208667Y-86525000D01*
X133491333Y-86525000D01*
X133673887Y-86488688D01*
X135130001Y-87944803D01*
X135130000Y-89855197D01*
X134786109Y-90199088D01*
X134769778Y-89856546D01*
X134603864Y-89455995D01*
X134357745Y-89381861D01*
X133529605Y-90210000D01*
X133543748Y-90224142D01*
X133364142Y-90403748D01*
X133350000Y-90389605D01*
X132521861Y-91217745D01*
X132595995Y-91463864D01*
X132602746Y-91466290D01*
X132537138Y-91493466D01*
X132133466Y-91897138D01*
X131915000Y-92424561D01*
X131915000Y-92995439D01*
X132133466Y-93522862D01*
X132537138Y-93926534D01*
X133064561Y-94145000D01*
X133635439Y-94145000D01*
X133688302Y-94123103D01*
X134537670Y-94972472D01*
X134580071Y-95035929D01*
X134643527Y-95078329D01*
X134831462Y-95203904D01*
X134879605Y-95213480D01*
X135053148Y-95248000D01*
X135053152Y-95248000D01*
X135128000Y-95262888D01*
X135202848Y-95248000D01*
X141342822Y-95248000D01*
X141550375Y-95558625D01*
X141869478Y-95771843D01*
X141739642Y-95832817D01*
X141349355Y-96261076D01*
X141179524Y-96671110D01*
X141300845Y-96901000D01*
X142494000Y-96901000D01*
X142494000Y-96881000D01*
X142748000Y-96881000D01*
X142748000Y-96901000D01*
X142768000Y-96901000D01*
X142768000Y-97155000D01*
X142748000Y-97155000D01*
X142748000Y-97175000D01*
X142494000Y-97175000D01*
X142494000Y-97155000D01*
X141300845Y-97155000D01*
X141179524Y-97384890D01*
X141349355Y-97794924D01*
X141739642Y-98223183D01*
X141869478Y-98284157D01*
X141845768Y-98300000D01*
X134588430Y-98300000D01*
X134566534Y-98247138D01*
X134162862Y-97843466D01*
X134097701Y-97816475D01*
X134104005Y-97813864D01*
X134178139Y-97567745D01*
X133350000Y-96739605D01*
X132521861Y-97567745D01*
X132595995Y-97813864D01*
X132602746Y-97816290D01*
X132537138Y-97843466D01*
X132133466Y-98247138D01*
X132111570Y-98300000D01*
X125957440Y-98300000D01*
X125957440Y-98210000D01*
X125908157Y-97962235D01*
X125767809Y-97752191D01*
X125557765Y-97611843D01*
X125310000Y-97562560D01*
X123610000Y-97562560D01*
X123362235Y-97611843D01*
X123152191Y-97752191D01*
X123011843Y-97962235D01*
X122962560Y-98210000D01*
X122962560Y-99910000D01*
X123011843Y-100157765D01*
X123152191Y-100367809D01*
X123362235Y-100508157D01*
X123407619Y-100517184D01*
X123389375Y-100529375D01*
X123061161Y-101020582D01*
X122945908Y-101600000D01*
X118820000Y-101600000D01*
X118820000Y-96343223D01*
X131903035Y-96343223D01*
X131930222Y-96913454D01*
X132096136Y-97314005D01*
X132342255Y-97388139D01*
X133170395Y-96560000D01*
X133529605Y-96560000D01*
X134357745Y-97388139D01*
X134603864Y-97314005D01*
X134796965Y-96776777D01*
X134769778Y-96206546D01*
X134603864Y-95805995D01*
X134357745Y-95731861D01*
X133529605Y-96560000D01*
X133170395Y-96560000D01*
X132342255Y-95731861D01*
X132096136Y-95805995D01*
X131903035Y-96343223D01*
X118820000Y-96343223D01*
X118820000Y-95552255D01*
X132521861Y-95552255D01*
X133350000Y-96380395D01*
X134178139Y-95552255D01*
X134104005Y-95306136D01*
X133566777Y-95113035D01*
X132996546Y-95140222D01*
X132595995Y-95306136D01*
X132521861Y-95552255D01*
X118820000Y-95552255D01*
X118820000Y-89993223D01*
X131903035Y-89993223D01*
X131930222Y-90563454D01*
X132096136Y-90964005D01*
X132342255Y-91038139D01*
X133170395Y-90210000D01*
X132342255Y-89381861D01*
X132096136Y-89455995D01*
X131903035Y-89993223D01*
X118820000Y-89993223D01*
X118820000Y-89202255D01*
X132521861Y-89202255D01*
X133350000Y-90030395D01*
X134178139Y-89202255D01*
X134104005Y-88956136D01*
X133566777Y-88763035D01*
X132996546Y-88790222D01*
X132595995Y-88956136D01*
X132521861Y-89202255D01*
X118820000Y-89202255D01*
X118820000Y-58274972D01*
X151251888Y-58274972D01*
X151283783Y-58725375D01*
X151394783Y-58993352D01*
X151609896Y-59030499D01*
X152220395Y-58420000D01*
X151609896Y-57809501D01*
X151394783Y-57846648D01*
X151251888Y-58274972D01*
X118820000Y-58274972D01*
X118820000Y-52780000D01*
X180900001Y-52780000D01*
X180900000Y-122480000D01*
G04 #@! TD*
M02*
