M48
;DRILL file {KiCad (5.0.2)-1} date 07/04/2019 19:54:12
;FORMAT={-:-/ absolute / inch / decimal}
FMAT,2
INCH,TZ
T1C0.0236
T2C0.0315
T3C0.0354
T4C0.0394
%
G90
G05
T1
X6.Y-2.2
X6.Y-2.3
X6.05Y-2.25
T2
X5.25Y-3.8016
X5.25Y-3.9
X6.15Y-2.5
X6.45Y-2.5
X5.75Y-2.5
X6.05Y-2.5
X5.25Y-3.5516
X5.25Y-3.65
X5.25Y-4.1
X5.25Y-4.1984
X5.25Y-3.05
X5.25Y-3.35
T3
X6.25Y-2.25
X6.35Y-2.25
T4
X5.615Y-3.12
X5.615Y-3.22
X5.615Y-3.32
X5.615Y-3.42
X5.615Y-3.52
X5.615Y-3.62
X5.615Y-3.72
X5.615Y-3.82
X5.615Y-3.92
X5.615Y-4.02
X5.615Y-4.12
X5.615Y-4.22
X5.615Y-4.32
X5.615Y-4.42
X4.9Y-3.9
X4.9Y-4.
X4.9Y-4.1
X6.75Y-3.85
X6.75Y-3.95
X6.75Y-4.05
X6.75Y-4.15
X6.75Y-4.25
X6.85Y-3.85
X6.85Y-3.95
X6.85Y-4.05
X6.85Y-4.15
X6.85Y-4.25
X6.2Y-3.12
X6.2Y-3.22
X6.2Y-3.32
X6.2Y-3.42
X6.2Y-3.52
X6.2Y-3.62
X6.2Y-3.72
X6.2Y-3.82
X6.2Y-3.92
X6.2Y-4.02
X6.2Y-4.12
X6.2Y-4.22
X6.2Y-4.32
X6.2Y-4.42
T4
X6.615Y-2.4425G85X6.615Y-2.5213
G05
X6.8394Y-2.3638G85X6.7606Y-2.3638
G05
X6.8394Y-2.6G85X6.7606Y-2.6
G05
T0
M30
