G04 #@! TF.GenerationSoftware,KiCad,Pcbnew,(5.0.2)-1*
G04 #@! TF.CreationDate,2019-04-07T19:54:09+02:00*
G04 #@! TF.ProjectId,dip28_zif_programmer,64697032-385f-47a6-9966-5f70726f6772,rev?*
G04 #@! TF.SameCoordinates,Original*
G04 #@! TF.FileFunction,Legend,Top*
G04 #@! TF.FilePolarity,Positive*
%FSLAX46Y46*%
G04 Gerber Fmt 4.6, Leading zero omitted, Abs format (unit mm)*
G04 Created by KiCad (PCBNEW (5.0.2)-1) date 07/04/2019 19:54:09*
%MOMM*%
%LPD*%
G01*
G04 APERTURE LIST*
%ADD10C,0.300000*%
%ADD11C,1.250000*%
%ADD12C,0.120000*%
%ADD13C,0.150000*%
G04 APERTURE END LIST*
D10*
X168318571Y-104334285D02*
X166818571Y-104334285D01*
X168247142Y-103691428D02*
X168318571Y-103477142D01*
X168318571Y-103120000D01*
X168247142Y-102977142D01*
X168175714Y-102905714D01*
X168032857Y-102834285D01*
X167890000Y-102834285D01*
X167747142Y-102905714D01*
X167675714Y-102977142D01*
X167604285Y-103120000D01*
X167532857Y-103405714D01*
X167461428Y-103548571D01*
X167390000Y-103620000D01*
X167247142Y-103691428D01*
X167104285Y-103691428D01*
X166961428Y-103620000D01*
X166890000Y-103548571D01*
X166818571Y-103405714D01*
X166818571Y-103048571D01*
X166890000Y-102834285D01*
X168318571Y-102191428D02*
X166818571Y-102191428D01*
X166818571Y-101620000D01*
X166890000Y-101477142D01*
X166961428Y-101405714D01*
X167104285Y-101334285D01*
X167318571Y-101334285D01*
X167461428Y-101405714D01*
X167532857Y-101477142D01*
X167604285Y-101620000D01*
X167604285Y-102191428D01*
X178248571Y-66440000D02*
X179462857Y-66440000D01*
X179605714Y-66368571D01*
X179677142Y-66297142D01*
X179748571Y-66154285D01*
X179748571Y-65868571D01*
X179677142Y-65725714D01*
X179605714Y-65654285D01*
X179462857Y-65582857D01*
X178248571Y-65582857D01*
X178748571Y-64868571D02*
X179748571Y-64868571D01*
X178891428Y-64868571D02*
X178820000Y-64797142D01*
X178748571Y-64654285D01*
X178748571Y-64440000D01*
X178820000Y-64297142D01*
X178962857Y-64225714D01*
X179748571Y-64225714D01*
X179748571Y-63511428D02*
X178748571Y-63511428D01*
X179034285Y-63511428D02*
X178891428Y-63440000D01*
X178820000Y-63368571D01*
X178748571Y-63225714D01*
X178748571Y-63082857D01*
X179677142Y-62011428D02*
X179748571Y-62154285D01*
X179748571Y-62440000D01*
X179677142Y-62582857D01*
X179534285Y-62654285D01*
X178962857Y-62654285D01*
X178820000Y-62582857D01*
X178748571Y-62440000D01*
X178748571Y-62154285D01*
X178820000Y-62011428D01*
X178962857Y-61940000D01*
X179105714Y-61940000D01*
X179248571Y-62654285D01*
X178748571Y-60654285D02*
X179962857Y-60654285D01*
X180105714Y-60725714D01*
X180177142Y-60797142D01*
X180248571Y-60940000D01*
X180248571Y-61154285D01*
X180177142Y-61297142D01*
X179677142Y-60654285D02*
X179748571Y-60797142D01*
X179748571Y-61082857D01*
X179677142Y-61225714D01*
X179605714Y-61297142D01*
X179462857Y-61368571D01*
X179034285Y-61368571D01*
X178891428Y-61297142D01*
X178820000Y-61225714D01*
X178748571Y-61082857D01*
X178748571Y-60797142D01*
X178820000Y-60654285D01*
X178748571Y-59297142D02*
X179748571Y-59297142D01*
X178748571Y-59940000D02*
X179534285Y-59940000D01*
X179677142Y-59868571D01*
X179748571Y-59725714D01*
X179748571Y-59511428D01*
X179677142Y-59368571D01*
X179605714Y-59297142D01*
X179748571Y-58368571D02*
X179677142Y-58511428D01*
X179534285Y-58582857D01*
X178248571Y-58582857D01*
X179748571Y-57154285D02*
X178962857Y-57154285D01*
X178820000Y-57225714D01*
X178748571Y-57368571D01*
X178748571Y-57654285D01*
X178820000Y-57797142D01*
X179677142Y-57154285D02*
X179748571Y-57297142D01*
X179748571Y-57654285D01*
X179677142Y-57797142D01*
X179534285Y-57868571D01*
X179391428Y-57868571D01*
X179248571Y-57797142D01*
X179177142Y-57654285D01*
X179177142Y-57297142D01*
X179105714Y-57154285D01*
X178748571Y-56654285D02*
X178748571Y-56082857D01*
X178248571Y-56440000D02*
X179534285Y-56440000D01*
X179677142Y-56368571D01*
X179748571Y-56225714D01*
X179748571Y-56082857D01*
X179677142Y-55011428D02*
X179748571Y-55154285D01*
X179748571Y-55440000D01*
X179677142Y-55582857D01*
X179534285Y-55654285D01*
X178962857Y-55654285D01*
X178820000Y-55582857D01*
X178748571Y-55440000D01*
X178748571Y-55154285D01*
X178820000Y-55011428D01*
X178962857Y-54940000D01*
X179105714Y-54940000D01*
X179248571Y-55654285D01*
X179748571Y-53654285D02*
X178248571Y-53654285D01*
X179677142Y-53654285D02*
X179748571Y-53797142D01*
X179748571Y-54082857D01*
X179677142Y-54225714D01*
X179605714Y-54297142D01*
X179462857Y-54368571D01*
X179034285Y-54368571D01*
X178891428Y-54297142D01*
X178820000Y-54225714D01*
X178748571Y-54082857D01*
X178748571Y-53797142D01*
X178820000Y-53654285D01*
X179605714Y-52940000D02*
X179677142Y-52868571D01*
X179748571Y-52940000D01*
X179677142Y-53011428D01*
X179605714Y-52940000D01*
X179748571Y-52940000D01*
X179177142Y-52940000D02*
X178320000Y-53011428D01*
X178248571Y-52940000D01*
X178320000Y-52868571D01*
X179177142Y-52940000D01*
X178248571Y-52940000D01*
X122138571Y-108398571D02*
X123138571Y-109898571D01*
X123138571Y-108398571D02*
X122138571Y-109898571D01*
X123495714Y-108398571D02*
X124352857Y-108398571D01*
X123924285Y-109898571D02*
X123924285Y-108398571D01*
X124781428Y-109470000D02*
X125495714Y-109470000D01*
X124638571Y-109898571D02*
X125138571Y-108398571D01*
X125638571Y-109898571D01*
X126852857Y-109898571D02*
X126138571Y-109898571D01*
X126138571Y-108398571D01*
X163242857Y-55288571D02*
X163242857Y-53788571D01*
X163814285Y-53788571D01*
X163957142Y-53860000D01*
X164028571Y-53931428D01*
X164100000Y-54074285D01*
X164100000Y-54288571D01*
X164028571Y-54431428D01*
X163957142Y-54502857D01*
X163814285Y-54574285D01*
X163242857Y-54574285D01*
X164742857Y-55288571D02*
X164742857Y-53788571D01*
X165100000Y-53788571D01*
X165314285Y-53860000D01*
X165457142Y-54002857D01*
X165528571Y-54145714D01*
X165600000Y-54431428D01*
X165600000Y-54645714D01*
X165528571Y-54931428D01*
X165457142Y-55074285D01*
X165314285Y-55217142D01*
X165100000Y-55288571D01*
X164742857Y-55288571D01*
X166100000Y-53788571D02*
X167028571Y-53788571D01*
X166528571Y-54360000D01*
X166742857Y-54360000D01*
X166885714Y-54431428D01*
X166957142Y-54502857D01*
X167028571Y-54645714D01*
X167028571Y-55002857D01*
X166957142Y-55145714D01*
X166885714Y-55217142D01*
X166742857Y-55288571D01*
X166314285Y-55288571D01*
X166171428Y-55217142D01*
X166100000Y-55145714D01*
D11*
X139700000Y-79255714D02*
X139938095Y-79493809D01*
X139700000Y-79731904D01*
X139461904Y-79493809D01*
X139700000Y-79255714D01*
X139700000Y-79731904D01*
D10*
X119774285Y-120542857D02*
X119274285Y-120542857D01*
X119274285Y-121328571D02*
X119274285Y-119828571D01*
X119988571Y-119828571D01*
X120774285Y-121328571D02*
X120631428Y-121257142D01*
X120560000Y-121114285D01*
X120560000Y-119828571D01*
X121560000Y-121328571D02*
X121417142Y-121257142D01*
X121345714Y-121185714D01*
X121274285Y-121042857D01*
X121274285Y-120614285D01*
X121345714Y-120471428D01*
X121417142Y-120400000D01*
X121560000Y-120328571D01*
X121774285Y-120328571D01*
X121917142Y-120400000D01*
X121988571Y-120471428D01*
X122060000Y-120614285D01*
X122060000Y-121042857D01*
X121988571Y-121185714D01*
X121917142Y-121257142D01*
X121774285Y-121328571D01*
X121560000Y-121328571D01*
X122702857Y-121328571D02*
X122702857Y-120328571D01*
X122702857Y-120614285D02*
X122774285Y-120471428D01*
X122845714Y-120400000D01*
X122988571Y-120328571D01*
X123131428Y-120328571D01*
X123631428Y-121328571D02*
X123631428Y-120328571D01*
X123631428Y-119828571D02*
X123560000Y-119900000D01*
X123631428Y-119971428D01*
X123702857Y-119900000D01*
X123631428Y-119828571D01*
X123631428Y-119971428D01*
X124274285Y-121257142D02*
X124417142Y-121328571D01*
X124702857Y-121328571D01*
X124845714Y-121257142D01*
X124917142Y-121114285D01*
X124917142Y-121042857D01*
X124845714Y-120900000D01*
X124702857Y-120828571D01*
X124488571Y-120828571D01*
X124345714Y-120757142D01*
X124274285Y-120614285D01*
X124274285Y-120542857D01*
X124345714Y-120400000D01*
X124488571Y-120328571D01*
X124702857Y-120328571D01*
X124845714Y-120400000D01*
X126560000Y-120328571D02*
X126917142Y-121328571D01*
X127274285Y-120328571D01*
X128917142Y-119757142D02*
X127631428Y-121685714D01*
X130060000Y-121328571D02*
X130060000Y-119828571D01*
X130060000Y-121257142D02*
X129917142Y-121328571D01*
X129631428Y-121328571D01*
X129488571Y-121257142D01*
X129417142Y-121185714D01*
X129345714Y-121042857D01*
X129345714Y-120614285D01*
X129417142Y-120471428D01*
X129488571Y-120400000D01*
X129631428Y-120328571D01*
X129917142Y-120328571D01*
X130060000Y-120400000D01*
X131917142Y-120542857D02*
X132417142Y-120542857D01*
X132631428Y-121328571D02*
X131917142Y-121328571D01*
X131917142Y-119828571D01*
X132631428Y-119828571D01*
X133274285Y-120328571D02*
X133274285Y-121328571D01*
X133274285Y-120471428D02*
X133345714Y-120400000D01*
X133488571Y-120328571D01*
X133702857Y-120328571D01*
X133845714Y-120400000D01*
X133917142Y-120542857D01*
X133917142Y-121328571D01*
X134417142Y-120328571D02*
X134988571Y-120328571D01*
X134631428Y-119828571D02*
X134631428Y-121114285D01*
X134702857Y-121257142D01*
X134845714Y-121328571D01*
X134988571Y-121328571D01*
X135560000Y-121257142D02*
X135560000Y-121328571D01*
X135488571Y-121471428D01*
X135417142Y-121542857D01*
X137274285Y-119971428D02*
X137345714Y-119900000D01*
X137488571Y-119828571D01*
X137845714Y-119828571D01*
X137988571Y-119900000D01*
X138060000Y-119971428D01*
X138131428Y-120114285D01*
X138131428Y-120257142D01*
X138060000Y-120471428D01*
X137202857Y-121328571D01*
X138131428Y-121328571D01*
X139060000Y-119828571D02*
X139202857Y-119828571D01*
X139345714Y-119900000D01*
X139417142Y-119971428D01*
X139488571Y-120114285D01*
X139560000Y-120400000D01*
X139560000Y-120757142D01*
X139488571Y-121042857D01*
X139417142Y-121185714D01*
X139345714Y-121257142D01*
X139202857Y-121328571D01*
X139060000Y-121328571D01*
X138917142Y-121257142D01*
X138845714Y-121185714D01*
X138774285Y-121042857D01*
X138702857Y-120757142D01*
X138702857Y-120400000D01*
X138774285Y-120114285D01*
X138845714Y-119971428D01*
X138917142Y-119900000D01*
X139060000Y-119828571D01*
X140988571Y-121328571D02*
X140131428Y-121328571D01*
X140560000Y-121328571D02*
X140560000Y-119828571D01*
X140417142Y-120042857D01*
X140274285Y-120185714D01*
X140131428Y-120257142D01*
X141702857Y-121328571D02*
X141988571Y-121328571D01*
X142131428Y-121257142D01*
X142202857Y-121185714D01*
X142345714Y-120971428D01*
X142417142Y-120685714D01*
X142417142Y-120114285D01*
X142345714Y-119971428D01*
X142274285Y-119900000D01*
X142131428Y-119828571D01*
X141845714Y-119828571D01*
X141702857Y-119900000D01*
X141631428Y-119971428D01*
X141560000Y-120114285D01*
X141560000Y-120471428D01*
X141631428Y-120614285D01*
X141702857Y-120685714D01*
X141845714Y-120757142D01*
X142131428Y-120757142D01*
X142274285Y-120685714D01*
X142345714Y-120614285D01*
X142417142Y-120471428D01*
X179748571Y-121271428D02*
X178248571Y-121271428D01*
X178248571Y-120914285D01*
X178320000Y-120700000D01*
X178462857Y-120557142D01*
X178605714Y-120485714D01*
X178891428Y-120414285D01*
X179105714Y-120414285D01*
X179391428Y-120485714D01*
X179534285Y-120557142D01*
X179677142Y-120700000D01*
X179748571Y-120914285D01*
X179748571Y-121271428D01*
X179748571Y-119771428D02*
X178248571Y-119771428D01*
X179748571Y-119057142D02*
X178248571Y-119057142D01*
X178248571Y-118485714D01*
X178320000Y-118342857D01*
X178391428Y-118271428D01*
X178534285Y-118200000D01*
X178748571Y-118200000D01*
X178891428Y-118271428D01*
X178962857Y-118342857D01*
X179034285Y-118485714D01*
X179034285Y-119057142D01*
X179177142Y-117557142D02*
X179177142Y-116414285D01*
X178391428Y-115771428D02*
X178320000Y-115700000D01*
X178248571Y-115557142D01*
X178248571Y-115200000D01*
X178320000Y-115057142D01*
X178391428Y-114985714D01*
X178534285Y-114914285D01*
X178677142Y-114914285D01*
X178891428Y-114985714D01*
X179748571Y-115842857D01*
X179748571Y-114914285D01*
X178891428Y-114057142D02*
X178820000Y-114200000D01*
X178748571Y-114271428D01*
X178605714Y-114342857D01*
X178534285Y-114342857D01*
X178391428Y-114271428D01*
X178320000Y-114200000D01*
X178248571Y-114057142D01*
X178248571Y-113771428D01*
X178320000Y-113628571D01*
X178391428Y-113557142D01*
X178534285Y-113485714D01*
X178605714Y-113485714D01*
X178748571Y-113557142D01*
X178820000Y-113628571D01*
X178891428Y-113771428D01*
X178891428Y-114057142D01*
X178962857Y-114200000D01*
X179034285Y-114271428D01*
X179177142Y-114342857D01*
X179462857Y-114342857D01*
X179605714Y-114271428D01*
X179677142Y-114200000D01*
X179748571Y-114057142D01*
X179748571Y-113771428D01*
X179677142Y-113628571D01*
X179605714Y-113557142D01*
X179462857Y-113485714D01*
X179177142Y-113485714D01*
X179034285Y-113557142D01*
X178962857Y-113628571D01*
X178891428Y-113771428D01*
X178248571Y-111842857D02*
X178248571Y-110842857D01*
X179748571Y-111842857D01*
X179748571Y-110842857D01*
X179748571Y-110271428D02*
X178248571Y-110271428D01*
X178962857Y-109057142D02*
X178962857Y-109557142D01*
X179748571Y-109557142D02*
X178248571Y-109557142D01*
X178248571Y-108842857D01*
X179748571Y-107128571D02*
X178248571Y-107128571D01*
X179677142Y-106485714D02*
X179748571Y-106271428D01*
X179748571Y-105914285D01*
X179677142Y-105771428D01*
X179605714Y-105700000D01*
X179462857Y-105628571D01*
X179320000Y-105628571D01*
X179177142Y-105700000D01*
X179105714Y-105771428D01*
X179034285Y-105914285D01*
X178962857Y-106200000D01*
X178891428Y-106342857D01*
X178820000Y-106414285D01*
X178677142Y-106485714D01*
X178534285Y-106485714D01*
X178391428Y-106414285D01*
X178320000Y-106342857D01*
X178248571Y-106200000D01*
X178248571Y-105842857D01*
X178320000Y-105628571D01*
X179748571Y-104985714D02*
X178248571Y-104985714D01*
X178248571Y-104414285D01*
X178320000Y-104271428D01*
X178391428Y-104200000D01*
X178534285Y-104128571D01*
X178748571Y-104128571D01*
X178891428Y-104200000D01*
X178962857Y-104271428D01*
X179034285Y-104414285D01*
X179034285Y-104985714D01*
X179320000Y-102414285D02*
X179320000Y-101700000D01*
X179748571Y-102557142D02*
X178248571Y-102057142D01*
X179748571Y-101557142D01*
X179748571Y-100414285D02*
X178248571Y-100414285D01*
X179677142Y-100414285D02*
X179748571Y-100557142D01*
X179748571Y-100842857D01*
X179677142Y-100985714D01*
X179605714Y-101057142D01*
X179462857Y-101128571D01*
X179034285Y-101128571D01*
X178891428Y-101057142D01*
X178820000Y-100985714D01*
X178748571Y-100842857D01*
X178748571Y-100557142D01*
X178820000Y-100414285D01*
X179748571Y-99057142D02*
X178962857Y-99057142D01*
X178820000Y-99128571D01*
X178748571Y-99271428D01*
X178748571Y-99557142D01*
X178820000Y-99700000D01*
X179677142Y-99057142D02*
X179748571Y-99200000D01*
X179748571Y-99557142D01*
X179677142Y-99700000D01*
X179534285Y-99771428D01*
X179391428Y-99771428D01*
X179248571Y-99700000D01*
X179177142Y-99557142D01*
X179177142Y-99200000D01*
X179105714Y-99057142D01*
X178748571Y-98342857D02*
X180248571Y-98342857D01*
X178820000Y-98342857D02*
X178748571Y-98200000D01*
X178748571Y-97914285D01*
X178820000Y-97771428D01*
X178891428Y-97700000D01*
X179034285Y-97628571D01*
X179462857Y-97628571D01*
X179605714Y-97700000D01*
X179677142Y-97771428D01*
X179748571Y-97914285D01*
X179748571Y-98200000D01*
X179677142Y-98342857D01*
X178748571Y-97200000D02*
X178748571Y-96628571D01*
X178248571Y-96985714D02*
X179534285Y-96985714D01*
X179677142Y-96914285D01*
X179748571Y-96771428D01*
X179748571Y-96628571D01*
X179677142Y-95557142D02*
X179748571Y-95700000D01*
X179748571Y-95985714D01*
X179677142Y-96128571D01*
X179534285Y-96200000D01*
X178962857Y-96200000D01*
X178820000Y-96128571D01*
X178748571Y-95985714D01*
X178748571Y-95700000D01*
X178820000Y-95557142D01*
X178962857Y-95485714D01*
X179105714Y-95485714D01*
X179248571Y-96200000D01*
X179748571Y-94842857D02*
X178748571Y-94842857D01*
X179034285Y-94842857D02*
X178891428Y-94771428D01*
X178820000Y-94700000D01*
X178748571Y-94557142D01*
X178748571Y-94414285D01*
D12*
G04 #@! TO.C,J5*
X156150000Y-77918000D02*
X157480000Y-77918000D01*
X156150000Y-79248000D02*
X156150000Y-77918000D01*
X156150000Y-80518000D02*
X158810000Y-80518000D01*
X158810000Y-80518000D02*
X158810000Y-113598000D01*
X156150000Y-80518000D02*
X156150000Y-113598000D01*
X156150000Y-113598000D02*
X158810000Y-113598000D01*
G04 #@! TO.C,R1*
X132040000Y-84490000D02*
X132370000Y-84490000D01*
X132040000Y-78070000D02*
X132040000Y-84490000D01*
X132370000Y-78070000D02*
X132040000Y-78070000D01*
X134660000Y-84490000D02*
X134330000Y-84490000D01*
X134660000Y-78070000D02*
X134660000Y-84490000D01*
X134330000Y-78070000D02*
X134660000Y-78070000D01*
G04 #@! TO.C,C1*
X132040000Y-88900000D02*
X134660000Y-88900000D01*
X132040000Y-94020000D02*
X134660000Y-94020000D01*
X134660000Y-94020000D02*
X134660000Y-88900000D01*
X132040000Y-94020000D02*
X132040000Y-88900000D01*
G04 #@! TO.C,C2*
X134660000Y-102830000D02*
X134660000Y-107950000D01*
X132040000Y-102830000D02*
X132040000Y-107950000D01*
X134660000Y-102830000D02*
X132040000Y-102830000D01*
X134660000Y-107950000D02*
X132040000Y-107950000D01*
G04 #@! TO.C,C3*
X132040000Y-95250000D02*
X134660000Y-95250000D01*
X132040000Y-100370000D02*
X134660000Y-100370000D01*
X134660000Y-100370000D02*
X134660000Y-95250000D01*
X132040000Y-100370000D02*
X132040000Y-95250000D01*
G04 #@! TO.C,D1*
X157460000Y-55605000D02*
X157460000Y-58695000D01*
X162520000Y-57150000D02*
G75*
G03X162520000Y-57150000I-2500000J0D01*
G01*
X163010000Y-57149538D02*
G75*
G02X157460000Y-58694830I-2990000J-462D01*
G01*
X163010000Y-57150462D02*
G75*
G03X157460000Y-55605170I-2990000J462D01*
G01*
G04 #@! TO.C,J1*
X170120000Y-96460000D02*
X171450000Y-96460000D01*
X170120000Y-97790000D02*
X170120000Y-96460000D01*
X172720000Y-96460000D02*
X175320000Y-96460000D01*
X172720000Y-99060000D02*
X172720000Y-96460000D01*
X170120000Y-99060000D02*
X172720000Y-99060000D01*
X175320000Y-96460000D02*
X175320000Y-109280000D01*
X170120000Y-99060000D02*
X170120000Y-109280000D01*
X170120000Y-109280000D02*
X175320000Y-109280000D01*
G04 #@! TO.C,J2*
X177320000Y-66940000D02*
X174720000Y-66940000D01*
X177320000Y-52240000D02*
X177320000Y-66940000D01*
X168120000Y-66940000D02*
X168120000Y-65040000D01*
X170820000Y-66940000D02*
X168120000Y-66940000D01*
X168120000Y-52240000D02*
X177320000Y-52240000D01*
X168120000Y-61040000D02*
X168120000Y-52240000D01*
G04 #@! TO.C,J3*
X141291000Y-113598000D02*
X143951000Y-113598000D01*
X141291000Y-80518000D02*
X141291000Y-113598000D01*
X143951000Y-80518000D02*
X143951000Y-113598000D01*
X141291000Y-80518000D02*
X143951000Y-80518000D01*
X141291000Y-79248000D02*
X141291000Y-77918000D01*
X141291000Y-77918000D02*
X142621000Y-77918000D01*
G04 #@! TO.C,J4*
X123130000Y-105470000D02*
X125790000Y-105470000D01*
X123130000Y-100330000D02*
X123130000Y-105470000D01*
X125790000Y-100330000D02*
X125790000Y-105470000D01*
X123130000Y-100330000D02*
X125790000Y-100330000D01*
X123130000Y-99060000D02*
X123130000Y-97730000D01*
X123130000Y-97730000D02*
X124460000Y-97730000D01*
G04 #@! TO.C,R2*
X146650000Y-62520000D02*
X146650000Y-62190000D01*
X146650000Y-62190000D02*
X153070000Y-62190000D01*
X153070000Y-62190000D02*
X153070000Y-62520000D01*
X146650000Y-64480000D02*
X146650000Y-64810000D01*
X146650000Y-64810000D02*
X153070000Y-64810000D01*
X153070000Y-64810000D02*
X153070000Y-64480000D01*
G04 #@! TO.C,R3*
X163230000Y-64810000D02*
X163230000Y-64480000D01*
X156810000Y-64810000D02*
X163230000Y-64810000D01*
X156810000Y-64480000D02*
X156810000Y-64810000D01*
X163230000Y-62190000D02*
X163230000Y-62520000D01*
X156810000Y-62190000D02*
X163230000Y-62190000D01*
X156810000Y-62520000D02*
X156810000Y-62190000D01*
G04 #@! TO.C,Q1*
X150561522Y-58988478D02*
G75*
G03X155000000Y-57150000I1838478J1838478D01*
G01*
X150561522Y-55311522D02*
G75*
G02X155000000Y-57150000I1838478J-1838478D01*
G01*
X150550000Y-55350000D02*
X150550000Y-58950000D01*
G04 #@! TO.C,J5*
D13*
X157146666Y-76370380D02*
X157146666Y-77084666D01*
X157099047Y-77227523D01*
X157003809Y-77322761D01*
X156860952Y-77370380D01*
X156765714Y-77370380D01*
X158099047Y-76370380D02*
X157622857Y-76370380D01*
X157575238Y-76846571D01*
X157622857Y-76798952D01*
X157718095Y-76751333D01*
X157956190Y-76751333D01*
X158051428Y-76798952D01*
X158099047Y-76846571D01*
X158146666Y-76941809D01*
X158146666Y-77179904D01*
X158099047Y-77275142D01*
X158051428Y-77322761D01*
X157956190Y-77370380D01*
X157718095Y-77370380D01*
X157622857Y-77322761D01*
X157575238Y-77275142D01*
G04 #@! TO.C,R1*
X131262380Y-81446666D02*
X130786190Y-81780000D01*
X131262380Y-82018095D02*
X130262380Y-82018095D01*
X130262380Y-81637142D01*
X130310000Y-81541904D01*
X130357619Y-81494285D01*
X130452857Y-81446666D01*
X130595714Y-81446666D01*
X130690952Y-81494285D01*
X130738571Y-81541904D01*
X130786190Y-81637142D01*
X130786190Y-82018095D01*
X131262380Y-80494285D02*
X131262380Y-81065714D01*
X131262380Y-80780000D02*
X130262380Y-80780000D01*
X130405238Y-80875238D01*
X130500476Y-80970476D01*
X130548095Y-81065714D01*
G04 #@! TO.C,C1*
X131147142Y-91626666D02*
X131194761Y-91674285D01*
X131242380Y-91817142D01*
X131242380Y-91912380D01*
X131194761Y-92055238D01*
X131099523Y-92150476D01*
X131004285Y-92198095D01*
X130813809Y-92245714D01*
X130670952Y-92245714D01*
X130480476Y-92198095D01*
X130385238Y-92150476D01*
X130290000Y-92055238D01*
X130242380Y-91912380D01*
X130242380Y-91817142D01*
X130290000Y-91674285D01*
X130337619Y-91626666D01*
X131242380Y-90674285D02*
X131242380Y-91245714D01*
X131242380Y-90960000D02*
X130242380Y-90960000D01*
X130385238Y-91055238D01*
X130480476Y-91150476D01*
X130528095Y-91245714D01*
G04 #@! TO.C,C2*
X131167142Y-105556666D02*
X131214761Y-105604285D01*
X131262380Y-105747142D01*
X131262380Y-105842380D01*
X131214761Y-105985238D01*
X131119523Y-106080476D01*
X131024285Y-106128095D01*
X130833809Y-106175714D01*
X130690952Y-106175714D01*
X130500476Y-106128095D01*
X130405238Y-106080476D01*
X130310000Y-105985238D01*
X130262380Y-105842380D01*
X130262380Y-105747142D01*
X130310000Y-105604285D01*
X130357619Y-105556666D01*
X130357619Y-105175714D02*
X130310000Y-105128095D01*
X130262380Y-105032857D01*
X130262380Y-104794761D01*
X130310000Y-104699523D01*
X130357619Y-104651904D01*
X130452857Y-104604285D01*
X130548095Y-104604285D01*
X130690952Y-104651904D01*
X131262380Y-105223333D01*
X131262380Y-104604285D01*
G04 #@! TO.C,C3*
X131147142Y-97976666D02*
X131194761Y-98024285D01*
X131242380Y-98167142D01*
X131242380Y-98262380D01*
X131194761Y-98405238D01*
X131099523Y-98500476D01*
X131004285Y-98548095D01*
X130813809Y-98595714D01*
X130670952Y-98595714D01*
X130480476Y-98548095D01*
X130385238Y-98500476D01*
X130290000Y-98405238D01*
X130242380Y-98262380D01*
X130242380Y-98167142D01*
X130290000Y-98024285D01*
X130337619Y-97976666D01*
X130242380Y-97643333D02*
X130242380Y-97024285D01*
X130623333Y-97357619D01*
X130623333Y-97214761D01*
X130670952Y-97119523D01*
X130718571Y-97071904D01*
X130813809Y-97024285D01*
X131051904Y-97024285D01*
X131147142Y-97071904D01*
X131194761Y-97119523D01*
X131242380Y-97214761D01*
X131242380Y-97500476D01*
X131194761Y-97595714D01*
X131147142Y-97643333D01*
G04 #@! TO.C,D1*
X159281904Y-53642380D02*
X159281904Y-52642380D01*
X159520000Y-52642380D01*
X159662857Y-52690000D01*
X159758095Y-52785238D01*
X159805714Y-52880476D01*
X159853333Y-53070952D01*
X159853333Y-53213809D01*
X159805714Y-53404285D01*
X159758095Y-53499523D01*
X159662857Y-53594761D01*
X159520000Y-53642380D01*
X159281904Y-53642380D01*
X160805714Y-53642380D02*
X160234285Y-53642380D01*
X160520000Y-53642380D02*
X160520000Y-52642380D01*
X160424761Y-52785238D01*
X160329523Y-52880476D01*
X160234285Y-52928095D01*
G04 #@! TO.C,J1*
X172386666Y-94912380D02*
X172386666Y-95626666D01*
X172339047Y-95769523D01*
X172243809Y-95864761D01*
X172100952Y-95912380D01*
X172005714Y-95912380D01*
X173386666Y-95912380D02*
X172815238Y-95912380D01*
X173100952Y-95912380D02*
X173100952Y-94912380D01*
X173005714Y-95055238D01*
X172910476Y-95150476D01*
X172815238Y-95198095D01*
G04 #@! TO.C,J2*
X166422380Y-57923333D02*
X167136666Y-57923333D01*
X167279523Y-57970952D01*
X167374761Y-58066190D01*
X167422380Y-58209047D01*
X167422380Y-58304285D01*
X166517619Y-57494761D02*
X166470000Y-57447142D01*
X166422380Y-57351904D01*
X166422380Y-57113809D01*
X166470000Y-57018571D01*
X166517619Y-56970952D01*
X166612857Y-56923333D01*
X166708095Y-56923333D01*
X166850952Y-56970952D01*
X167422380Y-57542380D01*
X167422380Y-56923333D01*
G04 #@! TO.C,J3*
X142287666Y-76370380D02*
X142287666Y-77084666D01*
X142240047Y-77227523D01*
X142144809Y-77322761D01*
X142001952Y-77370380D01*
X141906714Y-77370380D01*
X142668619Y-76370380D02*
X143287666Y-76370380D01*
X142954333Y-76751333D01*
X143097190Y-76751333D01*
X143192428Y-76798952D01*
X143240047Y-76846571D01*
X143287666Y-76941809D01*
X143287666Y-77179904D01*
X143240047Y-77275142D01*
X143192428Y-77322761D01*
X143097190Y-77370380D01*
X142811476Y-77370380D01*
X142716238Y-77322761D01*
X142668619Y-77275142D01*
G04 #@! TO.C,J4*
X124126666Y-96182380D02*
X124126666Y-96896666D01*
X124079047Y-97039523D01*
X123983809Y-97134761D01*
X123840952Y-97182380D01*
X123745714Y-97182380D01*
X125031428Y-96515714D02*
X125031428Y-97182380D01*
X124793333Y-96134761D02*
X124555238Y-96849047D01*
X125174285Y-96849047D01*
G04 #@! TO.C,R2*
X149693333Y-61642380D02*
X149360000Y-61166190D01*
X149121904Y-61642380D02*
X149121904Y-60642380D01*
X149502857Y-60642380D01*
X149598095Y-60690000D01*
X149645714Y-60737619D01*
X149693333Y-60832857D01*
X149693333Y-60975714D01*
X149645714Y-61070952D01*
X149598095Y-61118571D01*
X149502857Y-61166190D01*
X149121904Y-61166190D01*
X150074285Y-60737619D02*
X150121904Y-60690000D01*
X150217142Y-60642380D01*
X150455238Y-60642380D01*
X150550476Y-60690000D01*
X150598095Y-60737619D01*
X150645714Y-60832857D01*
X150645714Y-60928095D01*
X150598095Y-61070952D01*
X150026666Y-61642380D01*
X150645714Y-61642380D01*
G04 #@! TO.C,R3*
X159853333Y-61642380D02*
X159520000Y-61166190D01*
X159281904Y-61642380D02*
X159281904Y-60642380D01*
X159662857Y-60642380D01*
X159758095Y-60690000D01*
X159805714Y-60737619D01*
X159853333Y-60832857D01*
X159853333Y-60975714D01*
X159805714Y-61070952D01*
X159758095Y-61118571D01*
X159662857Y-61166190D01*
X159281904Y-61166190D01*
X160186666Y-60642380D02*
X160805714Y-60642380D01*
X160472380Y-61023333D01*
X160615238Y-61023333D01*
X160710476Y-61070952D01*
X160758095Y-61118571D01*
X160805714Y-61213809D01*
X160805714Y-61451904D01*
X160758095Y-61547142D01*
X160710476Y-61594761D01*
X160615238Y-61642380D01*
X160329523Y-61642380D01*
X160234285Y-61594761D01*
X160186666Y-61547142D01*
G04 #@! TO.C,Q1*
X152304761Y-53887619D02*
X152209523Y-53840000D01*
X152114285Y-53744761D01*
X151971428Y-53601904D01*
X151876190Y-53554285D01*
X151780952Y-53554285D01*
X151828571Y-53792380D02*
X151733333Y-53744761D01*
X151638095Y-53649523D01*
X151590476Y-53459047D01*
X151590476Y-53125714D01*
X151638095Y-52935238D01*
X151733333Y-52840000D01*
X151828571Y-52792380D01*
X152019047Y-52792380D01*
X152114285Y-52840000D01*
X152209523Y-52935238D01*
X152257142Y-53125714D01*
X152257142Y-53459047D01*
X152209523Y-53649523D01*
X152114285Y-53744761D01*
X152019047Y-53792380D01*
X151828571Y-53792380D01*
X153209523Y-53792380D02*
X152638095Y-53792380D01*
X152923809Y-53792380D02*
X152923809Y-52792380D01*
X152828571Y-52935238D01*
X152733333Y-53030476D01*
X152638095Y-53078095D01*
G04 #@! TD*
M02*
