M48
; DRILL file {KiCad (5.1.0)-1} date 25-3-2019 17:59:48
; FORMAT={-:-/ absolute / inch / decimal}
; #@! TF.CreationDate,2019-03-25T17:59:48+01:00
; #@! TF.GenerationSoftware,Kicad,Pcbnew,(5.1.0)-1
; #@! TF.FileFunction,Plated,1,2,PTH
FMAT,2
INCH
T1C0.0157
T2C0.0354
T3C0.0394
T4C0.0787
%
G90
G05
T1
X3.075Y-1.375
X3.075Y-2.025
X3.075Y-3.05
X3.075Y-1.525
X3.075Y-1.7
X3.075Y-2.375
X3.075Y-2.7
X3.075Y-3.725
X3.075Y-4.05
X3.075Y-4.375
X3.076Y-3.376
X3.225Y-2.35
X3.45Y-1.525
X3.525Y-2.725
X3.575Y-2.675
X3.625Y-1.375
X3.775Y-2.475
X3.8Y-1.7
X3.85Y-1.525
X3.85Y-2.7285
X3.9215Y-2.825
X4.0Y-2.825
X4.0Y-4.775
X4.075Y-2.375
X4.25Y-1.525
X4.425Y-2.25
T2
X3.749Y-1.372
X3.849Y-1.372
T3
X3.425Y-5.325
X4.275Y-5.325
T4
X3.7878Y-3.689
T0
M30
