G04 #@! TF.GenerationSoftware,KiCad,Pcbnew,(5.1.0)-1*
G04 #@! TF.CreationDate,2019-03-25T17:59:43+01:00*
G04 #@! TF.ProjectId,jvc_remote,6a76635f-7265-46d6-9f74-652e6b696361,rev?*
G04 #@! TF.SameCoordinates,Original*
G04 #@! TF.FileFunction,Legend,Top*
G04 #@! TF.FilePolarity,Positive*
%FSLAX46Y46*%
G04 Gerber Fmt 4.6, Leading zero omitted, Abs format (unit mm)*
G04 Created by KiCad (PCBNEW (5.1.0)-1) date 2019-03-25 17:59:43*
%MOMM*%
%LPD*%
G04 APERTURE LIST*
%ADD10C,0.250000*%
%ADD11C,0.150000*%
%ADD12C,0.050000*%
%ADD13C,0.120000*%
%ADD14C,0.100000*%
%ADD15C,0.152400*%
%ADD16C,0.254000*%
G04 APERTURE END LIST*
D10*
X108238047Y-138319428D02*
X108999952Y-138319428D01*
X86578047Y-138319428D02*
X87339952Y-138319428D01*
X86959000Y-138700380D02*
X86959000Y-137938476D01*
D11*
X77516380Y-132411476D02*
X78230666Y-132411476D01*
X78373523Y-132459095D01*
X78468761Y-132554333D01*
X78516380Y-132697190D01*
X78516380Y-132792428D01*
X77516380Y-132078142D02*
X78516380Y-131744809D01*
X77516380Y-131411476D01*
X78421142Y-130506714D02*
X78468761Y-130554333D01*
X78516380Y-130697190D01*
X78516380Y-130792428D01*
X78468761Y-130935285D01*
X78373523Y-131030523D01*
X78278285Y-131078142D01*
X78087809Y-131125761D01*
X77944952Y-131125761D01*
X77754476Y-131078142D01*
X77659238Y-131030523D01*
X77564000Y-130935285D01*
X77516380Y-130792428D01*
X77516380Y-130697190D01*
X77564000Y-130554333D01*
X77611619Y-130506714D01*
X78516380Y-129316238D02*
X77849714Y-129316238D01*
X78040190Y-129316238D02*
X77944952Y-129268619D01*
X77897333Y-129221000D01*
X77849714Y-129125761D01*
X77849714Y-129030523D01*
X78468761Y-128316238D02*
X78516380Y-128411476D01*
X78516380Y-128601952D01*
X78468761Y-128697190D01*
X78373523Y-128744809D01*
X77992571Y-128744809D01*
X77897333Y-128697190D01*
X77849714Y-128601952D01*
X77849714Y-128411476D01*
X77897333Y-128316238D01*
X77992571Y-128268619D01*
X78087809Y-128268619D01*
X78183047Y-128744809D01*
X78516380Y-127840047D02*
X77849714Y-127840047D01*
X77944952Y-127840047D02*
X77897333Y-127792428D01*
X77849714Y-127697190D01*
X77849714Y-127554333D01*
X77897333Y-127459095D01*
X77992571Y-127411476D01*
X78516380Y-127411476D01*
X77992571Y-127411476D02*
X77897333Y-127363857D01*
X77849714Y-127268619D01*
X77849714Y-127125761D01*
X77897333Y-127030523D01*
X77992571Y-126982904D01*
X78516380Y-126982904D01*
X78516380Y-126363857D02*
X78468761Y-126459095D01*
X78421142Y-126506714D01*
X78325904Y-126554333D01*
X78040190Y-126554333D01*
X77944952Y-126506714D01*
X77897333Y-126459095D01*
X77849714Y-126363857D01*
X77849714Y-126221000D01*
X77897333Y-126125761D01*
X77944952Y-126078142D01*
X78040190Y-126030523D01*
X78325904Y-126030523D01*
X78421142Y-126078142D01*
X78468761Y-126125761D01*
X78516380Y-126221000D01*
X78516380Y-126363857D01*
X77849714Y-125744809D02*
X77849714Y-125363857D01*
X77516380Y-125601952D02*
X78373523Y-125601952D01*
X78468761Y-125554333D01*
X78516380Y-125459095D01*
X78516380Y-125363857D01*
X78468761Y-124649571D02*
X78516380Y-124744809D01*
X78516380Y-124935285D01*
X78468761Y-125030523D01*
X78373523Y-125078142D01*
X77992571Y-125078142D01*
X77897333Y-125030523D01*
X77849714Y-124935285D01*
X77849714Y-124744809D01*
X77897333Y-124649571D01*
X77992571Y-124601952D01*
X78087809Y-124601952D01*
X78183047Y-125078142D01*
X77849714Y-123506714D02*
X78516380Y-123268619D01*
X77849714Y-123030523D01*
X78516380Y-122125761D02*
X78516380Y-122697190D01*
X78516380Y-122411476D02*
X77516380Y-122411476D01*
X77659238Y-122506714D01*
X77754476Y-122601952D01*
X77802095Y-122697190D01*
X78421142Y-121697190D02*
X78468761Y-121649571D01*
X78516380Y-121697190D01*
X78468761Y-121744809D01*
X78421142Y-121697190D01*
X78516380Y-121697190D01*
X77516380Y-121030523D02*
X77516380Y-120935285D01*
X77564000Y-120840047D01*
X77611619Y-120792428D01*
X77706857Y-120744809D01*
X77897333Y-120697190D01*
X78135428Y-120697190D01*
X78325904Y-120744809D01*
X78421142Y-120792428D01*
X78468761Y-120840047D01*
X78516380Y-120935285D01*
X78516380Y-121030523D01*
X78468761Y-121125761D01*
X78421142Y-121173380D01*
X78325904Y-121221000D01*
X78135428Y-121268619D01*
X77897333Y-121268619D01*
X77706857Y-121221000D01*
X77611619Y-121173380D01*
X77564000Y-121125761D01*
X77516380Y-121030523D01*
X113454571Y-134274047D02*
X113454571Y-134607380D01*
X113978380Y-134607380D02*
X112978380Y-134607380D01*
X112978380Y-134131190D01*
X113978380Y-133607380D02*
X113930761Y-133702619D01*
X113835523Y-133750238D01*
X112978380Y-133750238D01*
X113978380Y-133083571D02*
X113930761Y-133178809D01*
X113883142Y-133226428D01*
X113787904Y-133274047D01*
X113502190Y-133274047D01*
X113406952Y-133226428D01*
X113359333Y-133178809D01*
X113311714Y-133083571D01*
X113311714Y-132940714D01*
X113359333Y-132845476D01*
X113406952Y-132797857D01*
X113502190Y-132750238D01*
X113787904Y-132750238D01*
X113883142Y-132797857D01*
X113930761Y-132845476D01*
X113978380Y-132940714D01*
X113978380Y-133083571D01*
X113978380Y-132321666D02*
X113311714Y-132321666D01*
X113502190Y-132321666D02*
X113406952Y-132274047D01*
X113359333Y-132226428D01*
X113311714Y-132131190D01*
X113311714Y-132035952D01*
X113978380Y-131702619D02*
X113311714Y-131702619D01*
X112978380Y-131702619D02*
X113026000Y-131750238D01*
X113073619Y-131702619D01*
X113026000Y-131655000D01*
X112978380Y-131702619D01*
X113073619Y-131702619D01*
X113930761Y-131274047D02*
X113978380Y-131178809D01*
X113978380Y-130988333D01*
X113930761Y-130893095D01*
X113835523Y-130845476D01*
X113787904Y-130845476D01*
X113692666Y-130893095D01*
X113645047Y-130988333D01*
X113645047Y-131131190D01*
X113597428Y-131226428D01*
X113502190Y-131274047D01*
X113454571Y-131274047D01*
X113359333Y-131226428D01*
X113311714Y-131131190D01*
X113311714Y-130988333D01*
X113359333Y-130893095D01*
X113311714Y-129750238D02*
X113978380Y-129512142D01*
X113311714Y-129274047D01*
X112930761Y-128178809D02*
X114216476Y-129035952D01*
X113978380Y-127416904D02*
X112978380Y-127416904D01*
X113930761Y-127416904D02*
X113978380Y-127512142D01*
X113978380Y-127702619D01*
X113930761Y-127797857D01*
X113883142Y-127845476D01*
X113787904Y-127893095D01*
X113502190Y-127893095D01*
X113406952Y-127845476D01*
X113359333Y-127797857D01*
X113311714Y-127702619D01*
X113311714Y-127512142D01*
X113359333Y-127416904D01*
X113454571Y-126178809D02*
X113454571Y-125845476D01*
X113978380Y-125702619D02*
X113978380Y-126178809D01*
X112978380Y-126178809D01*
X112978380Y-125702619D01*
X113311714Y-125274047D02*
X113978380Y-125274047D01*
X113406952Y-125274047D02*
X113359333Y-125226428D01*
X113311714Y-125131190D01*
X113311714Y-124988333D01*
X113359333Y-124893095D01*
X113454571Y-124845476D01*
X113978380Y-124845476D01*
X113311714Y-124512142D02*
X113311714Y-124131190D01*
X112978380Y-124369285D02*
X113835523Y-124369285D01*
X113930761Y-124321666D01*
X113978380Y-124226428D01*
X113978380Y-124131190D01*
X113073619Y-123083571D02*
X113026000Y-123035952D01*
X112978380Y-122940714D01*
X112978380Y-122702619D01*
X113026000Y-122607380D01*
X113073619Y-122559761D01*
X113168857Y-122512142D01*
X113264095Y-122512142D01*
X113406952Y-122559761D01*
X113978380Y-123131190D01*
X113978380Y-122512142D01*
X112978380Y-121893095D02*
X112978380Y-121797857D01*
X113026000Y-121702619D01*
X113073619Y-121655000D01*
X113168857Y-121607380D01*
X113359333Y-121559761D01*
X113597428Y-121559761D01*
X113787904Y-121607380D01*
X113883142Y-121655000D01*
X113930761Y-121702619D01*
X113978380Y-121797857D01*
X113978380Y-121893095D01*
X113930761Y-121988333D01*
X113883142Y-122035952D01*
X113787904Y-122083571D01*
X113597428Y-122131190D01*
X113359333Y-122131190D01*
X113168857Y-122083571D01*
X113073619Y-122035952D01*
X113026000Y-121988333D01*
X112978380Y-121893095D01*
X113978380Y-120607380D02*
X113978380Y-121178809D01*
X113978380Y-120893095D02*
X112978380Y-120893095D01*
X113121238Y-120988333D01*
X113216476Y-121083571D01*
X113264095Y-121178809D01*
X113978380Y-120131190D02*
X113978380Y-119940714D01*
X113930761Y-119845476D01*
X113883142Y-119797857D01*
X113740285Y-119702619D01*
X113549809Y-119655000D01*
X113168857Y-119655000D01*
X113073619Y-119702619D01*
X113026000Y-119750238D01*
X112978380Y-119845476D01*
X112978380Y-120035952D01*
X113026000Y-120131190D01*
X113073619Y-120178809D01*
X113168857Y-120226428D01*
X113406952Y-120226428D01*
X113502190Y-120178809D01*
X113549809Y-120131190D01*
X113597428Y-120035952D01*
X113597428Y-119845476D01*
X113549809Y-119750238D01*
X113502190Y-119702619D01*
X113406952Y-119655000D01*
D12*
X76200000Y-139700000D02*
X76200000Y-33655000D01*
X116205000Y-139700000D02*
X76200000Y-139700000D01*
X116205000Y-33655000D02*
X116205000Y-139700000D01*
X76200000Y-33655000D02*
X116205000Y-33655000D01*
D13*
X98496000Y-93700000D02*
G75*
G03X98496000Y-93700000I-2286000J0D01*
G01*
X109751200Y-111981000D02*
X112651200Y-111981000D01*
X109301200Y-112431000D02*
X109751200Y-111981000D01*
X108501200Y-115681000D02*
X108501200Y-113681000D01*
X109751200Y-117381000D02*
X109301200Y-116931000D01*
X112651200Y-117381000D02*
X109751200Y-117381000D01*
X113101200Y-116931000D02*
X112651200Y-117381000D01*
X113901200Y-113681000D02*
X113901200Y-115681000D01*
X112651200Y-111981000D02*
X113101200Y-112431000D01*
X99743600Y-111981000D02*
X102643600Y-111981000D01*
X99293600Y-112431000D02*
X99743600Y-111981000D01*
X98493600Y-115681000D02*
X98493600Y-113681000D01*
X99743600Y-117381000D02*
X99293600Y-116931000D01*
X102643600Y-117381000D02*
X99743600Y-117381000D01*
X103093600Y-116931000D02*
X102643600Y-117381000D01*
X103893600Y-113681000D02*
X103893600Y-115681000D01*
X102643600Y-111981000D02*
X103093600Y-112431000D01*
X79753800Y-111981000D02*
X82653800Y-111981000D01*
X79303800Y-112431000D02*
X79753800Y-111981000D01*
X78503800Y-115681000D02*
X78503800Y-113681000D01*
X79753800Y-117381000D02*
X79303800Y-116931000D01*
X82653800Y-117381000D02*
X79753800Y-117381000D01*
X83103800Y-116931000D02*
X82653800Y-117381000D01*
X83903800Y-113681000D02*
X83903800Y-115681000D01*
X82653800Y-111981000D02*
X83103800Y-112431000D01*
X109751200Y-103802200D02*
X112651200Y-103802200D01*
X109301200Y-104252200D02*
X109751200Y-103802200D01*
X108501200Y-107502200D02*
X108501200Y-105502200D01*
X109751200Y-109202200D02*
X109301200Y-108752200D01*
X112651200Y-109202200D02*
X109751200Y-109202200D01*
X113101200Y-108752200D02*
X112651200Y-109202200D01*
X113901200Y-105502200D02*
X113901200Y-107502200D01*
X112651200Y-103802200D02*
X113101200Y-104252200D01*
X99743600Y-103802200D02*
X102643600Y-103802200D01*
X99293600Y-104252200D02*
X99743600Y-103802200D01*
X98493600Y-107502200D02*
X98493600Y-105502200D01*
X99743600Y-109202200D02*
X99293600Y-108752200D01*
X102643600Y-109202200D02*
X99743600Y-109202200D01*
X103093600Y-108752200D02*
X102643600Y-109202200D01*
X103893600Y-105502200D02*
X103893600Y-107502200D01*
X102643600Y-103802200D02*
X103093600Y-104252200D01*
X89736000Y-103802200D02*
X92636000Y-103802200D01*
X89286000Y-104252200D02*
X89736000Y-103802200D01*
X88486000Y-107502200D02*
X88486000Y-105502200D01*
X89736000Y-109202200D02*
X89286000Y-108752200D01*
X92636000Y-109202200D02*
X89736000Y-109202200D01*
X93086000Y-108752200D02*
X92636000Y-109202200D01*
X93886000Y-105502200D02*
X93886000Y-107502200D01*
X92636000Y-103802200D02*
X93086000Y-104252200D01*
X79753800Y-103802200D02*
X82653800Y-103802200D01*
X79303800Y-104252200D02*
X79753800Y-103802200D01*
X78503800Y-107502200D02*
X78503800Y-105502200D01*
X79753800Y-109202200D02*
X79303800Y-108752200D01*
X82653800Y-109202200D02*
X79753800Y-109202200D01*
X83103800Y-108752200D02*
X82653800Y-109202200D01*
X83903800Y-105502200D02*
X83903800Y-107502200D01*
X82653800Y-103802200D02*
X83103800Y-104252200D01*
X109751200Y-95242400D02*
X112651200Y-95242400D01*
X109301200Y-95692400D02*
X109751200Y-95242400D01*
X108501200Y-98942400D02*
X108501200Y-96942400D01*
X109751200Y-100642400D02*
X109301200Y-100192400D01*
X112651200Y-100642400D02*
X109751200Y-100642400D01*
X113101200Y-100192400D02*
X112651200Y-100642400D01*
X113901200Y-96942400D02*
X113901200Y-98942400D01*
X112651200Y-95242400D02*
X113101200Y-95692400D01*
X99743600Y-95242400D02*
X102643600Y-95242400D01*
X99293600Y-95692400D02*
X99743600Y-95242400D01*
X98493600Y-98942400D02*
X98493600Y-96942400D01*
X99743600Y-100642400D02*
X99293600Y-100192400D01*
X102643600Y-100642400D02*
X99743600Y-100642400D01*
X103093600Y-100192400D02*
X102643600Y-100642400D01*
X103893600Y-96942400D02*
X103893600Y-98942400D01*
X102643600Y-95242400D02*
X103093600Y-95692400D01*
X89736000Y-95242400D02*
X92636000Y-95242400D01*
X89286000Y-95692400D02*
X89736000Y-95242400D01*
X88486000Y-98942400D02*
X88486000Y-96942400D01*
X89736000Y-100642400D02*
X89286000Y-100192400D01*
X92636000Y-100642400D02*
X89736000Y-100642400D01*
X93086000Y-100192400D02*
X92636000Y-100642400D01*
X93886000Y-96942400D02*
X93886000Y-98942400D01*
X92636000Y-95242400D02*
X93086000Y-95692400D01*
X79753800Y-95242400D02*
X82653800Y-95242400D01*
X79303800Y-95692400D02*
X79753800Y-95242400D01*
X78503800Y-98942400D02*
X78503800Y-96942400D01*
X79753800Y-100642400D02*
X79303800Y-100192400D01*
X82653800Y-100642400D02*
X79753800Y-100642400D01*
X83103800Y-100192400D02*
X82653800Y-100642400D01*
X83903800Y-96942400D02*
X83903800Y-98942400D01*
X82653800Y-95242400D02*
X83103800Y-95692400D01*
X109751200Y-86758800D02*
X112651200Y-86758800D01*
X109301200Y-87208800D02*
X109751200Y-86758800D01*
X108501200Y-90458800D02*
X108501200Y-88458800D01*
X109751200Y-92158800D02*
X109301200Y-91708800D01*
X112651200Y-92158800D02*
X109751200Y-92158800D01*
X113101200Y-91708800D02*
X112651200Y-92158800D01*
X113901200Y-88458800D02*
X113901200Y-90458800D01*
X112651200Y-86758800D02*
X113101200Y-87208800D01*
X99743600Y-86733400D02*
X102643600Y-86733400D01*
X99293600Y-87183400D02*
X99743600Y-86733400D01*
X98493600Y-90433400D02*
X98493600Y-88433400D01*
X99743600Y-92133400D02*
X99293600Y-91683400D01*
X102643600Y-92133400D02*
X99743600Y-92133400D01*
X103093600Y-91683400D02*
X102643600Y-92133400D01*
X103893600Y-88433400D02*
X103893600Y-90433400D01*
X102643600Y-86733400D02*
X103093600Y-87183400D01*
X89736000Y-86758800D02*
X92636000Y-86758800D01*
X89286000Y-87208800D02*
X89736000Y-86758800D01*
X88486000Y-90458800D02*
X88486000Y-88458800D01*
X89736000Y-92158800D02*
X89286000Y-91708800D01*
X92636000Y-92158800D02*
X89736000Y-92158800D01*
X93086000Y-91708800D02*
X92636000Y-92158800D01*
X93886000Y-88458800D02*
X93886000Y-90458800D01*
X92636000Y-86758800D02*
X93086000Y-87208800D01*
X79779200Y-86758800D02*
X82679200Y-86758800D01*
X79329200Y-87208800D02*
X79779200Y-86758800D01*
X78529200Y-90458800D02*
X78529200Y-88458800D01*
X79779200Y-92158800D02*
X79329200Y-91708800D01*
X82679200Y-92158800D02*
X79779200Y-92158800D01*
X83129200Y-91708800D02*
X82679200Y-92158800D01*
X83929200Y-88458800D02*
X83929200Y-90458800D01*
X82679200Y-86758800D02*
X83129200Y-87208800D01*
X109751200Y-78351400D02*
X112651200Y-78351400D01*
X109301200Y-78801400D02*
X109751200Y-78351400D01*
X108501200Y-82051400D02*
X108501200Y-80051400D01*
X109751200Y-83751400D02*
X109301200Y-83301400D01*
X112651200Y-83751400D02*
X109751200Y-83751400D01*
X113101200Y-83301400D02*
X112651200Y-83751400D01*
X113901200Y-80051400D02*
X113901200Y-82051400D01*
X112651200Y-78351400D02*
X113101200Y-78801400D01*
X99743600Y-78351400D02*
X102643600Y-78351400D01*
X99293600Y-78801400D02*
X99743600Y-78351400D01*
X98493600Y-82051400D02*
X98493600Y-80051400D01*
X99743600Y-83751400D02*
X99293600Y-83301400D01*
X102643600Y-83751400D02*
X99743600Y-83751400D01*
X103093600Y-83301400D02*
X102643600Y-83751400D01*
X103893600Y-80051400D02*
X103893600Y-82051400D01*
X102643600Y-78351400D02*
X103093600Y-78801400D01*
X89736000Y-78351400D02*
X92636000Y-78351400D01*
X89286000Y-78801400D02*
X89736000Y-78351400D01*
X88486000Y-82051400D02*
X88486000Y-80051400D01*
X89736000Y-83751400D02*
X89286000Y-83301400D01*
X92636000Y-83751400D02*
X89736000Y-83751400D01*
X93086000Y-83301400D02*
X92636000Y-83751400D01*
X93886000Y-80051400D02*
X93886000Y-82051400D01*
X92636000Y-78351400D02*
X93086000Y-78801400D01*
X79753800Y-78351400D02*
X82653800Y-78351400D01*
X79303800Y-78801400D02*
X79753800Y-78351400D01*
X78503800Y-82051400D02*
X78503800Y-80051400D01*
X79753800Y-83751400D02*
X79303800Y-83301400D01*
X82653800Y-83751400D02*
X79753800Y-83751400D01*
X83103800Y-83301400D02*
X82653800Y-83751400D01*
X83903800Y-80051400D02*
X83903800Y-82051400D01*
X82653800Y-78351400D02*
X83103800Y-78801400D01*
X109725800Y-69740800D02*
X112625800Y-69740800D01*
X109275800Y-70190800D02*
X109725800Y-69740800D01*
X108475800Y-73440800D02*
X108475800Y-71440800D01*
X109725800Y-75140800D02*
X109275800Y-74690800D01*
X112625800Y-75140800D02*
X109725800Y-75140800D01*
X113075800Y-74690800D02*
X112625800Y-75140800D01*
X113875800Y-71440800D02*
X113875800Y-73440800D01*
X112625800Y-69740800D02*
X113075800Y-70190800D01*
X99743600Y-69740800D02*
X102643600Y-69740800D01*
X99293600Y-70190800D02*
X99743600Y-69740800D01*
X98493600Y-73440800D02*
X98493600Y-71440800D01*
X99743600Y-75140800D02*
X99293600Y-74690800D01*
X102643600Y-75140800D02*
X99743600Y-75140800D01*
X103093600Y-74690800D02*
X102643600Y-75140800D01*
X103893600Y-71440800D02*
X103893600Y-73440800D01*
X102643600Y-69740800D02*
X103093600Y-70190800D01*
X89736000Y-69740800D02*
X92636000Y-69740800D01*
X89286000Y-70190800D02*
X89736000Y-69740800D01*
X88486000Y-73440800D02*
X88486000Y-71440800D01*
X89736000Y-75140800D02*
X89286000Y-74690800D01*
X92636000Y-75140800D02*
X89736000Y-75140800D01*
X93086000Y-74690800D02*
X92636000Y-75140800D01*
X93886000Y-71440800D02*
X93886000Y-73440800D01*
X92636000Y-69740800D02*
X93086000Y-70190800D01*
X79753800Y-69740800D02*
X82653800Y-69740800D01*
X79303800Y-70190800D02*
X79753800Y-69740800D01*
X78503800Y-73440800D02*
X78503800Y-71440800D01*
X79753800Y-75140800D02*
X79303800Y-74690800D01*
X82653800Y-75140800D02*
X79753800Y-75140800D01*
X83103800Y-74690800D02*
X82653800Y-75140800D01*
X83903800Y-71440800D02*
X83903800Y-73440800D01*
X82653800Y-69740800D02*
X83103800Y-70190800D01*
X109751200Y-61257200D02*
X112651200Y-61257200D01*
X109301200Y-61707200D02*
X109751200Y-61257200D01*
X108501200Y-64957200D02*
X108501200Y-62957200D01*
X109751200Y-66657200D02*
X109301200Y-66207200D01*
X112651200Y-66657200D02*
X109751200Y-66657200D01*
X113101200Y-66207200D02*
X112651200Y-66657200D01*
X113901200Y-62957200D02*
X113901200Y-64957200D01*
X112651200Y-61257200D02*
X113101200Y-61707200D01*
X99743600Y-61257200D02*
X102643600Y-61257200D01*
X99293600Y-61707200D02*
X99743600Y-61257200D01*
X98493600Y-64957200D02*
X98493600Y-62957200D01*
X99743600Y-66657200D02*
X99293600Y-66207200D01*
X102643600Y-66657200D02*
X99743600Y-66657200D01*
X103093600Y-66207200D02*
X102643600Y-66657200D01*
X103893600Y-62957200D02*
X103893600Y-64957200D01*
X102643600Y-61257200D02*
X103093600Y-61707200D01*
X89736000Y-61257200D02*
X92636000Y-61257200D01*
X89286000Y-61707200D02*
X89736000Y-61257200D01*
X88486000Y-64957200D02*
X88486000Y-62957200D01*
X89736000Y-66657200D02*
X89286000Y-66207200D01*
X92636000Y-66657200D02*
X89736000Y-66657200D01*
X93086000Y-66207200D02*
X92636000Y-66657200D01*
X93886000Y-62957200D02*
X93886000Y-64957200D01*
X92636000Y-61257200D02*
X93086000Y-61707200D01*
X79753800Y-61257200D02*
X82653800Y-61257200D01*
X79303800Y-61707200D02*
X79753800Y-61257200D01*
X78503800Y-64957200D02*
X78503800Y-62957200D01*
X79753800Y-66657200D02*
X79303800Y-66207200D01*
X82653800Y-66657200D02*
X79753800Y-66657200D01*
X83103800Y-66207200D02*
X82653800Y-66657200D01*
X83903800Y-62957200D02*
X83903800Y-64957200D01*
X82653800Y-61257200D02*
X83103800Y-61707200D01*
X109751200Y-52748200D02*
X112651200Y-52748200D01*
X109301200Y-53198200D02*
X109751200Y-52748200D01*
X108501200Y-56448200D02*
X108501200Y-54448200D01*
X109751200Y-58148200D02*
X109301200Y-57698200D01*
X112651200Y-58148200D02*
X109751200Y-58148200D01*
X113101200Y-57698200D02*
X112651200Y-58148200D01*
X113901200Y-54448200D02*
X113901200Y-56448200D01*
X112651200Y-52748200D02*
X113101200Y-53198200D01*
X99743600Y-52722800D02*
X102643600Y-52722800D01*
X99293600Y-53172800D02*
X99743600Y-52722800D01*
X98493600Y-56422800D02*
X98493600Y-54422800D01*
X99743600Y-58122800D02*
X99293600Y-57672800D01*
X102643600Y-58122800D02*
X99743600Y-58122800D01*
X103093600Y-57672800D02*
X102643600Y-58122800D01*
X103893600Y-54422800D02*
X103893600Y-56422800D01*
X102643600Y-52722800D02*
X103093600Y-53172800D01*
X89736000Y-52722800D02*
X92636000Y-52722800D01*
X89286000Y-53172800D02*
X89736000Y-52722800D01*
X88486000Y-56422800D02*
X88486000Y-54422800D01*
X89736000Y-58122800D02*
X89286000Y-57672800D01*
X92636000Y-58122800D02*
X89736000Y-58122800D01*
X93086000Y-57672800D02*
X92636000Y-58122800D01*
X93886000Y-54422800D02*
X93886000Y-56422800D01*
X92636000Y-52722800D02*
X93086000Y-53172800D01*
X79753800Y-52722800D02*
X82653800Y-52722800D01*
X79303800Y-53172800D02*
X79753800Y-52722800D01*
X78503800Y-56422800D02*
X78503800Y-54422800D01*
X79753800Y-58122800D02*
X79303800Y-57672800D01*
X82653800Y-58122800D02*
X79753800Y-58122800D01*
X83103800Y-57672800D02*
X82653800Y-58122800D01*
X83903800Y-54422800D02*
X83903800Y-56422800D01*
X82653800Y-52722800D02*
X83103800Y-53172800D01*
X109751200Y-44264600D02*
X112651200Y-44264600D01*
X109301200Y-44714600D02*
X109751200Y-44264600D01*
X108501200Y-47964600D02*
X108501200Y-45964600D01*
X109751200Y-49664600D02*
X109301200Y-49214600D01*
X112651200Y-49664600D02*
X109751200Y-49664600D01*
X113101200Y-49214600D02*
X112651200Y-49664600D01*
X113901200Y-45964600D02*
X113901200Y-47964600D01*
X112651200Y-44264600D02*
X113101200Y-44714600D01*
X99743600Y-44239200D02*
X102643600Y-44239200D01*
X99293600Y-44689200D02*
X99743600Y-44239200D01*
X98493600Y-47939200D02*
X98493600Y-45939200D01*
X99743600Y-49639200D02*
X99293600Y-49189200D01*
X102643600Y-49639200D02*
X99743600Y-49639200D01*
X103093600Y-49189200D02*
X102643600Y-49639200D01*
X103893600Y-45939200D02*
X103893600Y-47939200D01*
X102643600Y-44239200D02*
X103093600Y-44689200D01*
X89736000Y-44213800D02*
X92636000Y-44213800D01*
X89286000Y-44663800D02*
X89736000Y-44213800D01*
X88486000Y-47913800D02*
X88486000Y-45913800D01*
X89736000Y-49613800D02*
X89286000Y-49163800D01*
X92636000Y-49613800D02*
X89736000Y-49613800D01*
X93086000Y-49163800D02*
X92636000Y-49613800D01*
X93886000Y-45913800D02*
X93886000Y-47913800D01*
X92636000Y-44213800D02*
X93086000Y-44663800D01*
X79753800Y-44239200D02*
X82653800Y-44239200D01*
X79303800Y-44689200D02*
X79753800Y-44239200D01*
X78503800Y-47939200D02*
X78503800Y-45939200D01*
X79753800Y-49639200D02*
X79303800Y-49189200D01*
X82653800Y-49639200D02*
X79753800Y-49639200D01*
X83103800Y-49189200D02*
X82653800Y-49639200D01*
X83903800Y-45939200D02*
X83903800Y-47939200D01*
X82653800Y-44239200D02*
X83103800Y-44689200D01*
X109751200Y-35755600D02*
X112651200Y-35755600D01*
X109301200Y-36205600D02*
X109751200Y-35755600D01*
X108501200Y-39455600D02*
X108501200Y-37455600D01*
X109751200Y-41155600D02*
X109301200Y-40705600D01*
X112651200Y-41155600D02*
X109751200Y-41155600D01*
X113101200Y-40705600D02*
X112651200Y-41155600D01*
X113901200Y-37455600D02*
X113901200Y-39455600D01*
X112651200Y-35755600D02*
X113101200Y-36205600D01*
X99743600Y-35755600D02*
X102643600Y-35755600D01*
X99293600Y-36205600D02*
X99743600Y-35755600D01*
X98493600Y-39455600D02*
X98493600Y-37455600D01*
X99743600Y-41155600D02*
X99293600Y-40705600D01*
X102643600Y-41155600D02*
X99743600Y-41155600D01*
X103093600Y-40705600D02*
X102643600Y-41155600D01*
X103893600Y-37455600D02*
X103893600Y-39455600D01*
X102643600Y-35755600D02*
X103093600Y-36205600D01*
X89736000Y-35755600D02*
X92636000Y-35755600D01*
X89286000Y-36205600D02*
X89736000Y-35755600D01*
X88486000Y-39455600D02*
X88486000Y-37455600D01*
X89736000Y-41155600D02*
X89286000Y-40705600D01*
X92636000Y-41155600D02*
X89736000Y-41155600D01*
X93086000Y-40705600D02*
X92636000Y-41155600D01*
X93886000Y-37455600D02*
X93886000Y-39455600D01*
X92636000Y-35755600D02*
X93086000Y-36205600D01*
X79753800Y-35755600D02*
X82653800Y-35755600D01*
X79303800Y-36205600D02*
X79753800Y-35755600D01*
X78503800Y-39455600D02*
X78503800Y-37455600D01*
X79753800Y-41155600D02*
X79303800Y-40705600D01*
X82653800Y-41155600D02*
X79753800Y-41155600D01*
X83103800Y-40705600D02*
X82653800Y-41155600D01*
X83903800Y-37455600D02*
X83903800Y-39455600D01*
X82653800Y-35755600D02*
X83103800Y-36205600D01*
D14*
X98020000Y-124055000D02*
X95020000Y-124055000D01*
X98020000Y-121055000D02*
X95020000Y-121055000D01*
D13*
X92460000Y-127460000D02*
X92460000Y-125460000D01*
X90420000Y-125460000D02*
X90420000Y-127460000D01*
X100580000Y-125460000D02*
X100580000Y-127460000D01*
X102620000Y-127460000D02*
X102620000Y-125460000D01*
D15*
X96062800Y-129133600D02*
X96977200Y-129133600D01*
X97332800Y-127990600D02*
X97332800Y-127279400D01*
X96977200Y-126136400D02*
X96824800Y-126136400D01*
X96824800Y-126136400D02*
X96215200Y-126136400D01*
X96215200Y-126136400D02*
X96062800Y-126136400D01*
D13*
X85665000Y-136585000D02*
X88325000Y-136585000D01*
X85665000Y-136525000D02*
X85665000Y-136585000D01*
X88325000Y-136525000D02*
X88325000Y-136585000D01*
X85665000Y-136525000D02*
X88325000Y-136525000D01*
X85665000Y-135255000D02*
X85665000Y-133925000D01*
X85665000Y-133925000D02*
X86995000Y-133925000D01*
X107255000Y-133925000D02*
X108585000Y-133925000D01*
X107255000Y-135255000D02*
X107255000Y-133925000D01*
X107255000Y-136525000D02*
X109915000Y-136525000D01*
X109915000Y-136525000D02*
X109915000Y-136585000D01*
X107255000Y-136525000D02*
X107255000Y-136585000D01*
X107255000Y-136585000D02*
X109915000Y-136585000D01*
D11*
X94876666Y-91104380D02*
X94543333Y-90628190D01*
X94305238Y-91104380D02*
X94305238Y-90104380D01*
X94686190Y-90104380D01*
X94781428Y-90152000D01*
X94829047Y-90199619D01*
X94876666Y-90294857D01*
X94876666Y-90437714D01*
X94829047Y-90532952D01*
X94781428Y-90580571D01*
X94686190Y-90628190D01*
X94305238Y-90628190D01*
X95305238Y-90580571D02*
X95638571Y-90580571D01*
X95781428Y-91104380D02*
X95305238Y-91104380D01*
X95305238Y-90104380D01*
X95781428Y-90104380D01*
X96543333Y-90580571D02*
X96210000Y-90580571D01*
X96210000Y-91104380D02*
X96210000Y-90104380D01*
X96686190Y-90104380D01*
X97210000Y-90104380D02*
X97210000Y-90342476D01*
X96971904Y-90247238D02*
X97210000Y-90342476D01*
X97448095Y-90247238D01*
X97067142Y-90532952D02*
X97210000Y-90342476D01*
X97352857Y-90532952D01*
X97971904Y-90104380D02*
X97971904Y-90342476D01*
X97733809Y-90247238D02*
X97971904Y-90342476D01*
X98210000Y-90247238D01*
X97829047Y-90532952D02*
X97971904Y-90342476D01*
X98114761Y-90532952D01*
X109391676Y-111485761D02*
X109534533Y-111533380D01*
X109772628Y-111533380D01*
X109867866Y-111485761D01*
X109915485Y-111438142D01*
X109963104Y-111342904D01*
X109963104Y-111247666D01*
X109915485Y-111152428D01*
X109867866Y-111104809D01*
X109772628Y-111057190D01*
X109582152Y-111009571D01*
X109486914Y-110961952D01*
X109439295Y-110914333D01*
X109391676Y-110819095D01*
X109391676Y-110723857D01*
X109439295Y-110628619D01*
X109486914Y-110581000D01*
X109582152Y-110533380D01*
X109820247Y-110533380D01*
X109963104Y-110581000D01*
X110296438Y-110533380D02*
X110534533Y-111533380D01*
X110725009Y-110819095D01*
X110915485Y-111533380D01*
X111153580Y-110533380D01*
X111439295Y-110533380D02*
X112058342Y-110533380D01*
X111725009Y-110914333D01*
X111867866Y-110914333D01*
X111963104Y-110961952D01*
X112010723Y-111009571D01*
X112058342Y-111104809D01*
X112058342Y-111342904D01*
X112010723Y-111438142D01*
X111963104Y-111485761D01*
X111867866Y-111533380D01*
X111582152Y-111533380D01*
X111486914Y-111485761D01*
X111439295Y-111438142D01*
X112534533Y-111533380D02*
X112725009Y-111533380D01*
X112820247Y-111485761D01*
X112867866Y-111438142D01*
X112963104Y-111295285D01*
X113010723Y-111104809D01*
X113010723Y-110723857D01*
X112963104Y-110628619D01*
X112915485Y-110581000D01*
X112820247Y-110533380D01*
X112629771Y-110533380D01*
X112534533Y-110581000D01*
X112486914Y-110628619D01*
X112439295Y-110723857D01*
X112439295Y-110961952D01*
X112486914Y-111057190D01*
X112534533Y-111104809D01*
X112629771Y-111152428D01*
X112820247Y-111152428D01*
X112915485Y-111104809D01*
X112963104Y-111057190D01*
X113010723Y-110961952D01*
X99384076Y-111485761D02*
X99526933Y-111533380D01*
X99765028Y-111533380D01*
X99860266Y-111485761D01*
X99907885Y-111438142D01*
X99955504Y-111342904D01*
X99955504Y-111247666D01*
X99907885Y-111152428D01*
X99860266Y-111104809D01*
X99765028Y-111057190D01*
X99574552Y-111009571D01*
X99479314Y-110961952D01*
X99431695Y-110914333D01*
X99384076Y-110819095D01*
X99384076Y-110723857D01*
X99431695Y-110628619D01*
X99479314Y-110581000D01*
X99574552Y-110533380D01*
X99812647Y-110533380D01*
X99955504Y-110581000D01*
X100288838Y-110533380D02*
X100526933Y-111533380D01*
X100717409Y-110819095D01*
X100907885Y-111533380D01*
X101145980Y-110533380D01*
X101431695Y-110533380D02*
X102050742Y-110533380D01*
X101717409Y-110914333D01*
X101860266Y-110914333D01*
X101955504Y-110961952D01*
X102003123Y-111009571D01*
X102050742Y-111104809D01*
X102050742Y-111342904D01*
X102003123Y-111438142D01*
X101955504Y-111485761D01*
X101860266Y-111533380D01*
X101574552Y-111533380D01*
X101479314Y-111485761D01*
X101431695Y-111438142D01*
X102622171Y-110961952D02*
X102526933Y-110914333D01*
X102479314Y-110866714D01*
X102431695Y-110771476D01*
X102431695Y-110723857D01*
X102479314Y-110628619D01*
X102526933Y-110581000D01*
X102622171Y-110533380D01*
X102812647Y-110533380D01*
X102907885Y-110581000D01*
X102955504Y-110628619D01*
X103003123Y-110723857D01*
X103003123Y-110771476D01*
X102955504Y-110866714D01*
X102907885Y-110914333D01*
X102812647Y-110961952D01*
X102622171Y-110961952D01*
X102526933Y-111009571D01*
X102479314Y-111057190D01*
X102431695Y-111152428D01*
X102431695Y-111342904D01*
X102479314Y-111438142D01*
X102526933Y-111485761D01*
X102622171Y-111533380D01*
X102812647Y-111533380D01*
X102907885Y-111485761D01*
X102955504Y-111438142D01*
X103003123Y-111342904D01*
X103003123Y-111152428D01*
X102955504Y-111057190D01*
X102907885Y-111009571D01*
X102812647Y-110961952D01*
X79394276Y-111485761D02*
X79537133Y-111533380D01*
X79775228Y-111533380D01*
X79870466Y-111485761D01*
X79918085Y-111438142D01*
X79965704Y-111342904D01*
X79965704Y-111247666D01*
X79918085Y-111152428D01*
X79870466Y-111104809D01*
X79775228Y-111057190D01*
X79584752Y-111009571D01*
X79489514Y-110961952D01*
X79441895Y-110914333D01*
X79394276Y-110819095D01*
X79394276Y-110723857D01*
X79441895Y-110628619D01*
X79489514Y-110581000D01*
X79584752Y-110533380D01*
X79822847Y-110533380D01*
X79965704Y-110581000D01*
X80299038Y-110533380D02*
X80537133Y-111533380D01*
X80727609Y-110819095D01*
X80918085Y-111533380D01*
X81156180Y-110533380D01*
X81441895Y-110533380D02*
X82060942Y-110533380D01*
X81727609Y-110914333D01*
X81870466Y-110914333D01*
X81965704Y-110961952D01*
X82013323Y-111009571D01*
X82060942Y-111104809D01*
X82060942Y-111342904D01*
X82013323Y-111438142D01*
X81965704Y-111485761D01*
X81870466Y-111533380D01*
X81584752Y-111533380D01*
X81489514Y-111485761D01*
X81441895Y-111438142D01*
X82394276Y-110533380D02*
X83060942Y-110533380D01*
X82632371Y-111533380D01*
X109391676Y-103306961D02*
X109534533Y-103354580D01*
X109772628Y-103354580D01*
X109867866Y-103306961D01*
X109915485Y-103259342D01*
X109963104Y-103164104D01*
X109963104Y-103068866D01*
X109915485Y-102973628D01*
X109867866Y-102926009D01*
X109772628Y-102878390D01*
X109582152Y-102830771D01*
X109486914Y-102783152D01*
X109439295Y-102735533D01*
X109391676Y-102640295D01*
X109391676Y-102545057D01*
X109439295Y-102449819D01*
X109486914Y-102402200D01*
X109582152Y-102354580D01*
X109820247Y-102354580D01*
X109963104Y-102402200D01*
X110296438Y-102354580D02*
X110534533Y-103354580D01*
X110725009Y-102640295D01*
X110915485Y-103354580D01*
X111153580Y-102354580D01*
X111439295Y-102354580D02*
X112058342Y-102354580D01*
X111725009Y-102735533D01*
X111867866Y-102735533D01*
X111963104Y-102783152D01*
X112010723Y-102830771D01*
X112058342Y-102926009D01*
X112058342Y-103164104D01*
X112010723Y-103259342D01*
X111963104Y-103306961D01*
X111867866Y-103354580D01*
X111582152Y-103354580D01*
X111486914Y-103306961D01*
X111439295Y-103259342D01*
X112915485Y-102354580D02*
X112725009Y-102354580D01*
X112629771Y-102402200D01*
X112582152Y-102449819D01*
X112486914Y-102592676D01*
X112439295Y-102783152D01*
X112439295Y-103164104D01*
X112486914Y-103259342D01*
X112534533Y-103306961D01*
X112629771Y-103354580D01*
X112820247Y-103354580D01*
X112915485Y-103306961D01*
X112963104Y-103259342D01*
X113010723Y-103164104D01*
X113010723Y-102926009D01*
X112963104Y-102830771D01*
X112915485Y-102783152D01*
X112820247Y-102735533D01*
X112629771Y-102735533D01*
X112534533Y-102783152D01*
X112486914Y-102830771D01*
X112439295Y-102926009D01*
X99384076Y-103306961D02*
X99526933Y-103354580D01*
X99765028Y-103354580D01*
X99860266Y-103306961D01*
X99907885Y-103259342D01*
X99955504Y-103164104D01*
X99955504Y-103068866D01*
X99907885Y-102973628D01*
X99860266Y-102926009D01*
X99765028Y-102878390D01*
X99574552Y-102830771D01*
X99479314Y-102783152D01*
X99431695Y-102735533D01*
X99384076Y-102640295D01*
X99384076Y-102545057D01*
X99431695Y-102449819D01*
X99479314Y-102402200D01*
X99574552Y-102354580D01*
X99812647Y-102354580D01*
X99955504Y-102402200D01*
X100288838Y-102354580D02*
X100526933Y-103354580D01*
X100717409Y-102640295D01*
X100907885Y-103354580D01*
X101145980Y-102354580D01*
X101431695Y-102354580D02*
X102050742Y-102354580D01*
X101717409Y-102735533D01*
X101860266Y-102735533D01*
X101955504Y-102783152D01*
X102003123Y-102830771D01*
X102050742Y-102926009D01*
X102050742Y-103164104D01*
X102003123Y-103259342D01*
X101955504Y-103306961D01*
X101860266Y-103354580D01*
X101574552Y-103354580D01*
X101479314Y-103306961D01*
X101431695Y-103259342D01*
X102955504Y-102354580D02*
X102479314Y-102354580D01*
X102431695Y-102830771D01*
X102479314Y-102783152D01*
X102574552Y-102735533D01*
X102812647Y-102735533D01*
X102907885Y-102783152D01*
X102955504Y-102830771D01*
X103003123Y-102926009D01*
X103003123Y-103164104D01*
X102955504Y-103259342D01*
X102907885Y-103306961D01*
X102812647Y-103354580D01*
X102574552Y-103354580D01*
X102479314Y-103306961D01*
X102431695Y-103259342D01*
X89376476Y-103306961D02*
X89519333Y-103354580D01*
X89757428Y-103354580D01*
X89852666Y-103306961D01*
X89900285Y-103259342D01*
X89947904Y-103164104D01*
X89947904Y-103068866D01*
X89900285Y-102973628D01*
X89852666Y-102926009D01*
X89757428Y-102878390D01*
X89566952Y-102830771D01*
X89471714Y-102783152D01*
X89424095Y-102735533D01*
X89376476Y-102640295D01*
X89376476Y-102545057D01*
X89424095Y-102449819D01*
X89471714Y-102402200D01*
X89566952Y-102354580D01*
X89805047Y-102354580D01*
X89947904Y-102402200D01*
X90281238Y-102354580D02*
X90519333Y-103354580D01*
X90709809Y-102640295D01*
X90900285Y-103354580D01*
X91138380Y-102354580D01*
X91424095Y-102354580D02*
X92043142Y-102354580D01*
X91709809Y-102735533D01*
X91852666Y-102735533D01*
X91947904Y-102783152D01*
X91995523Y-102830771D01*
X92043142Y-102926009D01*
X92043142Y-103164104D01*
X91995523Y-103259342D01*
X91947904Y-103306961D01*
X91852666Y-103354580D01*
X91566952Y-103354580D01*
X91471714Y-103306961D01*
X91424095Y-103259342D01*
X92900285Y-102687914D02*
X92900285Y-103354580D01*
X92662190Y-102306961D02*
X92424095Y-103021247D01*
X93043142Y-103021247D01*
X79394276Y-103306961D02*
X79537133Y-103354580D01*
X79775228Y-103354580D01*
X79870466Y-103306961D01*
X79918085Y-103259342D01*
X79965704Y-103164104D01*
X79965704Y-103068866D01*
X79918085Y-102973628D01*
X79870466Y-102926009D01*
X79775228Y-102878390D01*
X79584752Y-102830771D01*
X79489514Y-102783152D01*
X79441895Y-102735533D01*
X79394276Y-102640295D01*
X79394276Y-102545057D01*
X79441895Y-102449819D01*
X79489514Y-102402200D01*
X79584752Y-102354580D01*
X79822847Y-102354580D01*
X79965704Y-102402200D01*
X80299038Y-102354580D02*
X80537133Y-103354580D01*
X80727609Y-102640295D01*
X80918085Y-103354580D01*
X81156180Y-102354580D01*
X81441895Y-102354580D02*
X82060942Y-102354580D01*
X81727609Y-102735533D01*
X81870466Y-102735533D01*
X81965704Y-102783152D01*
X82013323Y-102830771D01*
X82060942Y-102926009D01*
X82060942Y-103164104D01*
X82013323Y-103259342D01*
X81965704Y-103306961D01*
X81870466Y-103354580D01*
X81584752Y-103354580D01*
X81489514Y-103306961D01*
X81441895Y-103259342D01*
X82394276Y-102354580D02*
X83013323Y-102354580D01*
X82679990Y-102735533D01*
X82822847Y-102735533D01*
X82918085Y-102783152D01*
X82965704Y-102830771D01*
X83013323Y-102926009D01*
X83013323Y-103164104D01*
X82965704Y-103259342D01*
X82918085Y-103306961D01*
X82822847Y-103354580D01*
X82537133Y-103354580D01*
X82441895Y-103306961D01*
X82394276Y-103259342D01*
X109391676Y-94747161D02*
X109534533Y-94794780D01*
X109772628Y-94794780D01*
X109867866Y-94747161D01*
X109915485Y-94699542D01*
X109963104Y-94604304D01*
X109963104Y-94509066D01*
X109915485Y-94413828D01*
X109867866Y-94366209D01*
X109772628Y-94318590D01*
X109582152Y-94270971D01*
X109486914Y-94223352D01*
X109439295Y-94175733D01*
X109391676Y-94080495D01*
X109391676Y-93985257D01*
X109439295Y-93890019D01*
X109486914Y-93842400D01*
X109582152Y-93794780D01*
X109820247Y-93794780D01*
X109963104Y-93842400D01*
X110296438Y-93794780D02*
X110534533Y-94794780D01*
X110725009Y-94080495D01*
X110915485Y-94794780D01*
X111153580Y-93794780D01*
X111439295Y-93794780D02*
X112058342Y-93794780D01*
X111725009Y-94175733D01*
X111867866Y-94175733D01*
X111963104Y-94223352D01*
X112010723Y-94270971D01*
X112058342Y-94366209D01*
X112058342Y-94604304D01*
X112010723Y-94699542D01*
X111963104Y-94747161D01*
X111867866Y-94794780D01*
X111582152Y-94794780D01*
X111486914Y-94747161D01*
X111439295Y-94699542D01*
X112439295Y-93890019D02*
X112486914Y-93842400D01*
X112582152Y-93794780D01*
X112820247Y-93794780D01*
X112915485Y-93842400D01*
X112963104Y-93890019D01*
X113010723Y-93985257D01*
X113010723Y-94080495D01*
X112963104Y-94223352D01*
X112391676Y-94794780D01*
X113010723Y-94794780D01*
X99384076Y-94747161D02*
X99526933Y-94794780D01*
X99765028Y-94794780D01*
X99860266Y-94747161D01*
X99907885Y-94699542D01*
X99955504Y-94604304D01*
X99955504Y-94509066D01*
X99907885Y-94413828D01*
X99860266Y-94366209D01*
X99765028Y-94318590D01*
X99574552Y-94270971D01*
X99479314Y-94223352D01*
X99431695Y-94175733D01*
X99384076Y-94080495D01*
X99384076Y-93985257D01*
X99431695Y-93890019D01*
X99479314Y-93842400D01*
X99574552Y-93794780D01*
X99812647Y-93794780D01*
X99955504Y-93842400D01*
X100288838Y-93794780D02*
X100526933Y-94794780D01*
X100717409Y-94080495D01*
X100907885Y-94794780D01*
X101145980Y-93794780D01*
X101431695Y-93794780D02*
X102050742Y-93794780D01*
X101717409Y-94175733D01*
X101860266Y-94175733D01*
X101955504Y-94223352D01*
X102003123Y-94270971D01*
X102050742Y-94366209D01*
X102050742Y-94604304D01*
X102003123Y-94699542D01*
X101955504Y-94747161D01*
X101860266Y-94794780D01*
X101574552Y-94794780D01*
X101479314Y-94747161D01*
X101431695Y-94699542D01*
X103003123Y-94794780D02*
X102431695Y-94794780D01*
X102717409Y-94794780D02*
X102717409Y-93794780D01*
X102622171Y-93937638D01*
X102526933Y-94032876D01*
X102431695Y-94080495D01*
X89376476Y-94747161D02*
X89519333Y-94794780D01*
X89757428Y-94794780D01*
X89852666Y-94747161D01*
X89900285Y-94699542D01*
X89947904Y-94604304D01*
X89947904Y-94509066D01*
X89900285Y-94413828D01*
X89852666Y-94366209D01*
X89757428Y-94318590D01*
X89566952Y-94270971D01*
X89471714Y-94223352D01*
X89424095Y-94175733D01*
X89376476Y-94080495D01*
X89376476Y-93985257D01*
X89424095Y-93890019D01*
X89471714Y-93842400D01*
X89566952Y-93794780D01*
X89805047Y-93794780D01*
X89947904Y-93842400D01*
X90281238Y-93794780D02*
X90519333Y-94794780D01*
X90709809Y-94080495D01*
X90900285Y-94794780D01*
X91138380Y-93794780D01*
X91424095Y-93794780D02*
X92043142Y-93794780D01*
X91709809Y-94175733D01*
X91852666Y-94175733D01*
X91947904Y-94223352D01*
X91995523Y-94270971D01*
X92043142Y-94366209D01*
X92043142Y-94604304D01*
X91995523Y-94699542D01*
X91947904Y-94747161D01*
X91852666Y-94794780D01*
X91566952Y-94794780D01*
X91471714Y-94747161D01*
X91424095Y-94699542D01*
X92662190Y-93794780D02*
X92757428Y-93794780D01*
X92852666Y-93842400D01*
X92900285Y-93890019D01*
X92947904Y-93985257D01*
X92995523Y-94175733D01*
X92995523Y-94413828D01*
X92947904Y-94604304D01*
X92900285Y-94699542D01*
X92852666Y-94747161D01*
X92757428Y-94794780D01*
X92662190Y-94794780D01*
X92566952Y-94747161D01*
X92519333Y-94699542D01*
X92471714Y-94604304D01*
X92424095Y-94413828D01*
X92424095Y-94175733D01*
X92471714Y-93985257D01*
X92519333Y-93890019D01*
X92566952Y-93842400D01*
X92662190Y-93794780D01*
X79394276Y-94747161D02*
X79537133Y-94794780D01*
X79775228Y-94794780D01*
X79870466Y-94747161D01*
X79918085Y-94699542D01*
X79965704Y-94604304D01*
X79965704Y-94509066D01*
X79918085Y-94413828D01*
X79870466Y-94366209D01*
X79775228Y-94318590D01*
X79584752Y-94270971D01*
X79489514Y-94223352D01*
X79441895Y-94175733D01*
X79394276Y-94080495D01*
X79394276Y-93985257D01*
X79441895Y-93890019D01*
X79489514Y-93842400D01*
X79584752Y-93794780D01*
X79822847Y-93794780D01*
X79965704Y-93842400D01*
X80299038Y-93794780D02*
X80537133Y-94794780D01*
X80727609Y-94080495D01*
X80918085Y-94794780D01*
X81156180Y-93794780D01*
X81489514Y-93890019D02*
X81537133Y-93842400D01*
X81632371Y-93794780D01*
X81870466Y-93794780D01*
X81965704Y-93842400D01*
X82013323Y-93890019D01*
X82060942Y-93985257D01*
X82060942Y-94080495D01*
X82013323Y-94223352D01*
X81441895Y-94794780D01*
X82060942Y-94794780D01*
X82537133Y-94794780D02*
X82727609Y-94794780D01*
X82822847Y-94747161D01*
X82870466Y-94699542D01*
X82965704Y-94556685D01*
X83013323Y-94366209D01*
X83013323Y-93985257D01*
X82965704Y-93890019D01*
X82918085Y-93842400D01*
X82822847Y-93794780D01*
X82632371Y-93794780D01*
X82537133Y-93842400D01*
X82489514Y-93890019D01*
X82441895Y-93985257D01*
X82441895Y-94223352D01*
X82489514Y-94318590D01*
X82537133Y-94366209D01*
X82632371Y-94413828D01*
X82822847Y-94413828D01*
X82918085Y-94366209D01*
X82965704Y-94318590D01*
X83013323Y-94223352D01*
X109391676Y-86263561D02*
X109534533Y-86311180D01*
X109772628Y-86311180D01*
X109867866Y-86263561D01*
X109915485Y-86215942D01*
X109963104Y-86120704D01*
X109963104Y-86025466D01*
X109915485Y-85930228D01*
X109867866Y-85882609D01*
X109772628Y-85834990D01*
X109582152Y-85787371D01*
X109486914Y-85739752D01*
X109439295Y-85692133D01*
X109391676Y-85596895D01*
X109391676Y-85501657D01*
X109439295Y-85406419D01*
X109486914Y-85358800D01*
X109582152Y-85311180D01*
X109820247Y-85311180D01*
X109963104Y-85358800D01*
X110296438Y-85311180D02*
X110534533Y-86311180D01*
X110725009Y-85596895D01*
X110915485Y-86311180D01*
X111153580Y-85311180D01*
X111486914Y-85406419D02*
X111534533Y-85358800D01*
X111629771Y-85311180D01*
X111867866Y-85311180D01*
X111963104Y-85358800D01*
X112010723Y-85406419D01*
X112058342Y-85501657D01*
X112058342Y-85596895D01*
X112010723Y-85739752D01*
X111439295Y-86311180D01*
X112058342Y-86311180D01*
X112629771Y-85739752D02*
X112534533Y-85692133D01*
X112486914Y-85644514D01*
X112439295Y-85549276D01*
X112439295Y-85501657D01*
X112486914Y-85406419D01*
X112534533Y-85358800D01*
X112629771Y-85311180D01*
X112820247Y-85311180D01*
X112915485Y-85358800D01*
X112963104Y-85406419D01*
X113010723Y-85501657D01*
X113010723Y-85549276D01*
X112963104Y-85644514D01*
X112915485Y-85692133D01*
X112820247Y-85739752D01*
X112629771Y-85739752D01*
X112534533Y-85787371D01*
X112486914Y-85834990D01*
X112439295Y-85930228D01*
X112439295Y-86120704D01*
X112486914Y-86215942D01*
X112534533Y-86263561D01*
X112629771Y-86311180D01*
X112820247Y-86311180D01*
X112915485Y-86263561D01*
X112963104Y-86215942D01*
X113010723Y-86120704D01*
X113010723Y-85930228D01*
X112963104Y-85834990D01*
X112915485Y-85787371D01*
X112820247Y-85739752D01*
X99384076Y-86238161D02*
X99526933Y-86285780D01*
X99765028Y-86285780D01*
X99860266Y-86238161D01*
X99907885Y-86190542D01*
X99955504Y-86095304D01*
X99955504Y-86000066D01*
X99907885Y-85904828D01*
X99860266Y-85857209D01*
X99765028Y-85809590D01*
X99574552Y-85761971D01*
X99479314Y-85714352D01*
X99431695Y-85666733D01*
X99384076Y-85571495D01*
X99384076Y-85476257D01*
X99431695Y-85381019D01*
X99479314Y-85333400D01*
X99574552Y-85285780D01*
X99812647Y-85285780D01*
X99955504Y-85333400D01*
X100288838Y-85285780D02*
X100526933Y-86285780D01*
X100717409Y-85571495D01*
X100907885Y-86285780D01*
X101145980Y-85285780D01*
X101479314Y-85381019D02*
X101526933Y-85333400D01*
X101622171Y-85285780D01*
X101860266Y-85285780D01*
X101955504Y-85333400D01*
X102003123Y-85381019D01*
X102050742Y-85476257D01*
X102050742Y-85571495D01*
X102003123Y-85714352D01*
X101431695Y-86285780D01*
X102050742Y-86285780D01*
X102384076Y-85285780D02*
X103050742Y-85285780D01*
X102622171Y-86285780D01*
X89376476Y-86263561D02*
X89519333Y-86311180D01*
X89757428Y-86311180D01*
X89852666Y-86263561D01*
X89900285Y-86215942D01*
X89947904Y-86120704D01*
X89947904Y-86025466D01*
X89900285Y-85930228D01*
X89852666Y-85882609D01*
X89757428Y-85834990D01*
X89566952Y-85787371D01*
X89471714Y-85739752D01*
X89424095Y-85692133D01*
X89376476Y-85596895D01*
X89376476Y-85501657D01*
X89424095Y-85406419D01*
X89471714Y-85358800D01*
X89566952Y-85311180D01*
X89805047Y-85311180D01*
X89947904Y-85358800D01*
X90281238Y-85311180D02*
X90519333Y-86311180D01*
X90709809Y-85596895D01*
X90900285Y-86311180D01*
X91138380Y-85311180D01*
X91471714Y-85406419D02*
X91519333Y-85358800D01*
X91614571Y-85311180D01*
X91852666Y-85311180D01*
X91947904Y-85358800D01*
X91995523Y-85406419D01*
X92043142Y-85501657D01*
X92043142Y-85596895D01*
X91995523Y-85739752D01*
X91424095Y-86311180D01*
X92043142Y-86311180D01*
X92900285Y-85311180D02*
X92709809Y-85311180D01*
X92614571Y-85358800D01*
X92566952Y-85406419D01*
X92471714Y-85549276D01*
X92424095Y-85739752D01*
X92424095Y-86120704D01*
X92471714Y-86215942D01*
X92519333Y-86263561D01*
X92614571Y-86311180D01*
X92805047Y-86311180D01*
X92900285Y-86263561D01*
X92947904Y-86215942D01*
X92995523Y-86120704D01*
X92995523Y-85882609D01*
X92947904Y-85787371D01*
X92900285Y-85739752D01*
X92805047Y-85692133D01*
X92614571Y-85692133D01*
X92519333Y-85739752D01*
X92471714Y-85787371D01*
X92424095Y-85882609D01*
X79419676Y-86263561D02*
X79562533Y-86311180D01*
X79800628Y-86311180D01*
X79895866Y-86263561D01*
X79943485Y-86215942D01*
X79991104Y-86120704D01*
X79991104Y-86025466D01*
X79943485Y-85930228D01*
X79895866Y-85882609D01*
X79800628Y-85834990D01*
X79610152Y-85787371D01*
X79514914Y-85739752D01*
X79467295Y-85692133D01*
X79419676Y-85596895D01*
X79419676Y-85501657D01*
X79467295Y-85406419D01*
X79514914Y-85358800D01*
X79610152Y-85311180D01*
X79848247Y-85311180D01*
X79991104Y-85358800D01*
X80324438Y-85311180D02*
X80562533Y-86311180D01*
X80753009Y-85596895D01*
X80943485Y-86311180D01*
X81181580Y-85311180D01*
X81514914Y-85406419D02*
X81562533Y-85358800D01*
X81657771Y-85311180D01*
X81895866Y-85311180D01*
X81991104Y-85358800D01*
X82038723Y-85406419D01*
X82086342Y-85501657D01*
X82086342Y-85596895D01*
X82038723Y-85739752D01*
X81467295Y-86311180D01*
X82086342Y-86311180D01*
X82991104Y-85311180D02*
X82514914Y-85311180D01*
X82467295Y-85787371D01*
X82514914Y-85739752D01*
X82610152Y-85692133D01*
X82848247Y-85692133D01*
X82943485Y-85739752D01*
X82991104Y-85787371D01*
X83038723Y-85882609D01*
X83038723Y-86120704D01*
X82991104Y-86215942D01*
X82943485Y-86263561D01*
X82848247Y-86311180D01*
X82610152Y-86311180D01*
X82514914Y-86263561D01*
X82467295Y-86215942D01*
X109391676Y-77856161D02*
X109534533Y-77903780D01*
X109772628Y-77903780D01*
X109867866Y-77856161D01*
X109915485Y-77808542D01*
X109963104Y-77713304D01*
X109963104Y-77618066D01*
X109915485Y-77522828D01*
X109867866Y-77475209D01*
X109772628Y-77427590D01*
X109582152Y-77379971D01*
X109486914Y-77332352D01*
X109439295Y-77284733D01*
X109391676Y-77189495D01*
X109391676Y-77094257D01*
X109439295Y-76999019D01*
X109486914Y-76951400D01*
X109582152Y-76903780D01*
X109820247Y-76903780D01*
X109963104Y-76951400D01*
X110296438Y-76903780D02*
X110534533Y-77903780D01*
X110725009Y-77189495D01*
X110915485Y-77903780D01*
X111153580Y-76903780D01*
X111486914Y-76999019D02*
X111534533Y-76951400D01*
X111629771Y-76903780D01*
X111867866Y-76903780D01*
X111963104Y-76951400D01*
X112010723Y-76999019D01*
X112058342Y-77094257D01*
X112058342Y-77189495D01*
X112010723Y-77332352D01*
X111439295Y-77903780D01*
X112058342Y-77903780D01*
X112915485Y-77237114D02*
X112915485Y-77903780D01*
X112677390Y-76856161D02*
X112439295Y-77570447D01*
X113058342Y-77570447D01*
X99384076Y-77856161D02*
X99526933Y-77903780D01*
X99765028Y-77903780D01*
X99860266Y-77856161D01*
X99907885Y-77808542D01*
X99955504Y-77713304D01*
X99955504Y-77618066D01*
X99907885Y-77522828D01*
X99860266Y-77475209D01*
X99765028Y-77427590D01*
X99574552Y-77379971D01*
X99479314Y-77332352D01*
X99431695Y-77284733D01*
X99384076Y-77189495D01*
X99384076Y-77094257D01*
X99431695Y-76999019D01*
X99479314Y-76951400D01*
X99574552Y-76903780D01*
X99812647Y-76903780D01*
X99955504Y-76951400D01*
X100288838Y-76903780D02*
X100526933Y-77903780D01*
X100717409Y-77189495D01*
X100907885Y-77903780D01*
X101145980Y-76903780D01*
X101479314Y-76999019D02*
X101526933Y-76951400D01*
X101622171Y-76903780D01*
X101860266Y-76903780D01*
X101955504Y-76951400D01*
X102003123Y-76999019D01*
X102050742Y-77094257D01*
X102050742Y-77189495D01*
X102003123Y-77332352D01*
X101431695Y-77903780D01*
X102050742Y-77903780D01*
X102384076Y-76903780D02*
X103003123Y-76903780D01*
X102669790Y-77284733D01*
X102812647Y-77284733D01*
X102907885Y-77332352D01*
X102955504Y-77379971D01*
X103003123Y-77475209D01*
X103003123Y-77713304D01*
X102955504Y-77808542D01*
X102907885Y-77856161D01*
X102812647Y-77903780D01*
X102526933Y-77903780D01*
X102431695Y-77856161D01*
X102384076Y-77808542D01*
X89376476Y-77856161D02*
X89519333Y-77903780D01*
X89757428Y-77903780D01*
X89852666Y-77856161D01*
X89900285Y-77808542D01*
X89947904Y-77713304D01*
X89947904Y-77618066D01*
X89900285Y-77522828D01*
X89852666Y-77475209D01*
X89757428Y-77427590D01*
X89566952Y-77379971D01*
X89471714Y-77332352D01*
X89424095Y-77284733D01*
X89376476Y-77189495D01*
X89376476Y-77094257D01*
X89424095Y-76999019D01*
X89471714Y-76951400D01*
X89566952Y-76903780D01*
X89805047Y-76903780D01*
X89947904Y-76951400D01*
X90281238Y-76903780D02*
X90519333Y-77903780D01*
X90709809Y-77189495D01*
X90900285Y-77903780D01*
X91138380Y-76903780D01*
X91471714Y-76999019D02*
X91519333Y-76951400D01*
X91614571Y-76903780D01*
X91852666Y-76903780D01*
X91947904Y-76951400D01*
X91995523Y-76999019D01*
X92043142Y-77094257D01*
X92043142Y-77189495D01*
X91995523Y-77332352D01*
X91424095Y-77903780D01*
X92043142Y-77903780D01*
X92424095Y-76999019D02*
X92471714Y-76951400D01*
X92566952Y-76903780D01*
X92805047Y-76903780D01*
X92900285Y-76951400D01*
X92947904Y-76999019D01*
X92995523Y-77094257D01*
X92995523Y-77189495D01*
X92947904Y-77332352D01*
X92376476Y-77903780D01*
X92995523Y-77903780D01*
X79394276Y-77856161D02*
X79537133Y-77903780D01*
X79775228Y-77903780D01*
X79870466Y-77856161D01*
X79918085Y-77808542D01*
X79965704Y-77713304D01*
X79965704Y-77618066D01*
X79918085Y-77522828D01*
X79870466Y-77475209D01*
X79775228Y-77427590D01*
X79584752Y-77379971D01*
X79489514Y-77332352D01*
X79441895Y-77284733D01*
X79394276Y-77189495D01*
X79394276Y-77094257D01*
X79441895Y-76999019D01*
X79489514Y-76951400D01*
X79584752Y-76903780D01*
X79822847Y-76903780D01*
X79965704Y-76951400D01*
X80299038Y-76903780D02*
X80537133Y-77903780D01*
X80727609Y-77189495D01*
X80918085Y-77903780D01*
X81156180Y-76903780D01*
X81489514Y-76999019D02*
X81537133Y-76951400D01*
X81632371Y-76903780D01*
X81870466Y-76903780D01*
X81965704Y-76951400D01*
X82013323Y-76999019D01*
X82060942Y-77094257D01*
X82060942Y-77189495D01*
X82013323Y-77332352D01*
X81441895Y-77903780D01*
X82060942Y-77903780D01*
X83013323Y-77903780D02*
X82441895Y-77903780D01*
X82727609Y-77903780D02*
X82727609Y-76903780D01*
X82632371Y-77046638D01*
X82537133Y-77141876D01*
X82441895Y-77189495D01*
X109366276Y-69245561D02*
X109509133Y-69293180D01*
X109747228Y-69293180D01*
X109842466Y-69245561D01*
X109890085Y-69197942D01*
X109937704Y-69102704D01*
X109937704Y-69007466D01*
X109890085Y-68912228D01*
X109842466Y-68864609D01*
X109747228Y-68816990D01*
X109556752Y-68769371D01*
X109461514Y-68721752D01*
X109413895Y-68674133D01*
X109366276Y-68578895D01*
X109366276Y-68483657D01*
X109413895Y-68388419D01*
X109461514Y-68340800D01*
X109556752Y-68293180D01*
X109794847Y-68293180D01*
X109937704Y-68340800D01*
X110271038Y-68293180D02*
X110509133Y-69293180D01*
X110699609Y-68578895D01*
X110890085Y-69293180D01*
X111128180Y-68293180D01*
X111461514Y-68388419D02*
X111509133Y-68340800D01*
X111604371Y-68293180D01*
X111842466Y-68293180D01*
X111937704Y-68340800D01*
X111985323Y-68388419D01*
X112032942Y-68483657D01*
X112032942Y-68578895D01*
X111985323Y-68721752D01*
X111413895Y-69293180D01*
X112032942Y-69293180D01*
X112651990Y-68293180D02*
X112747228Y-68293180D01*
X112842466Y-68340800D01*
X112890085Y-68388419D01*
X112937704Y-68483657D01*
X112985323Y-68674133D01*
X112985323Y-68912228D01*
X112937704Y-69102704D01*
X112890085Y-69197942D01*
X112842466Y-69245561D01*
X112747228Y-69293180D01*
X112651990Y-69293180D01*
X112556752Y-69245561D01*
X112509133Y-69197942D01*
X112461514Y-69102704D01*
X112413895Y-68912228D01*
X112413895Y-68674133D01*
X112461514Y-68483657D01*
X112509133Y-68388419D01*
X112556752Y-68340800D01*
X112651990Y-68293180D01*
X99384076Y-69245561D02*
X99526933Y-69293180D01*
X99765028Y-69293180D01*
X99860266Y-69245561D01*
X99907885Y-69197942D01*
X99955504Y-69102704D01*
X99955504Y-69007466D01*
X99907885Y-68912228D01*
X99860266Y-68864609D01*
X99765028Y-68816990D01*
X99574552Y-68769371D01*
X99479314Y-68721752D01*
X99431695Y-68674133D01*
X99384076Y-68578895D01*
X99384076Y-68483657D01*
X99431695Y-68388419D01*
X99479314Y-68340800D01*
X99574552Y-68293180D01*
X99812647Y-68293180D01*
X99955504Y-68340800D01*
X100288838Y-68293180D02*
X100526933Y-69293180D01*
X100717409Y-68578895D01*
X100907885Y-69293180D01*
X101145980Y-68293180D01*
X102050742Y-69293180D02*
X101479314Y-69293180D01*
X101765028Y-69293180D02*
X101765028Y-68293180D01*
X101669790Y-68436038D01*
X101574552Y-68531276D01*
X101479314Y-68578895D01*
X102526933Y-69293180D02*
X102717409Y-69293180D01*
X102812647Y-69245561D01*
X102860266Y-69197942D01*
X102955504Y-69055085D01*
X103003123Y-68864609D01*
X103003123Y-68483657D01*
X102955504Y-68388419D01*
X102907885Y-68340800D01*
X102812647Y-68293180D01*
X102622171Y-68293180D01*
X102526933Y-68340800D01*
X102479314Y-68388419D01*
X102431695Y-68483657D01*
X102431695Y-68721752D01*
X102479314Y-68816990D01*
X102526933Y-68864609D01*
X102622171Y-68912228D01*
X102812647Y-68912228D01*
X102907885Y-68864609D01*
X102955504Y-68816990D01*
X103003123Y-68721752D01*
X89376476Y-69245561D02*
X89519333Y-69293180D01*
X89757428Y-69293180D01*
X89852666Y-69245561D01*
X89900285Y-69197942D01*
X89947904Y-69102704D01*
X89947904Y-69007466D01*
X89900285Y-68912228D01*
X89852666Y-68864609D01*
X89757428Y-68816990D01*
X89566952Y-68769371D01*
X89471714Y-68721752D01*
X89424095Y-68674133D01*
X89376476Y-68578895D01*
X89376476Y-68483657D01*
X89424095Y-68388419D01*
X89471714Y-68340800D01*
X89566952Y-68293180D01*
X89805047Y-68293180D01*
X89947904Y-68340800D01*
X90281238Y-68293180D02*
X90519333Y-69293180D01*
X90709809Y-68578895D01*
X90900285Y-69293180D01*
X91138380Y-68293180D01*
X92043142Y-69293180D02*
X91471714Y-69293180D01*
X91757428Y-69293180D02*
X91757428Y-68293180D01*
X91662190Y-68436038D01*
X91566952Y-68531276D01*
X91471714Y-68578895D01*
X92614571Y-68721752D02*
X92519333Y-68674133D01*
X92471714Y-68626514D01*
X92424095Y-68531276D01*
X92424095Y-68483657D01*
X92471714Y-68388419D01*
X92519333Y-68340800D01*
X92614571Y-68293180D01*
X92805047Y-68293180D01*
X92900285Y-68340800D01*
X92947904Y-68388419D01*
X92995523Y-68483657D01*
X92995523Y-68531276D01*
X92947904Y-68626514D01*
X92900285Y-68674133D01*
X92805047Y-68721752D01*
X92614571Y-68721752D01*
X92519333Y-68769371D01*
X92471714Y-68816990D01*
X92424095Y-68912228D01*
X92424095Y-69102704D01*
X92471714Y-69197942D01*
X92519333Y-69245561D01*
X92614571Y-69293180D01*
X92805047Y-69293180D01*
X92900285Y-69245561D01*
X92947904Y-69197942D01*
X92995523Y-69102704D01*
X92995523Y-68912228D01*
X92947904Y-68816990D01*
X92900285Y-68769371D01*
X92805047Y-68721752D01*
X79394276Y-69245561D02*
X79537133Y-69293180D01*
X79775228Y-69293180D01*
X79870466Y-69245561D01*
X79918085Y-69197942D01*
X79965704Y-69102704D01*
X79965704Y-69007466D01*
X79918085Y-68912228D01*
X79870466Y-68864609D01*
X79775228Y-68816990D01*
X79584752Y-68769371D01*
X79489514Y-68721752D01*
X79441895Y-68674133D01*
X79394276Y-68578895D01*
X79394276Y-68483657D01*
X79441895Y-68388419D01*
X79489514Y-68340800D01*
X79584752Y-68293180D01*
X79822847Y-68293180D01*
X79965704Y-68340800D01*
X80299038Y-68293180D02*
X80537133Y-69293180D01*
X80727609Y-68578895D01*
X80918085Y-69293180D01*
X81156180Y-68293180D01*
X82060942Y-69293180D02*
X81489514Y-69293180D01*
X81775228Y-69293180D02*
X81775228Y-68293180D01*
X81679990Y-68436038D01*
X81584752Y-68531276D01*
X81489514Y-68578895D01*
X82394276Y-68293180D02*
X83060942Y-68293180D01*
X82632371Y-69293180D01*
X109391676Y-60761961D02*
X109534533Y-60809580D01*
X109772628Y-60809580D01*
X109867866Y-60761961D01*
X109915485Y-60714342D01*
X109963104Y-60619104D01*
X109963104Y-60523866D01*
X109915485Y-60428628D01*
X109867866Y-60381009D01*
X109772628Y-60333390D01*
X109582152Y-60285771D01*
X109486914Y-60238152D01*
X109439295Y-60190533D01*
X109391676Y-60095295D01*
X109391676Y-60000057D01*
X109439295Y-59904819D01*
X109486914Y-59857200D01*
X109582152Y-59809580D01*
X109820247Y-59809580D01*
X109963104Y-59857200D01*
X110296438Y-59809580D02*
X110534533Y-60809580D01*
X110725009Y-60095295D01*
X110915485Y-60809580D01*
X111153580Y-59809580D01*
X112058342Y-60809580D02*
X111486914Y-60809580D01*
X111772628Y-60809580D02*
X111772628Y-59809580D01*
X111677390Y-59952438D01*
X111582152Y-60047676D01*
X111486914Y-60095295D01*
X112915485Y-59809580D02*
X112725009Y-59809580D01*
X112629771Y-59857200D01*
X112582152Y-59904819D01*
X112486914Y-60047676D01*
X112439295Y-60238152D01*
X112439295Y-60619104D01*
X112486914Y-60714342D01*
X112534533Y-60761961D01*
X112629771Y-60809580D01*
X112820247Y-60809580D01*
X112915485Y-60761961D01*
X112963104Y-60714342D01*
X113010723Y-60619104D01*
X113010723Y-60381009D01*
X112963104Y-60285771D01*
X112915485Y-60238152D01*
X112820247Y-60190533D01*
X112629771Y-60190533D01*
X112534533Y-60238152D01*
X112486914Y-60285771D01*
X112439295Y-60381009D01*
X99384076Y-60761961D02*
X99526933Y-60809580D01*
X99765028Y-60809580D01*
X99860266Y-60761961D01*
X99907885Y-60714342D01*
X99955504Y-60619104D01*
X99955504Y-60523866D01*
X99907885Y-60428628D01*
X99860266Y-60381009D01*
X99765028Y-60333390D01*
X99574552Y-60285771D01*
X99479314Y-60238152D01*
X99431695Y-60190533D01*
X99384076Y-60095295D01*
X99384076Y-60000057D01*
X99431695Y-59904819D01*
X99479314Y-59857200D01*
X99574552Y-59809580D01*
X99812647Y-59809580D01*
X99955504Y-59857200D01*
X100288838Y-59809580D02*
X100526933Y-60809580D01*
X100717409Y-60095295D01*
X100907885Y-60809580D01*
X101145980Y-59809580D01*
X102050742Y-60809580D02*
X101479314Y-60809580D01*
X101765028Y-60809580D02*
X101765028Y-59809580D01*
X101669790Y-59952438D01*
X101574552Y-60047676D01*
X101479314Y-60095295D01*
X102955504Y-59809580D02*
X102479314Y-59809580D01*
X102431695Y-60285771D01*
X102479314Y-60238152D01*
X102574552Y-60190533D01*
X102812647Y-60190533D01*
X102907885Y-60238152D01*
X102955504Y-60285771D01*
X103003123Y-60381009D01*
X103003123Y-60619104D01*
X102955504Y-60714342D01*
X102907885Y-60761961D01*
X102812647Y-60809580D01*
X102574552Y-60809580D01*
X102479314Y-60761961D01*
X102431695Y-60714342D01*
X89376476Y-60761961D02*
X89519333Y-60809580D01*
X89757428Y-60809580D01*
X89852666Y-60761961D01*
X89900285Y-60714342D01*
X89947904Y-60619104D01*
X89947904Y-60523866D01*
X89900285Y-60428628D01*
X89852666Y-60381009D01*
X89757428Y-60333390D01*
X89566952Y-60285771D01*
X89471714Y-60238152D01*
X89424095Y-60190533D01*
X89376476Y-60095295D01*
X89376476Y-60000057D01*
X89424095Y-59904819D01*
X89471714Y-59857200D01*
X89566952Y-59809580D01*
X89805047Y-59809580D01*
X89947904Y-59857200D01*
X90281238Y-59809580D02*
X90519333Y-60809580D01*
X90709809Y-60095295D01*
X90900285Y-60809580D01*
X91138380Y-59809580D01*
X92043142Y-60809580D02*
X91471714Y-60809580D01*
X91757428Y-60809580D02*
X91757428Y-59809580D01*
X91662190Y-59952438D01*
X91566952Y-60047676D01*
X91471714Y-60095295D01*
X92900285Y-60142914D02*
X92900285Y-60809580D01*
X92662190Y-59761961D02*
X92424095Y-60476247D01*
X93043142Y-60476247D01*
X79394276Y-60761961D02*
X79537133Y-60809580D01*
X79775228Y-60809580D01*
X79870466Y-60761961D01*
X79918085Y-60714342D01*
X79965704Y-60619104D01*
X79965704Y-60523866D01*
X79918085Y-60428628D01*
X79870466Y-60381009D01*
X79775228Y-60333390D01*
X79584752Y-60285771D01*
X79489514Y-60238152D01*
X79441895Y-60190533D01*
X79394276Y-60095295D01*
X79394276Y-60000057D01*
X79441895Y-59904819D01*
X79489514Y-59857200D01*
X79584752Y-59809580D01*
X79822847Y-59809580D01*
X79965704Y-59857200D01*
X80299038Y-59809580D02*
X80537133Y-60809580D01*
X80727609Y-60095295D01*
X80918085Y-60809580D01*
X81156180Y-59809580D01*
X82060942Y-60809580D02*
X81489514Y-60809580D01*
X81775228Y-60809580D02*
X81775228Y-59809580D01*
X81679990Y-59952438D01*
X81584752Y-60047676D01*
X81489514Y-60095295D01*
X82394276Y-59809580D02*
X83013323Y-59809580D01*
X82679990Y-60190533D01*
X82822847Y-60190533D01*
X82918085Y-60238152D01*
X82965704Y-60285771D01*
X83013323Y-60381009D01*
X83013323Y-60619104D01*
X82965704Y-60714342D01*
X82918085Y-60761961D01*
X82822847Y-60809580D01*
X82537133Y-60809580D01*
X82441895Y-60761961D01*
X82394276Y-60714342D01*
X109391676Y-52252961D02*
X109534533Y-52300580D01*
X109772628Y-52300580D01*
X109867866Y-52252961D01*
X109915485Y-52205342D01*
X109963104Y-52110104D01*
X109963104Y-52014866D01*
X109915485Y-51919628D01*
X109867866Y-51872009D01*
X109772628Y-51824390D01*
X109582152Y-51776771D01*
X109486914Y-51729152D01*
X109439295Y-51681533D01*
X109391676Y-51586295D01*
X109391676Y-51491057D01*
X109439295Y-51395819D01*
X109486914Y-51348200D01*
X109582152Y-51300580D01*
X109820247Y-51300580D01*
X109963104Y-51348200D01*
X110296438Y-51300580D02*
X110534533Y-52300580D01*
X110725009Y-51586295D01*
X110915485Y-52300580D01*
X111153580Y-51300580D01*
X112058342Y-52300580D02*
X111486914Y-52300580D01*
X111772628Y-52300580D02*
X111772628Y-51300580D01*
X111677390Y-51443438D01*
X111582152Y-51538676D01*
X111486914Y-51586295D01*
X112439295Y-51395819D02*
X112486914Y-51348200D01*
X112582152Y-51300580D01*
X112820247Y-51300580D01*
X112915485Y-51348200D01*
X112963104Y-51395819D01*
X113010723Y-51491057D01*
X113010723Y-51586295D01*
X112963104Y-51729152D01*
X112391676Y-52300580D01*
X113010723Y-52300580D01*
X99384076Y-52227561D02*
X99526933Y-52275180D01*
X99765028Y-52275180D01*
X99860266Y-52227561D01*
X99907885Y-52179942D01*
X99955504Y-52084704D01*
X99955504Y-51989466D01*
X99907885Y-51894228D01*
X99860266Y-51846609D01*
X99765028Y-51798990D01*
X99574552Y-51751371D01*
X99479314Y-51703752D01*
X99431695Y-51656133D01*
X99384076Y-51560895D01*
X99384076Y-51465657D01*
X99431695Y-51370419D01*
X99479314Y-51322800D01*
X99574552Y-51275180D01*
X99812647Y-51275180D01*
X99955504Y-51322800D01*
X100288838Y-51275180D02*
X100526933Y-52275180D01*
X100717409Y-51560895D01*
X100907885Y-52275180D01*
X101145980Y-51275180D01*
X102050742Y-52275180D02*
X101479314Y-52275180D01*
X101765028Y-52275180D02*
X101765028Y-51275180D01*
X101669790Y-51418038D01*
X101574552Y-51513276D01*
X101479314Y-51560895D01*
X103003123Y-52275180D02*
X102431695Y-52275180D01*
X102717409Y-52275180D02*
X102717409Y-51275180D01*
X102622171Y-51418038D01*
X102526933Y-51513276D01*
X102431695Y-51560895D01*
X89376476Y-52227561D02*
X89519333Y-52275180D01*
X89757428Y-52275180D01*
X89852666Y-52227561D01*
X89900285Y-52179942D01*
X89947904Y-52084704D01*
X89947904Y-51989466D01*
X89900285Y-51894228D01*
X89852666Y-51846609D01*
X89757428Y-51798990D01*
X89566952Y-51751371D01*
X89471714Y-51703752D01*
X89424095Y-51656133D01*
X89376476Y-51560895D01*
X89376476Y-51465657D01*
X89424095Y-51370419D01*
X89471714Y-51322800D01*
X89566952Y-51275180D01*
X89805047Y-51275180D01*
X89947904Y-51322800D01*
X90281238Y-51275180D02*
X90519333Y-52275180D01*
X90709809Y-51560895D01*
X90900285Y-52275180D01*
X91138380Y-51275180D01*
X92043142Y-52275180D02*
X91471714Y-52275180D01*
X91757428Y-52275180D02*
X91757428Y-51275180D01*
X91662190Y-51418038D01*
X91566952Y-51513276D01*
X91471714Y-51560895D01*
X92662190Y-51275180D02*
X92757428Y-51275180D01*
X92852666Y-51322800D01*
X92900285Y-51370419D01*
X92947904Y-51465657D01*
X92995523Y-51656133D01*
X92995523Y-51894228D01*
X92947904Y-52084704D01*
X92900285Y-52179942D01*
X92852666Y-52227561D01*
X92757428Y-52275180D01*
X92662190Y-52275180D01*
X92566952Y-52227561D01*
X92519333Y-52179942D01*
X92471714Y-52084704D01*
X92424095Y-51894228D01*
X92424095Y-51656133D01*
X92471714Y-51465657D01*
X92519333Y-51370419D01*
X92566952Y-51322800D01*
X92662190Y-51275180D01*
X79870466Y-52227561D02*
X80013323Y-52275180D01*
X80251419Y-52275180D01*
X80346657Y-52227561D01*
X80394276Y-52179942D01*
X80441895Y-52084704D01*
X80441895Y-51989466D01*
X80394276Y-51894228D01*
X80346657Y-51846609D01*
X80251419Y-51798990D01*
X80060942Y-51751371D01*
X79965704Y-51703752D01*
X79918085Y-51656133D01*
X79870466Y-51560895D01*
X79870466Y-51465657D01*
X79918085Y-51370419D01*
X79965704Y-51322800D01*
X80060942Y-51275180D01*
X80299038Y-51275180D01*
X80441895Y-51322800D01*
X80775228Y-51275180D02*
X81013323Y-52275180D01*
X81203800Y-51560895D01*
X81394276Y-52275180D01*
X81632371Y-51275180D01*
X82060942Y-52275180D02*
X82251419Y-52275180D01*
X82346657Y-52227561D01*
X82394276Y-52179942D01*
X82489514Y-52037085D01*
X82537133Y-51846609D01*
X82537133Y-51465657D01*
X82489514Y-51370419D01*
X82441895Y-51322800D01*
X82346657Y-51275180D01*
X82156180Y-51275180D01*
X82060942Y-51322800D01*
X82013323Y-51370419D01*
X81965704Y-51465657D01*
X81965704Y-51703752D01*
X82013323Y-51798990D01*
X82060942Y-51846609D01*
X82156180Y-51894228D01*
X82346657Y-51894228D01*
X82441895Y-51846609D01*
X82489514Y-51798990D01*
X82537133Y-51703752D01*
X109867866Y-43769361D02*
X110010723Y-43816980D01*
X110248819Y-43816980D01*
X110344057Y-43769361D01*
X110391676Y-43721742D01*
X110439295Y-43626504D01*
X110439295Y-43531266D01*
X110391676Y-43436028D01*
X110344057Y-43388409D01*
X110248819Y-43340790D01*
X110058342Y-43293171D01*
X109963104Y-43245552D01*
X109915485Y-43197933D01*
X109867866Y-43102695D01*
X109867866Y-43007457D01*
X109915485Y-42912219D01*
X109963104Y-42864600D01*
X110058342Y-42816980D01*
X110296438Y-42816980D01*
X110439295Y-42864600D01*
X110772628Y-42816980D02*
X111010723Y-43816980D01*
X111201200Y-43102695D01*
X111391676Y-43816980D01*
X111629771Y-42816980D01*
X112153580Y-43245552D02*
X112058342Y-43197933D01*
X112010723Y-43150314D01*
X111963104Y-43055076D01*
X111963104Y-43007457D01*
X112010723Y-42912219D01*
X112058342Y-42864600D01*
X112153580Y-42816980D01*
X112344057Y-42816980D01*
X112439295Y-42864600D01*
X112486914Y-42912219D01*
X112534533Y-43007457D01*
X112534533Y-43055076D01*
X112486914Y-43150314D01*
X112439295Y-43197933D01*
X112344057Y-43245552D01*
X112153580Y-43245552D01*
X112058342Y-43293171D01*
X112010723Y-43340790D01*
X111963104Y-43436028D01*
X111963104Y-43626504D01*
X112010723Y-43721742D01*
X112058342Y-43769361D01*
X112153580Y-43816980D01*
X112344057Y-43816980D01*
X112439295Y-43769361D01*
X112486914Y-43721742D01*
X112534533Y-43626504D01*
X112534533Y-43436028D01*
X112486914Y-43340790D01*
X112439295Y-43293171D01*
X112344057Y-43245552D01*
X99860266Y-43743961D02*
X100003123Y-43791580D01*
X100241219Y-43791580D01*
X100336457Y-43743961D01*
X100384076Y-43696342D01*
X100431695Y-43601104D01*
X100431695Y-43505866D01*
X100384076Y-43410628D01*
X100336457Y-43363009D01*
X100241219Y-43315390D01*
X100050742Y-43267771D01*
X99955504Y-43220152D01*
X99907885Y-43172533D01*
X99860266Y-43077295D01*
X99860266Y-42982057D01*
X99907885Y-42886819D01*
X99955504Y-42839200D01*
X100050742Y-42791580D01*
X100288838Y-42791580D01*
X100431695Y-42839200D01*
X100765028Y-42791580D02*
X101003123Y-43791580D01*
X101193600Y-43077295D01*
X101384076Y-43791580D01*
X101622171Y-42791580D01*
X101907885Y-42791580D02*
X102574552Y-42791580D01*
X102145980Y-43791580D01*
X89852666Y-43718561D02*
X89995523Y-43766180D01*
X90233619Y-43766180D01*
X90328857Y-43718561D01*
X90376476Y-43670942D01*
X90424095Y-43575704D01*
X90424095Y-43480466D01*
X90376476Y-43385228D01*
X90328857Y-43337609D01*
X90233619Y-43289990D01*
X90043142Y-43242371D01*
X89947904Y-43194752D01*
X89900285Y-43147133D01*
X89852666Y-43051895D01*
X89852666Y-42956657D01*
X89900285Y-42861419D01*
X89947904Y-42813800D01*
X90043142Y-42766180D01*
X90281238Y-42766180D01*
X90424095Y-42813800D01*
X90757428Y-42766180D02*
X90995523Y-43766180D01*
X91186000Y-43051895D01*
X91376476Y-43766180D01*
X91614571Y-42766180D01*
X92424095Y-42766180D02*
X92233619Y-42766180D01*
X92138380Y-42813800D01*
X92090761Y-42861419D01*
X91995523Y-43004276D01*
X91947904Y-43194752D01*
X91947904Y-43575704D01*
X91995523Y-43670942D01*
X92043142Y-43718561D01*
X92138380Y-43766180D01*
X92328857Y-43766180D01*
X92424095Y-43718561D01*
X92471714Y-43670942D01*
X92519333Y-43575704D01*
X92519333Y-43337609D01*
X92471714Y-43242371D01*
X92424095Y-43194752D01*
X92328857Y-43147133D01*
X92138380Y-43147133D01*
X92043142Y-43194752D01*
X91995523Y-43242371D01*
X91947904Y-43337609D01*
X79870466Y-43743961D02*
X80013323Y-43791580D01*
X80251419Y-43791580D01*
X80346657Y-43743961D01*
X80394276Y-43696342D01*
X80441895Y-43601104D01*
X80441895Y-43505866D01*
X80394276Y-43410628D01*
X80346657Y-43363009D01*
X80251419Y-43315390D01*
X80060942Y-43267771D01*
X79965704Y-43220152D01*
X79918085Y-43172533D01*
X79870466Y-43077295D01*
X79870466Y-42982057D01*
X79918085Y-42886819D01*
X79965704Y-42839200D01*
X80060942Y-42791580D01*
X80299038Y-42791580D01*
X80441895Y-42839200D01*
X80775228Y-42791580D02*
X81013323Y-43791580D01*
X81203800Y-43077295D01*
X81394276Y-43791580D01*
X81632371Y-42791580D01*
X82489514Y-42791580D02*
X82013323Y-42791580D01*
X81965704Y-43267771D01*
X82013323Y-43220152D01*
X82108561Y-43172533D01*
X82346657Y-43172533D01*
X82441895Y-43220152D01*
X82489514Y-43267771D01*
X82537133Y-43363009D01*
X82537133Y-43601104D01*
X82489514Y-43696342D01*
X82441895Y-43743961D01*
X82346657Y-43791580D01*
X82108561Y-43791580D01*
X82013323Y-43743961D01*
X81965704Y-43696342D01*
X109867866Y-35260361D02*
X110010723Y-35307980D01*
X110248819Y-35307980D01*
X110344057Y-35260361D01*
X110391676Y-35212742D01*
X110439295Y-35117504D01*
X110439295Y-35022266D01*
X110391676Y-34927028D01*
X110344057Y-34879409D01*
X110248819Y-34831790D01*
X110058342Y-34784171D01*
X109963104Y-34736552D01*
X109915485Y-34688933D01*
X109867866Y-34593695D01*
X109867866Y-34498457D01*
X109915485Y-34403219D01*
X109963104Y-34355600D01*
X110058342Y-34307980D01*
X110296438Y-34307980D01*
X110439295Y-34355600D01*
X110772628Y-34307980D02*
X111010723Y-35307980D01*
X111201200Y-34593695D01*
X111391676Y-35307980D01*
X111629771Y-34307980D01*
X112439295Y-34641314D02*
X112439295Y-35307980D01*
X112201200Y-34260361D02*
X111963104Y-34974647D01*
X112582152Y-34974647D01*
X99860266Y-35260361D02*
X100003123Y-35307980D01*
X100241219Y-35307980D01*
X100336457Y-35260361D01*
X100384076Y-35212742D01*
X100431695Y-35117504D01*
X100431695Y-35022266D01*
X100384076Y-34927028D01*
X100336457Y-34879409D01*
X100241219Y-34831790D01*
X100050742Y-34784171D01*
X99955504Y-34736552D01*
X99907885Y-34688933D01*
X99860266Y-34593695D01*
X99860266Y-34498457D01*
X99907885Y-34403219D01*
X99955504Y-34355600D01*
X100050742Y-34307980D01*
X100288838Y-34307980D01*
X100431695Y-34355600D01*
X100765028Y-34307980D02*
X101003123Y-35307980D01*
X101193600Y-34593695D01*
X101384076Y-35307980D01*
X101622171Y-34307980D01*
X101907885Y-34307980D02*
X102526933Y-34307980D01*
X102193600Y-34688933D01*
X102336457Y-34688933D01*
X102431695Y-34736552D01*
X102479314Y-34784171D01*
X102526933Y-34879409D01*
X102526933Y-35117504D01*
X102479314Y-35212742D01*
X102431695Y-35260361D01*
X102336457Y-35307980D01*
X102050742Y-35307980D01*
X101955504Y-35260361D01*
X101907885Y-35212742D01*
X89852666Y-35260361D02*
X89995523Y-35307980D01*
X90233619Y-35307980D01*
X90328857Y-35260361D01*
X90376476Y-35212742D01*
X90424095Y-35117504D01*
X90424095Y-35022266D01*
X90376476Y-34927028D01*
X90328857Y-34879409D01*
X90233619Y-34831790D01*
X90043142Y-34784171D01*
X89947904Y-34736552D01*
X89900285Y-34688933D01*
X89852666Y-34593695D01*
X89852666Y-34498457D01*
X89900285Y-34403219D01*
X89947904Y-34355600D01*
X90043142Y-34307980D01*
X90281238Y-34307980D01*
X90424095Y-34355600D01*
X90757428Y-34307980D02*
X90995523Y-35307980D01*
X91186000Y-34593695D01*
X91376476Y-35307980D01*
X91614571Y-34307980D01*
X91947904Y-34403219D02*
X91995523Y-34355600D01*
X92090761Y-34307980D01*
X92328857Y-34307980D01*
X92424095Y-34355600D01*
X92471714Y-34403219D01*
X92519333Y-34498457D01*
X92519333Y-34593695D01*
X92471714Y-34736552D01*
X91900285Y-35307980D01*
X92519333Y-35307980D01*
X79870466Y-35260361D02*
X80013323Y-35307980D01*
X80251419Y-35307980D01*
X80346657Y-35260361D01*
X80394276Y-35212742D01*
X80441895Y-35117504D01*
X80441895Y-35022266D01*
X80394276Y-34927028D01*
X80346657Y-34879409D01*
X80251419Y-34831790D01*
X80060942Y-34784171D01*
X79965704Y-34736552D01*
X79918085Y-34688933D01*
X79870466Y-34593695D01*
X79870466Y-34498457D01*
X79918085Y-34403219D01*
X79965704Y-34355600D01*
X80060942Y-34307980D01*
X80299038Y-34307980D01*
X80441895Y-34355600D01*
X80775228Y-34307980D02*
X81013323Y-35307980D01*
X81203800Y-34593695D01*
X81394276Y-35307980D01*
X81632371Y-34307980D01*
X82537133Y-35307980D02*
X81965704Y-35307980D01*
X82251419Y-35307980D02*
X82251419Y-34307980D01*
X82156180Y-34450838D01*
X82060942Y-34546076D01*
X81965704Y-34593695D01*
D16*
X94169522Y-122766666D02*
X94169522Y-123371428D01*
X92899522Y-123371428D01*
X94169522Y-121678095D02*
X94169522Y-122403809D01*
X94169522Y-122040952D02*
X92899522Y-122040952D01*
X93080951Y-122161904D01*
X93201903Y-122282857D01*
X93262379Y-122403809D01*
D11*
X93547142Y-126626666D02*
X93594761Y-126674285D01*
X93642380Y-126817142D01*
X93642380Y-126912380D01*
X93594761Y-127055238D01*
X93499523Y-127150476D01*
X93404285Y-127198095D01*
X93213809Y-127245714D01*
X93070952Y-127245714D01*
X92880476Y-127198095D01*
X92785238Y-127150476D01*
X92690000Y-127055238D01*
X92642380Y-126912380D01*
X92642380Y-126817142D01*
X92690000Y-126674285D01*
X92737619Y-126626666D01*
X92975714Y-125769523D02*
X93642380Y-125769523D01*
X92594761Y-126007619D02*
X93309047Y-126245714D01*
X93309047Y-125626666D01*
X103707142Y-126626666D02*
X103754761Y-126674285D01*
X103802380Y-126817142D01*
X103802380Y-126912380D01*
X103754761Y-127055238D01*
X103659523Y-127150476D01*
X103564285Y-127198095D01*
X103373809Y-127245714D01*
X103230952Y-127245714D01*
X103040476Y-127198095D01*
X102945238Y-127150476D01*
X102850000Y-127055238D01*
X102802380Y-126912380D01*
X102802380Y-126817142D01*
X102850000Y-126674285D01*
X102897619Y-126626666D01*
X102802380Y-125721904D02*
X102802380Y-126198095D01*
X103278571Y-126245714D01*
X103230952Y-126198095D01*
X103183333Y-126102857D01*
X103183333Y-125864761D01*
X103230952Y-125769523D01*
X103278571Y-125721904D01*
X103373809Y-125674285D01*
X103611904Y-125674285D01*
X103707142Y-125721904D01*
X103754761Y-125769523D01*
X103802380Y-125864761D01*
X103802380Y-126102857D01*
X103754761Y-126198095D01*
X103707142Y-126245714D01*
D16*
X95280238Y-131384523D02*
X95280238Y-130114523D01*
X96610714Y-131263571D02*
X96550238Y-131324047D01*
X96368809Y-131384523D01*
X96247857Y-131384523D01*
X96066428Y-131324047D01*
X95945476Y-131203095D01*
X95885000Y-131082142D01*
X95824523Y-130840238D01*
X95824523Y-130658809D01*
X95885000Y-130416904D01*
X95945476Y-130295952D01*
X96066428Y-130175000D01*
X96247857Y-130114523D01*
X96368809Y-130114523D01*
X96550238Y-130175000D01*
X96610714Y-130235476D01*
X97820238Y-131384523D02*
X97094523Y-131384523D01*
X97457380Y-131384523D02*
X97457380Y-130114523D01*
X97336428Y-130295952D01*
X97215476Y-130416904D01*
X97094523Y-130477380D01*
D11*
X86661666Y-132377380D02*
X86661666Y-133091666D01*
X86614047Y-133234523D01*
X86518809Y-133329761D01*
X86375952Y-133377380D01*
X86280714Y-133377380D01*
X87090238Y-132472619D02*
X87137857Y-132425000D01*
X87233095Y-132377380D01*
X87471190Y-132377380D01*
X87566428Y-132425000D01*
X87614047Y-132472619D01*
X87661666Y-132567857D01*
X87661666Y-132663095D01*
X87614047Y-132805952D01*
X87042619Y-133377380D01*
X87661666Y-133377380D01*
X108251666Y-132377380D02*
X108251666Y-133091666D01*
X108204047Y-133234523D01*
X108108809Y-133329761D01*
X107965952Y-133377380D01*
X107870714Y-133377380D01*
X108632619Y-132377380D02*
X109251666Y-132377380D01*
X108918333Y-132758333D01*
X109061190Y-132758333D01*
X109156428Y-132805952D01*
X109204047Y-132853571D01*
X109251666Y-132948809D01*
X109251666Y-133186904D01*
X109204047Y-133282142D01*
X109156428Y-133329761D01*
X109061190Y-133377380D01*
X108775476Y-133377380D01*
X108680238Y-133329761D01*
X108632619Y-133282142D01*
M02*
