G04 #@! TF.GenerationSoftware,KiCad,Pcbnew,(5.1.0)-1*
G04 #@! TF.CreationDate,2019-03-25T17:59:43+01:00*
G04 #@! TF.ProjectId,jvc_remote,6a76635f-7265-46d6-9f74-652e6b696361,rev?*
G04 #@! TF.SameCoordinates,Original*
G04 #@! TF.FileFunction,Copper,L2,Bot*
G04 #@! TF.FilePolarity,Positive*
%FSLAX46Y46*%
G04 Gerber Fmt 4.6, Leading zero omitted, Abs format (unit mm)*
G04 Created by KiCad (PCBNEW (5.1.0)-1) date 2019-03-25 17:59:43*
%MOMM*%
%LPD*%
G04 APERTURE LIST*
%ADD10C,0.050000*%
%ADD11C,2.000000*%
%ADD12R,1.500000X0.600000*%
%ADD13R,0.600000X1.500000*%
%ADD14R,1.900000X0.800000*%
%ADD15R,3.150000X1.000000*%
%ADD16R,1.600000X2.000000*%
%ADD17R,2.000000X1.600000*%
%ADD18R,1.800000X1.800000*%
%ADD19C,1.800000*%
%ADD20R,1.700000X2.000000*%
%ADD21R,2.000000X1.700000*%
%ADD22R,5.600000X2.100000*%
%ADD23R,1.700000X1.700000*%
%ADD24C,0.800000*%
%ADD25C,0.250000*%
%ADD26C,0.254000*%
G04 APERTURE END LIST*
D10*
X76200000Y-139700000D02*
X76200000Y-33655000D01*
X116205000Y-139700000D02*
X76200000Y-139700000D01*
X116205000Y-33655000D02*
X116205000Y-139700000D01*
X76200000Y-33655000D02*
X116205000Y-33655000D01*
D11*
X96210000Y-93700000D03*
D12*
X92270000Y-58160000D03*
X92270000Y-58960000D03*
X92270000Y-59760000D03*
X92270000Y-60560000D03*
X92270000Y-61360000D03*
X92270000Y-62160000D03*
X92270000Y-62960000D03*
X92270000Y-63760000D03*
D13*
X93720000Y-65210000D03*
X94520000Y-65210000D03*
X95320000Y-65210000D03*
X96120000Y-65210000D03*
X96920000Y-65210000D03*
X97720000Y-65210000D03*
X98520000Y-65210000D03*
X99320000Y-65210000D03*
D12*
X100770000Y-63760000D03*
X100770000Y-62960000D03*
X100770000Y-62160000D03*
X100770000Y-61360000D03*
X100770000Y-60560000D03*
X100770000Y-59760000D03*
X100770000Y-58960000D03*
X100770000Y-58160000D03*
D13*
X99320000Y-56710000D03*
X98520000Y-56710000D03*
X97720000Y-56710000D03*
X96920000Y-56710000D03*
X96120000Y-56710000D03*
X95320000Y-56710000D03*
X94520000Y-56710000D03*
X93720000Y-56710000D03*
D14*
X92940000Y-37465000D03*
X89940000Y-36515000D03*
X89940000Y-38415000D03*
D15*
X106695000Y-65405000D03*
X111745000Y-65405000D03*
X106695000Y-62865000D03*
X111745000Y-62865000D03*
X106695000Y-60325000D03*
X111745000Y-60325000D03*
D16*
X100965000Y-74200000D03*
X100965000Y-78200000D03*
D17*
X89980000Y-44450000D03*
X93980000Y-44450000D03*
X104140000Y-44450000D03*
X100140000Y-44450000D03*
D18*
X95224600Y-34848800D03*
D19*
X97764600Y-34848800D03*
D20*
X85090000Y-61690000D03*
X85090000Y-57690000D03*
D21*
X104965000Y-36830000D03*
X100965000Y-36830000D03*
X85280000Y-37465000D03*
X81280000Y-37465000D03*
D22*
X103810000Y-48895000D03*
X94310000Y-48895000D03*
D23*
X86995000Y-135255000D03*
X108585000Y-135255000D03*
D24*
X92075000Y-34925000D03*
X96520000Y-43180000D03*
X112395000Y-57150000D03*
X101600000Y-121285000D03*
X81915000Y-59690000D03*
X90805000Y-67945000D03*
X89535000Y-69215000D03*
X97790000Y-69305000D03*
X95885000Y-62865000D03*
X99605000Y-71755000D03*
X101600000Y-71755000D03*
X103505000Y-60325000D03*
X78105000Y-38735000D03*
X78103800Y-34926200D03*
X87630000Y-38735000D03*
X97790000Y-38735000D03*
X107950000Y-38735000D03*
X78105000Y-43180000D03*
X78103800Y-51436200D03*
X78105000Y-60325000D03*
X78105000Y-68580000D03*
X78103800Y-77471200D03*
X78129200Y-85749200D03*
X78105000Y-94615000D03*
X78105000Y-102870000D03*
X78105000Y-111125000D03*
D25*
X96120000Y-65210000D02*
X96120000Y-66275000D01*
X96120000Y-66275000D02*
X96520000Y-66675000D01*
X96520000Y-66675000D02*
X96520000Y-67310000D01*
X96920000Y-62903002D02*
X96920000Y-57710000D01*
X96120000Y-63703002D02*
X96920000Y-62903002D01*
X96120000Y-65210000D02*
X96120000Y-63703002D01*
X95320000Y-57710000D02*
X95320000Y-56710000D01*
X95395001Y-57785001D02*
X95320000Y-57710000D01*
X96844999Y-57785001D02*
X95395001Y-57785001D01*
X96920000Y-57710000D02*
X96844999Y-57785001D01*
X96920000Y-56710000D02*
X96920000Y-57710000D01*
X89940000Y-35865000D02*
X90880000Y-34925000D01*
X89940000Y-36515000D02*
X89940000Y-35865000D01*
X90880000Y-34925000D02*
X91440000Y-34925000D01*
X91440000Y-34925000D02*
X92075000Y-34925000D01*
X95320000Y-55710000D02*
X95250000Y-55640000D01*
X95320000Y-56710000D02*
X95320000Y-55710000D01*
X95250000Y-55640000D02*
X95250000Y-53975000D01*
X111745000Y-59575000D02*
X112395000Y-58925000D01*
X111745000Y-60325000D02*
X111745000Y-59575000D01*
X112395000Y-58925000D02*
X112395000Y-57150000D01*
X101600000Y-121285000D02*
X98520000Y-118205000D01*
X96920000Y-64210000D02*
X96920000Y-65210000D01*
X96995001Y-64134999D02*
X96920000Y-64210000D01*
X98444999Y-64134999D02*
X96995001Y-64134999D01*
X98520000Y-64210000D02*
X98444999Y-64134999D01*
X97720000Y-63410000D02*
X97720000Y-57710000D01*
X98520000Y-64210000D02*
X97720000Y-63410000D01*
X98520000Y-65210000D02*
X98520000Y-64210000D01*
X97720000Y-57710000D02*
X97644999Y-57785001D01*
X97720000Y-56710000D02*
X97720000Y-57710000D01*
X85090000Y-57690000D02*
X85090000Y-57540000D01*
X98520000Y-65210000D02*
X98520000Y-66210000D01*
X98520000Y-66210000D02*
X102795000Y-70485000D01*
X102795000Y-70485000D02*
X113030000Y-70485000D01*
X113030000Y-70485000D02*
X115570000Y-67945000D01*
X113535000Y-67945000D02*
X115570000Y-67945000D01*
X111745000Y-66155000D02*
X113535000Y-67945000D01*
X111745000Y-65405000D02*
X111745000Y-66155000D01*
X115570000Y-67945000D02*
X115570000Y-44280000D01*
X104965000Y-36830000D02*
X110490000Y-36830000D01*
X115570000Y-41910000D02*
X115570000Y-44280000D01*
X110490000Y-36830000D02*
X115570000Y-41910000D01*
X89535000Y-69215000D02*
X90805000Y-67945000D01*
X85090000Y-57840000D02*
X83240000Y-59690000D01*
X83240000Y-59690000D02*
X81915000Y-59690000D01*
X85090000Y-57690000D02*
X85090000Y-57840000D01*
X98520000Y-68675000D02*
X98520000Y-65210000D01*
X98520000Y-73155000D02*
X98520000Y-72295000D01*
X97795000Y-69310000D02*
X97790000Y-69305000D01*
X98520000Y-69310000D02*
X97795000Y-69310000D01*
X98520000Y-69310000D02*
X98520000Y-68675000D01*
X98520000Y-72295000D02*
X98520000Y-69310000D01*
X99600000Y-74200000D02*
X100965000Y-74200000D01*
X98520000Y-73120000D02*
X99600000Y-74200000D01*
X98520000Y-73120000D02*
X98520000Y-72295000D01*
X98520000Y-118205000D02*
X98520000Y-73120000D01*
X96120000Y-55710000D02*
X96120000Y-56710000D01*
X96195001Y-55634999D02*
X96120000Y-55710000D01*
X97644999Y-55634999D02*
X96195001Y-55634999D01*
X97720000Y-55710000D02*
X97644999Y-55634999D01*
X97720000Y-56710000D02*
X97720000Y-55710000D01*
X98520000Y-55710000D02*
X98520000Y-56710000D01*
X98520000Y-53590000D02*
X98520000Y-55710000D01*
X93825000Y-48895000D02*
X98520000Y-53590000D01*
X92075000Y-48895000D02*
X93825000Y-48895000D01*
X89980000Y-46800000D02*
X92075000Y-48895000D01*
X89980000Y-44450000D02*
X89980000Y-46800000D01*
X99870000Y-56710000D02*
X99320000Y-56710000D01*
X101575000Y-55005000D02*
X99870000Y-56710000D01*
X101575000Y-48895000D02*
X101575000Y-55005000D01*
X100140000Y-47460000D02*
X101575000Y-48895000D01*
X100140000Y-44450000D02*
X100140000Y-47460000D01*
X99745800Y-36830000D02*
X100965000Y-36830000D01*
X97764600Y-34848800D02*
X99745800Y-36830000D01*
X94513400Y-35560000D02*
X95224600Y-34848800D01*
X94906200Y-34848800D02*
X95224600Y-34848800D01*
X92940000Y-36815000D02*
X94906200Y-34848800D01*
X92940000Y-37465000D02*
X92940000Y-36815000D01*
X91270000Y-60560000D02*
X92270000Y-60560000D01*
X87320000Y-60560000D02*
X91270000Y-60560000D01*
X86190000Y-61690000D02*
X87320000Y-60560000D01*
X85090000Y-61690000D02*
X86190000Y-61690000D01*
X93270000Y-60560000D02*
X95575000Y-62865000D01*
X92270000Y-60560000D02*
X93270000Y-60560000D01*
X95575000Y-62865000D02*
X95885000Y-62865000D01*
X99605000Y-71755000D02*
X101600000Y-71755000D01*
X103505000Y-60325000D02*
X106695000Y-60325000D01*
X101770000Y-62960000D02*
X100770000Y-62960000D01*
X102690001Y-62039999D02*
X101770000Y-62960000D01*
X109094999Y-62039999D02*
X102690001Y-62039999D01*
X109920000Y-62865000D02*
X109094999Y-62039999D01*
X111745000Y-62865000D02*
X109920000Y-62865000D01*
X99870000Y-65210000D02*
X99320000Y-65210000D01*
X106695000Y-62865000D02*
X108520000Y-62865000D01*
X108520000Y-62865000D02*
X109220000Y-63565000D01*
X109220000Y-68580000D02*
X108585000Y-69215000D01*
X108585000Y-69215000D02*
X103875000Y-69215000D01*
X109220000Y-63565000D02*
X109220000Y-68580000D01*
X103875000Y-69215000D02*
X99870000Y-65210000D01*
X100770000Y-64310000D02*
X100770000Y-63760000D01*
X101865000Y-65405000D02*
X100770000Y-64310000D01*
X106695000Y-65405000D02*
X101865000Y-65405000D01*
X89940000Y-37765000D02*
X89940000Y-38415000D01*
X89640000Y-37465000D02*
X89940000Y-37765000D01*
X85280000Y-37465000D02*
X89640000Y-37465000D01*
X93720000Y-55434412D02*
X77379999Y-39094411D01*
X93720000Y-56710000D02*
X93720000Y-55434412D01*
X80030000Y-37465000D02*
X81280000Y-37465000D01*
X78301998Y-37465000D02*
X80030000Y-37465000D01*
X77379999Y-38386999D02*
X78301998Y-37465000D01*
X77379999Y-39094411D02*
X77379999Y-38386999D01*
X78105000Y-38735000D02*
X81280000Y-41910000D01*
X81280000Y-41910000D02*
X106045000Y-41910000D01*
X106045000Y-41910000D02*
X108585000Y-44450000D01*
X100770000Y-57610000D02*
X100770000Y-58160000D01*
X108585000Y-49795000D02*
X100770000Y-57610000D01*
X108585000Y-44450000D02*
X108585000Y-49795000D01*
X78103800Y-34926200D02*
X76835000Y-36195000D01*
X76835000Y-36195000D02*
X76835000Y-41275000D01*
X92270000Y-57610000D02*
X92270000Y-58160000D01*
X92270000Y-56271998D02*
X92270000Y-57610000D01*
X78358011Y-42360009D02*
X92270000Y-56271998D01*
X77920009Y-42360009D02*
X78358011Y-42360009D01*
X76835000Y-41275000D02*
X77920009Y-42360009D01*
X101770000Y-58960000D02*
X100770000Y-58960000D01*
X109035010Y-51694990D02*
X101770000Y-58960000D01*
X109035010Y-44263600D02*
X109035010Y-51694990D01*
X105411410Y-40640000D02*
X109035010Y-44263600D01*
X89535000Y-40640000D02*
X105411410Y-40640000D01*
X87630000Y-38735000D02*
X89535000Y-40640000D01*
X101770000Y-59760000D02*
X100770000Y-59760000D01*
X109485019Y-52044981D02*
X101770000Y-59760000D01*
X109485019Y-44077199D02*
X109485019Y-52044981D01*
X104867821Y-39460001D02*
X109485019Y-44077199D01*
X98515001Y-39460001D02*
X104867821Y-39460001D01*
X97790000Y-38735000D02*
X98515001Y-39460001D01*
X100944999Y-60385001D02*
X100770000Y-60560000D01*
X101781409Y-60385001D02*
X100944999Y-60385001D01*
X110490000Y-51676410D02*
X101781409Y-60385001D01*
X107950000Y-38735000D02*
X110490000Y-41275000D01*
X110490000Y-41275000D02*
X110490000Y-51676410D01*
X91270000Y-58960000D02*
X92270000Y-58960000D01*
X91194999Y-58884999D02*
X91270000Y-58960000D01*
X91194999Y-56269999D02*
X91194999Y-58884999D01*
X78105000Y-43180000D02*
X91194999Y-56269999D01*
X78103800Y-51436200D02*
X84456200Y-51436200D01*
X84456200Y-51436200D02*
X88900000Y-55880000D01*
X91270000Y-59760000D02*
X92270000Y-59760000D01*
X88900000Y-57390000D02*
X91270000Y-59760000D01*
X88900000Y-55880000D02*
X88900000Y-57390000D01*
X91270000Y-61360000D02*
X92270000Y-61360000D01*
X87860000Y-64770000D02*
X91270000Y-61360000D01*
X82550000Y-64770000D02*
X87860000Y-64770000D01*
X78105000Y-60325000D02*
X82550000Y-64770000D01*
X91433590Y-62160000D02*
X92270000Y-62160000D01*
X85013590Y-68580000D02*
X91433590Y-62160000D01*
X78105000Y-68580000D02*
X85013590Y-68580000D01*
X91270000Y-62960000D02*
X92270000Y-62960000D01*
X78103800Y-76126200D02*
X91270000Y-62960000D01*
X78103800Y-77471200D02*
X78103800Y-76126200D01*
X78129200Y-85749200D02*
X78129200Y-79350800D01*
X92270000Y-65210000D02*
X92270000Y-63760000D01*
X78129200Y-79350800D02*
X92270000Y-65210000D01*
X78105000Y-94615000D02*
X81280000Y-91440000D01*
X81280000Y-91440000D02*
X81280000Y-78740000D01*
X93720000Y-66300000D02*
X93720000Y-65210000D01*
X81280000Y-78740000D02*
X93720000Y-66300000D01*
X78105000Y-102870000D02*
X83820000Y-97155000D01*
X94520000Y-66210000D02*
X94520000Y-65210000D01*
X94520000Y-66770000D02*
X94520000Y-66210000D01*
X83820000Y-77470000D02*
X94520000Y-66770000D01*
X83820000Y-97155000D02*
X83820000Y-77470000D01*
X78105000Y-111125000D02*
X85090000Y-104140000D01*
X85090000Y-104140000D02*
X85090000Y-80010000D01*
X95320000Y-69780000D02*
X95320000Y-65210000D01*
X85090000Y-80010000D02*
X95320000Y-69780000D01*
D26*
G36*
X77184030Y-42698833D02*
G01*
X77109774Y-42878102D01*
X77070000Y-43078061D01*
X77070000Y-43281939D01*
X77109774Y-43481898D01*
X77187795Y-43670256D01*
X77301063Y-43839774D01*
X77445226Y-43983937D01*
X77614744Y-44097205D01*
X77803102Y-44175226D01*
X78003061Y-44215000D01*
X78065199Y-44215000D01*
X84529989Y-50679791D01*
X84493533Y-50676200D01*
X84493522Y-50676200D01*
X84456200Y-50672524D01*
X84418878Y-50676200D01*
X78807511Y-50676200D01*
X78763574Y-50632263D01*
X78594056Y-50518995D01*
X78405698Y-50440974D01*
X78205739Y-50401200D01*
X78001861Y-50401200D01*
X77801902Y-50440974D01*
X77613544Y-50518995D01*
X77444026Y-50632263D01*
X77299863Y-50776426D01*
X77186595Y-50945944D01*
X77108574Y-51134302D01*
X77068800Y-51334261D01*
X77068800Y-51538139D01*
X77108574Y-51738098D01*
X77186595Y-51926456D01*
X77299863Y-52095974D01*
X77444026Y-52240137D01*
X77613544Y-52353405D01*
X77801902Y-52431426D01*
X78001861Y-52471200D01*
X78205739Y-52471200D01*
X78405698Y-52431426D01*
X78594056Y-52353405D01*
X78763574Y-52240137D01*
X78807511Y-52196200D01*
X84141399Y-52196200D01*
X88140000Y-56194802D01*
X88140001Y-57352668D01*
X88136324Y-57390000D01*
X88140001Y-57427333D01*
X88150998Y-57538986D01*
X88153658Y-57547754D01*
X88194454Y-57682246D01*
X88265026Y-57814276D01*
X88336201Y-57901002D01*
X88360000Y-57930001D01*
X88388998Y-57953799D01*
X90235198Y-59800000D01*
X87357322Y-59800000D01*
X87319999Y-59796324D01*
X87282676Y-59800000D01*
X87282667Y-59800000D01*
X87171014Y-59810997D01*
X87027753Y-59854454D01*
X86895724Y-59925026D01*
X86779999Y-60019999D01*
X86756201Y-60048997D01*
X86470156Y-60335042D01*
X86391185Y-60238815D01*
X86294494Y-60159463D01*
X86184180Y-60100498D01*
X86064482Y-60064188D01*
X85940000Y-60051928D01*
X84240000Y-60051928D01*
X84115518Y-60064188D01*
X83995820Y-60100498D01*
X83885506Y-60159463D01*
X83788815Y-60238815D01*
X83709463Y-60335506D01*
X83650498Y-60445820D01*
X83614188Y-60565518D01*
X83601928Y-60690000D01*
X83601928Y-62690000D01*
X83614188Y-62814482D01*
X83650498Y-62934180D01*
X83709463Y-63044494D01*
X83788815Y-63141185D01*
X83885506Y-63220537D01*
X83995820Y-63279502D01*
X84115518Y-63315812D01*
X84240000Y-63328072D01*
X85940000Y-63328072D01*
X86064482Y-63315812D01*
X86184180Y-63279502D01*
X86294494Y-63220537D01*
X86391185Y-63141185D01*
X86470537Y-63044494D01*
X86529502Y-62934180D01*
X86565812Y-62814482D01*
X86578072Y-62690000D01*
X86578072Y-62344326D01*
X86614276Y-62324974D01*
X86730001Y-62230001D01*
X86753804Y-62200998D01*
X87634802Y-61320000D01*
X90235198Y-61320000D01*
X87545199Y-64010000D01*
X82864802Y-64010000D01*
X79140000Y-60285199D01*
X79140000Y-60223061D01*
X79100226Y-60023102D01*
X79022205Y-59834744D01*
X78908937Y-59665226D01*
X78831772Y-59588061D01*
X80880000Y-59588061D01*
X80880000Y-59791939D01*
X80919774Y-59991898D01*
X80997795Y-60180256D01*
X81111063Y-60349774D01*
X81255226Y-60493937D01*
X81424744Y-60607205D01*
X81613102Y-60685226D01*
X81813061Y-60725000D01*
X82016939Y-60725000D01*
X82216898Y-60685226D01*
X82405256Y-60607205D01*
X82574774Y-60493937D01*
X82618711Y-60450000D01*
X83202678Y-60450000D01*
X83240000Y-60453676D01*
X83277322Y-60450000D01*
X83277333Y-60450000D01*
X83388986Y-60439003D01*
X83532247Y-60395546D01*
X83664276Y-60324974D01*
X83780001Y-60230001D01*
X83803804Y-60200997D01*
X84676729Y-59328072D01*
X85940000Y-59328072D01*
X86064482Y-59315812D01*
X86184180Y-59279502D01*
X86294494Y-59220537D01*
X86391185Y-59141185D01*
X86470537Y-59044494D01*
X86529502Y-58934180D01*
X86565812Y-58814482D01*
X86578072Y-58690000D01*
X86578072Y-56690000D01*
X86565812Y-56565518D01*
X86529502Y-56445820D01*
X86470537Y-56335506D01*
X86391185Y-56238815D01*
X86294494Y-56159463D01*
X86184180Y-56100498D01*
X86064482Y-56064188D01*
X85940000Y-56051928D01*
X84240000Y-56051928D01*
X84115518Y-56064188D01*
X83995820Y-56100498D01*
X83885506Y-56159463D01*
X83788815Y-56238815D01*
X83709463Y-56335506D01*
X83650498Y-56445820D01*
X83614188Y-56565518D01*
X83601928Y-56690000D01*
X83601928Y-58253271D01*
X82925199Y-58930000D01*
X82618711Y-58930000D01*
X82574774Y-58886063D01*
X82405256Y-58772795D01*
X82216898Y-58694774D01*
X82016939Y-58655000D01*
X81813061Y-58655000D01*
X81613102Y-58694774D01*
X81424744Y-58772795D01*
X81255226Y-58886063D01*
X81111063Y-59030226D01*
X80997795Y-59199744D01*
X80919774Y-59388102D01*
X80880000Y-59588061D01*
X78831772Y-59588061D01*
X78764774Y-59521063D01*
X78595256Y-59407795D01*
X78406898Y-59329774D01*
X78206939Y-59290000D01*
X78003061Y-59290000D01*
X77803102Y-59329774D01*
X77614744Y-59407795D01*
X77445226Y-59521063D01*
X77301063Y-59665226D01*
X77187795Y-59834744D01*
X77109774Y-60023102D01*
X77070000Y-60223061D01*
X77070000Y-60426939D01*
X77109774Y-60626898D01*
X77187795Y-60815256D01*
X77301063Y-60984774D01*
X77445226Y-61128937D01*
X77614744Y-61242205D01*
X77803102Y-61320226D01*
X78003061Y-61360000D01*
X78065199Y-61360000D01*
X81986201Y-65281003D01*
X82009999Y-65310001D01*
X82125724Y-65404974D01*
X82257753Y-65475546D01*
X82401014Y-65519003D01*
X82512667Y-65530000D01*
X82512676Y-65530000D01*
X82549999Y-65533676D01*
X82587322Y-65530000D01*
X86988789Y-65530000D01*
X84698789Y-67820000D01*
X78808711Y-67820000D01*
X78764774Y-67776063D01*
X78595256Y-67662795D01*
X78406898Y-67584774D01*
X78206939Y-67545000D01*
X78003061Y-67545000D01*
X77803102Y-67584774D01*
X77614744Y-67662795D01*
X77445226Y-67776063D01*
X77301063Y-67920226D01*
X77187795Y-68089744D01*
X77109774Y-68278102D01*
X77070000Y-68478061D01*
X77070000Y-68681939D01*
X77109774Y-68881898D01*
X77187795Y-69070256D01*
X77301063Y-69239774D01*
X77445226Y-69383937D01*
X77614744Y-69497205D01*
X77803102Y-69575226D01*
X78003061Y-69615000D01*
X78206939Y-69615000D01*
X78406898Y-69575226D01*
X78595256Y-69497205D01*
X78764774Y-69383937D01*
X78808711Y-69340000D01*
X83815199Y-69340000D01*
X77592798Y-75562401D01*
X77563800Y-75586199D01*
X77540002Y-75615197D01*
X77540001Y-75615198D01*
X77468826Y-75701924D01*
X77398254Y-75833954D01*
X77354798Y-75977215D01*
X77340124Y-76126200D01*
X77343801Y-76163532D01*
X77343801Y-76767488D01*
X77299863Y-76811426D01*
X77186595Y-76980944D01*
X77108574Y-77169302D01*
X77068800Y-77369261D01*
X77068800Y-77573139D01*
X77108574Y-77773098D01*
X77186595Y-77961456D01*
X77299863Y-78130974D01*
X77444026Y-78275137D01*
X77613544Y-78388405D01*
X77801902Y-78466426D01*
X77916065Y-78489134D01*
X77618198Y-78787001D01*
X77589200Y-78810799D01*
X77565402Y-78839797D01*
X77565401Y-78839798D01*
X77494226Y-78926524D01*
X77423654Y-79058554D01*
X77393380Y-79158358D01*
X77380749Y-79200000D01*
X77380198Y-79201815D01*
X77365524Y-79350800D01*
X77369201Y-79388132D01*
X77369200Y-85045489D01*
X77325263Y-85089426D01*
X77211995Y-85258944D01*
X77133974Y-85447302D01*
X77094200Y-85647261D01*
X77094200Y-85851139D01*
X77133974Y-86051098D01*
X77211995Y-86239456D01*
X77325263Y-86408974D01*
X77469426Y-86553137D01*
X77638944Y-86666405D01*
X77827302Y-86744426D01*
X78027261Y-86784200D01*
X78231139Y-86784200D01*
X78431098Y-86744426D01*
X78619456Y-86666405D01*
X78788974Y-86553137D01*
X78933137Y-86408974D01*
X79046405Y-86239456D01*
X79124426Y-86051098D01*
X79164200Y-85851139D01*
X79164200Y-85647261D01*
X79124426Y-85447302D01*
X79046405Y-85258944D01*
X78933137Y-85089426D01*
X78889200Y-85045489D01*
X78889200Y-79665601D01*
X88710621Y-69844181D01*
X88731063Y-69874774D01*
X88875226Y-70018937D01*
X88905819Y-70039379D01*
X80768998Y-78176201D01*
X80740000Y-78199999D01*
X80716202Y-78228997D01*
X80716201Y-78228998D01*
X80645026Y-78315724D01*
X80574454Y-78447754D01*
X80544180Y-78547558D01*
X80532179Y-78587123D01*
X80530998Y-78591015D01*
X80516324Y-78740000D01*
X80520001Y-78777332D01*
X80520000Y-91125198D01*
X78065199Y-93580000D01*
X78003061Y-93580000D01*
X77803102Y-93619774D01*
X77614744Y-93697795D01*
X77445226Y-93811063D01*
X77301063Y-93955226D01*
X77187795Y-94124744D01*
X77109774Y-94313102D01*
X77070000Y-94513061D01*
X77070000Y-94716939D01*
X77109774Y-94916898D01*
X77187795Y-95105256D01*
X77301063Y-95274774D01*
X77445226Y-95418937D01*
X77614744Y-95532205D01*
X77803102Y-95610226D01*
X78003061Y-95650000D01*
X78206939Y-95650000D01*
X78406898Y-95610226D01*
X78595256Y-95532205D01*
X78764774Y-95418937D01*
X78908937Y-95274774D01*
X79022205Y-95105256D01*
X79100226Y-94916898D01*
X79140000Y-94716939D01*
X79140000Y-94654801D01*
X81791004Y-92003798D01*
X81820001Y-91980001D01*
X81846332Y-91947917D01*
X81914974Y-91864277D01*
X81985546Y-91732247D01*
X81985546Y-91732246D01*
X82029003Y-91588986D01*
X82040000Y-91477333D01*
X82040000Y-91477324D01*
X82043676Y-91440001D01*
X82040000Y-91402678D01*
X82040000Y-79054801D01*
X83060001Y-78034800D01*
X83060000Y-96840198D01*
X78065199Y-101835000D01*
X78003061Y-101835000D01*
X77803102Y-101874774D01*
X77614744Y-101952795D01*
X77445226Y-102066063D01*
X77301063Y-102210226D01*
X77187795Y-102379744D01*
X77109774Y-102568102D01*
X77070000Y-102768061D01*
X77070000Y-102971939D01*
X77109774Y-103171898D01*
X77187795Y-103360256D01*
X77301063Y-103529774D01*
X77445226Y-103673937D01*
X77614744Y-103787205D01*
X77803102Y-103865226D01*
X78003061Y-103905000D01*
X78206939Y-103905000D01*
X78406898Y-103865226D01*
X78595256Y-103787205D01*
X78764774Y-103673937D01*
X78908937Y-103529774D01*
X79022205Y-103360256D01*
X79100226Y-103171898D01*
X79140000Y-102971939D01*
X79140000Y-102909801D01*
X84330000Y-97719802D01*
X84330000Y-103825198D01*
X78065199Y-110090000D01*
X78003061Y-110090000D01*
X77803102Y-110129774D01*
X77614744Y-110207795D01*
X77445226Y-110321063D01*
X77301063Y-110465226D01*
X77187795Y-110634744D01*
X77109774Y-110823102D01*
X77070000Y-111023061D01*
X77070000Y-111226939D01*
X77109774Y-111426898D01*
X77187795Y-111615256D01*
X77301063Y-111784774D01*
X77445226Y-111928937D01*
X77614744Y-112042205D01*
X77803102Y-112120226D01*
X78003061Y-112160000D01*
X78206939Y-112160000D01*
X78406898Y-112120226D01*
X78595256Y-112042205D01*
X78764774Y-111928937D01*
X78908937Y-111784774D01*
X79022205Y-111615256D01*
X79100226Y-111426898D01*
X79140000Y-111226939D01*
X79140000Y-111164801D01*
X85601004Y-104703798D01*
X85630001Y-104680001D01*
X85724974Y-104564276D01*
X85795546Y-104432247D01*
X85839003Y-104288986D01*
X85850000Y-104177333D01*
X85850000Y-104177325D01*
X85853676Y-104140000D01*
X85850000Y-104102675D01*
X85850000Y-80324801D01*
X95831004Y-70343798D01*
X95860001Y-70320001D01*
X95954974Y-70204276D01*
X96025546Y-70072247D01*
X96069003Y-69928986D01*
X96080000Y-69817333D01*
X96080000Y-69817325D01*
X96083676Y-69780000D01*
X96080000Y-69742675D01*
X96080000Y-66400444D01*
X96120000Y-66351704D01*
X96168815Y-66411185D01*
X96265506Y-66490537D01*
X96342375Y-66531625D01*
X96405750Y-66595000D01*
X96420000Y-66598072D01*
X96520000Y-66588223D01*
X96620000Y-66598072D01*
X97220000Y-66598072D01*
X97320000Y-66588223D01*
X97420000Y-66598072D01*
X97760001Y-66598072D01*
X97760000Y-68270000D01*
X97688061Y-68270000D01*
X97488102Y-68309774D01*
X97299744Y-68387795D01*
X97130226Y-68501063D01*
X96986063Y-68645226D01*
X96872795Y-68814744D01*
X96794774Y-69003102D01*
X96755000Y-69203061D01*
X96755000Y-69406939D01*
X96794774Y-69606898D01*
X96872795Y-69795256D01*
X96986063Y-69964774D01*
X97130226Y-70108937D01*
X97299744Y-70222205D01*
X97488102Y-70300226D01*
X97688061Y-70340000D01*
X97760001Y-70340000D01*
X97760000Y-72257667D01*
X97760000Y-73082678D01*
X97756324Y-73120000D01*
X97760000Y-73157322D01*
X97760000Y-73192332D01*
X97760001Y-73192342D01*
X97760001Y-93169571D01*
X97658918Y-92925537D01*
X97479987Y-92657748D01*
X97252252Y-92430013D01*
X96984463Y-92251082D01*
X96686912Y-92127832D01*
X96371033Y-92065000D01*
X96048967Y-92065000D01*
X95733088Y-92127832D01*
X95435537Y-92251082D01*
X95167748Y-92430013D01*
X94940013Y-92657748D01*
X94761082Y-92925537D01*
X94637832Y-93223088D01*
X94575000Y-93538967D01*
X94575000Y-93861033D01*
X94637832Y-94176912D01*
X94761082Y-94474463D01*
X94940013Y-94742252D01*
X95167748Y-94969987D01*
X95435537Y-95148918D01*
X95733088Y-95272168D01*
X96048967Y-95335000D01*
X96371033Y-95335000D01*
X96686912Y-95272168D01*
X96984463Y-95148918D01*
X97252252Y-94969987D01*
X97479987Y-94742252D01*
X97658918Y-94474463D01*
X97760001Y-94230429D01*
X97760000Y-118167678D01*
X97756324Y-118205000D01*
X97760000Y-118242322D01*
X97760000Y-118242332D01*
X97770997Y-118353985D01*
X97814454Y-118497246D01*
X97885026Y-118629276D01*
X97924871Y-118677826D01*
X97979999Y-118745001D01*
X98009003Y-118768804D01*
X100565000Y-121324802D01*
X100565000Y-121386939D01*
X100604774Y-121586898D01*
X100682795Y-121775256D01*
X100796063Y-121944774D01*
X100940226Y-122088937D01*
X101109744Y-122202205D01*
X101298102Y-122280226D01*
X101498061Y-122320000D01*
X101701939Y-122320000D01*
X101901898Y-122280226D01*
X102090256Y-122202205D01*
X102259774Y-122088937D01*
X102403937Y-121944774D01*
X102517205Y-121775256D01*
X102595226Y-121586898D01*
X102635000Y-121386939D01*
X102635000Y-121183061D01*
X102595226Y-120983102D01*
X102517205Y-120794744D01*
X102403937Y-120625226D01*
X102259774Y-120481063D01*
X102090256Y-120367795D01*
X101901898Y-120289774D01*
X101701939Y-120250000D01*
X101639802Y-120250000D01*
X99280000Y-117890199D01*
X99280000Y-79200000D01*
X99526928Y-79200000D01*
X99539188Y-79324482D01*
X99575498Y-79444180D01*
X99634463Y-79554494D01*
X99713815Y-79651185D01*
X99810506Y-79730537D01*
X99920820Y-79789502D01*
X100040518Y-79825812D01*
X100165000Y-79838072D01*
X100679250Y-79835000D01*
X100838000Y-79676250D01*
X100838000Y-78327000D01*
X101092000Y-78327000D01*
X101092000Y-79676250D01*
X101250750Y-79835000D01*
X101765000Y-79838072D01*
X101889482Y-79825812D01*
X102009180Y-79789502D01*
X102119494Y-79730537D01*
X102216185Y-79651185D01*
X102295537Y-79554494D01*
X102354502Y-79444180D01*
X102390812Y-79324482D01*
X102403072Y-79200000D01*
X102400000Y-78485750D01*
X102241250Y-78327000D01*
X101092000Y-78327000D01*
X100838000Y-78327000D01*
X99688750Y-78327000D01*
X99530000Y-78485750D01*
X99526928Y-79200000D01*
X99280000Y-79200000D01*
X99280000Y-77200000D01*
X99526928Y-77200000D01*
X99530000Y-77914250D01*
X99688750Y-78073000D01*
X100838000Y-78073000D01*
X100838000Y-76723750D01*
X101092000Y-76723750D01*
X101092000Y-78073000D01*
X102241250Y-78073000D01*
X102400000Y-77914250D01*
X102403072Y-77200000D01*
X102390812Y-77075518D01*
X102354502Y-76955820D01*
X102295537Y-76845506D01*
X102216185Y-76748815D01*
X102119494Y-76669463D01*
X102009180Y-76610498D01*
X101889482Y-76574188D01*
X101765000Y-76561928D01*
X101250750Y-76565000D01*
X101092000Y-76723750D01*
X100838000Y-76723750D01*
X100679250Y-76565000D01*
X100165000Y-76561928D01*
X100040518Y-76574188D01*
X99920820Y-76610498D01*
X99810506Y-76669463D01*
X99713815Y-76748815D01*
X99634463Y-76845506D01*
X99575498Y-76955820D01*
X99539188Y-77075518D01*
X99526928Y-77200000D01*
X99280000Y-77200000D01*
X99280000Y-74890711D01*
X99307753Y-74905546D01*
X99451014Y-74949003D01*
X99526928Y-74956480D01*
X99526928Y-75200000D01*
X99539188Y-75324482D01*
X99575498Y-75444180D01*
X99634463Y-75554494D01*
X99713815Y-75651185D01*
X99810506Y-75730537D01*
X99920820Y-75789502D01*
X100040518Y-75825812D01*
X100165000Y-75838072D01*
X101765000Y-75838072D01*
X101889482Y-75825812D01*
X102009180Y-75789502D01*
X102119494Y-75730537D01*
X102216185Y-75651185D01*
X102295537Y-75554494D01*
X102354502Y-75444180D01*
X102390812Y-75324482D01*
X102403072Y-75200000D01*
X102403072Y-73200000D01*
X102390812Y-73075518D01*
X102354502Y-72955820D01*
X102295537Y-72845506D01*
X102216185Y-72748815D01*
X102119494Y-72669463D01*
X102105530Y-72661999D01*
X102259774Y-72558937D01*
X102403937Y-72414774D01*
X102517205Y-72245256D01*
X102595226Y-72056898D01*
X102635000Y-71856939D01*
X102635000Y-71653061D01*
X102595226Y-71453102D01*
X102517205Y-71264744D01*
X102448113Y-71161340D01*
X102502753Y-71190546D01*
X102646014Y-71234003D01*
X102757667Y-71245000D01*
X102757677Y-71245000D01*
X102795000Y-71248676D01*
X102832322Y-71245000D01*
X112992678Y-71245000D01*
X113030000Y-71248676D01*
X113067322Y-71245000D01*
X113067333Y-71245000D01*
X113178986Y-71234003D01*
X113322247Y-71190546D01*
X113454276Y-71119974D01*
X113570001Y-71025001D01*
X113593804Y-70995997D01*
X115545000Y-69044802D01*
X115545001Y-139040000D01*
X76860000Y-139040000D01*
X76860000Y-134405000D01*
X85506928Y-134405000D01*
X85506928Y-136105000D01*
X85519188Y-136229482D01*
X85555498Y-136349180D01*
X85614463Y-136459494D01*
X85693815Y-136556185D01*
X85790506Y-136635537D01*
X85900820Y-136694502D01*
X86020518Y-136730812D01*
X86145000Y-136743072D01*
X87845000Y-136743072D01*
X87969482Y-136730812D01*
X88089180Y-136694502D01*
X88199494Y-136635537D01*
X88296185Y-136556185D01*
X88375537Y-136459494D01*
X88434502Y-136349180D01*
X88470812Y-136229482D01*
X88483072Y-136105000D01*
X107096928Y-136105000D01*
X107109188Y-136229482D01*
X107145498Y-136349180D01*
X107204463Y-136459494D01*
X107283815Y-136556185D01*
X107380506Y-136635537D01*
X107490820Y-136694502D01*
X107610518Y-136730812D01*
X107735000Y-136743072D01*
X108299250Y-136740000D01*
X108458000Y-136581250D01*
X108458000Y-135382000D01*
X108712000Y-135382000D01*
X108712000Y-136581250D01*
X108870750Y-136740000D01*
X109435000Y-136743072D01*
X109559482Y-136730812D01*
X109679180Y-136694502D01*
X109789494Y-136635537D01*
X109886185Y-136556185D01*
X109965537Y-136459494D01*
X110024502Y-136349180D01*
X110060812Y-136229482D01*
X110073072Y-136105000D01*
X110070000Y-135540750D01*
X109911250Y-135382000D01*
X108712000Y-135382000D01*
X108458000Y-135382000D01*
X107258750Y-135382000D01*
X107100000Y-135540750D01*
X107096928Y-136105000D01*
X88483072Y-136105000D01*
X88483072Y-134405000D01*
X107096928Y-134405000D01*
X107100000Y-134969250D01*
X107258750Y-135128000D01*
X108458000Y-135128000D01*
X108458000Y-133928750D01*
X108712000Y-133928750D01*
X108712000Y-135128000D01*
X109911250Y-135128000D01*
X110070000Y-134969250D01*
X110073072Y-134405000D01*
X110060812Y-134280518D01*
X110024502Y-134160820D01*
X109965537Y-134050506D01*
X109886185Y-133953815D01*
X109789494Y-133874463D01*
X109679180Y-133815498D01*
X109559482Y-133779188D01*
X109435000Y-133766928D01*
X108870750Y-133770000D01*
X108712000Y-133928750D01*
X108458000Y-133928750D01*
X108299250Y-133770000D01*
X107735000Y-133766928D01*
X107610518Y-133779188D01*
X107490820Y-133815498D01*
X107380506Y-133874463D01*
X107283815Y-133953815D01*
X107204463Y-134050506D01*
X107145498Y-134160820D01*
X107109188Y-134280518D01*
X107096928Y-134405000D01*
X88483072Y-134405000D01*
X88470812Y-134280518D01*
X88434502Y-134160820D01*
X88375537Y-134050506D01*
X88296185Y-133953815D01*
X88199494Y-133874463D01*
X88089180Y-133815498D01*
X87969482Y-133779188D01*
X87845000Y-133766928D01*
X86145000Y-133766928D01*
X86020518Y-133779188D01*
X85900820Y-133815498D01*
X85790506Y-133874463D01*
X85693815Y-133953815D01*
X85614463Y-134050506D01*
X85555498Y-134160820D01*
X85519188Y-134280518D01*
X85506928Y-134405000D01*
X76860000Y-134405000D01*
X76860000Y-42374802D01*
X77184030Y-42698833D01*
X77184030Y-42698833D01*
G37*
X77184030Y-42698833D02*
X77109774Y-42878102D01*
X77070000Y-43078061D01*
X77070000Y-43281939D01*
X77109774Y-43481898D01*
X77187795Y-43670256D01*
X77301063Y-43839774D01*
X77445226Y-43983937D01*
X77614744Y-44097205D01*
X77803102Y-44175226D01*
X78003061Y-44215000D01*
X78065199Y-44215000D01*
X84529989Y-50679791D01*
X84493533Y-50676200D01*
X84493522Y-50676200D01*
X84456200Y-50672524D01*
X84418878Y-50676200D01*
X78807511Y-50676200D01*
X78763574Y-50632263D01*
X78594056Y-50518995D01*
X78405698Y-50440974D01*
X78205739Y-50401200D01*
X78001861Y-50401200D01*
X77801902Y-50440974D01*
X77613544Y-50518995D01*
X77444026Y-50632263D01*
X77299863Y-50776426D01*
X77186595Y-50945944D01*
X77108574Y-51134302D01*
X77068800Y-51334261D01*
X77068800Y-51538139D01*
X77108574Y-51738098D01*
X77186595Y-51926456D01*
X77299863Y-52095974D01*
X77444026Y-52240137D01*
X77613544Y-52353405D01*
X77801902Y-52431426D01*
X78001861Y-52471200D01*
X78205739Y-52471200D01*
X78405698Y-52431426D01*
X78594056Y-52353405D01*
X78763574Y-52240137D01*
X78807511Y-52196200D01*
X84141399Y-52196200D01*
X88140000Y-56194802D01*
X88140001Y-57352668D01*
X88136324Y-57390000D01*
X88140001Y-57427333D01*
X88150998Y-57538986D01*
X88153658Y-57547754D01*
X88194454Y-57682246D01*
X88265026Y-57814276D01*
X88336201Y-57901002D01*
X88360000Y-57930001D01*
X88388998Y-57953799D01*
X90235198Y-59800000D01*
X87357322Y-59800000D01*
X87319999Y-59796324D01*
X87282676Y-59800000D01*
X87282667Y-59800000D01*
X87171014Y-59810997D01*
X87027753Y-59854454D01*
X86895724Y-59925026D01*
X86779999Y-60019999D01*
X86756201Y-60048997D01*
X86470156Y-60335042D01*
X86391185Y-60238815D01*
X86294494Y-60159463D01*
X86184180Y-60100498D01*
X86064482Y-60064188D01*
X85940000Y-60051928D01*
X84240000Y-60051928D01*
X84115518Y-60064188D01*
X83995820Y-60100498D01*
X83885506Y-60159463D01*
X83788815Y-60238815D01*
X83709463Y-60335506D01*
X83650498Y-60445820D01*
X83614188Y-60565518D01*
X83601928Y-60690000D01*
X83601928Y-62690000D01*
X83614188Y-62814482D01*
X83650498Y-62934180D01*
X83709463Y-63044494D01*
X83788815Y-63141185D01*
X83885506Y-63220537D01*
X83995820Y-63279502D01*
X84115518Y-63315812D01*
X84240000Y-63328072D01*
X85940000Y-63328072D01*
X86064482Y-63315812D01*
X86184180Y-63279502D01*
X86294494Y-63220537D01*
X86391185Y-63141185D01*
X86470537Y-63044494D01*
X86529502Y-62934180D01*
X86565812Y-62814482D01*
X86578072Y-62690000D01*
X86578072Y-62344326D01*
X86614276Y-62324974D01*
X86730001Y-62230001D01*
X86753804Y-62200998D01*
X87634802Y-61320000D01*
X90235198Y-61320000D01*
X87545199Y-64010000D01*
X82864802Y-64010000D01*
X79140000Y-60285199D01*
X79140000Y-60223061D01*
X79100226Y-60023102D01*
X79022205Y-59834744D01*
X78908937Y-59665226D01*
X78831772Y-59588061D01*
X80880000Y-59588061D01*
X80880000Y-59791939D01*
X80919774Y-59991898D01*
X80997795Y-60180256D01*
X81111063Y-60349774D01*
X81255226Y-60493937D01*
X81424744Y-60607205D01*
X81613102Y-60685226D01*
X81813061Y-60725000D01*
X82016939Y-60725000D01*
X82216898Y-60685226D01*
X82405256Y-60607205D01*
X82574774Y-60493937D01*
X82618711Y-60450000D01*
X83202678Y-60450000D01*
X83240000Y-60453676D01*
X83277322Y-60450000D01*
X83277333Y-60450000D01*
X83388986Y-60439003D01*
X83532247Y-60395546D01*
X83664276Y-60324974D01*
X83780001Y-60230001D01*
X83803804Y-60200997D01*
X84676729Y-59328072D01*
X85940000Y-59328072D01*
X86064482Y-59315812D01*
X86184180Y-59279502D01*
X86294494Y-59220537D01*
X86391185Y-59141185D01*
X86470537Y-59044494D01*
X86529502Y-58934180D01*
X86565812Y-58814482D01*
X86578072Y-58690000D01*
X86578072Y-56690000D01*
X86565812Y-56565518D01*
X86529502Y-56445820D01*
X86470537Y-56335506D01*
X86391185Y-56238815D01*
X86294494Y-56159463D01*
X86184180Y-56100498D01*
X86064482Y-56064188D01*
X85940000Y-56051928D01*
X84240000Y-56051928D01*
X84115518Y-56064188D01*
X83995820Y-56100498D01*
X83885506Y-56159463D01*
X83788815Y-56238815D01*
X83709463Y-56335506D01*
X83650498Y-56445820D01*
X83614188Y-56565518D01*
X83601928Y-56690000D01*
X83601928Y-58253271D01*
X82925199Y-58930000D01*
X82618711Y-58930000D01*
X82574774Y-58886063D01*
X82405256Y-58772795D01*
X82216898Y-58694774D01*
X82016939Y-58655000D01*
X81813061Y-58655000D01*
X81613102Y-58694774D01*
X81424744Y-58772795D01*
X81255226Y-58886063D01*
X81111063Y-59030226D01*
X80997795Y-59199744D01*
X80919774Y-59388102D01*
X80880000Y-59588061D01*
X78831772Y-59588061D01*
X78764774Y-59521063D01*
X78595256Y-59407795D01*
X78406898Y-59329774D01*
X78206939Y-59290000D01*
X78003061Y-59290000D01*
X77803102Y-59329774D01*
X77614744Y-59407795D01*
X77445226Y-59521063D01*
X77301063Y-59665226D01*
X77187795Y-59834744D01*
X77109774Y-60023102D01*
X77070000Y-60223061D01*
X77070000Y-60426939D01*
X77109774Y-60626898D01*
X77187795Y-60815256D01*
X77301063Y-60984774D01*
X77445226Y-61128937D01*
X77614744Y-61242205D01*
X77803102Y-61320226D01*
X78003061Y-61360000D01*
X78065199Y-61360000D01*
X81986201Y-65281003D01*
X82009999Y-65310001D01*
X82125724Y-65404974D01*
X82257753Y-65475546D01*
X82401014Y-65519003D01*
X82512667Y-65530000D01*
X82512676Y-65530000D01*
X82549999Y-65533676D01*
X82587322Y-65530000D01*
X86988789Y-65530000D01*
X84698789Y-67820000D01*
X78808711Y-67820000D01*
X78764774Y-67776063D01*
X78595256Y-67662795D01*
X78406898Y-67584774D01*
X78206939Y-67545000D01*
X78003061Y-67545000D01*
X77803102Y-67584774D01*
X77614744Y-67662795D01*
X77445226Y-67776063D01*
X77301063Y-67920226D01*
X77187795Y-68089744D01*
X77109774Y-68278102D01*
X77070000Y-68478061D01*
X77070000Y-68681939D01*
X77109774Y-68881898D01*
X77187795Y-69070256D01*
X77301063Y-69239774D01*
X77445226Y-69383937D01*
X77614744Y-69497205D01*
X77803102Y-69575226D01*
X78003061Y-69615000D01*
X78206939Y-69615000D01*
X78406898Y-69575226D01*
X78595256Y-69497205D01*
X78764774Y-69383937D01*
X78808711Y-69340000D01*
X83815199Y-69340000D01*
X77592798Y-75562401D01*
X77563800Y-75586199D01*
X77540002Y-75615197D01*
X77540001Y-75615198D01*
X77468826Y-75701924D01*
X77398254Y-75833954D01*
X77354798Y-75977215D01*
X77340124Y-76126200D01*
X77343801Y-76163532D01*
X77343801Y-76767488D01*
X77299863Y-76811426D01*
X77186595Y-76980944D01*
X77108574Y-77169302D01*
X77068800Y-77369261D01*
X77068800Y-77573139D01*
X77108574Y-77773098D01*
X77186595Y-77961456D01*
X77299863Y-78130974D01*
X77444026Y-78275137D01*
X77613544Y-78388405D01*
X77801902Y-78466426D01*
X77916065Y-78489134D01*
X77618198Y-78787001D01*
X77589200Y-78810799D01*
X77565402Y-78839797D01*
X77565401Y-78839798D01*
X77494226Y-78926524D01*
X77423654Y-79058554D01*
X77393380Y-79158358D01*
X77380749Y-79200000D01*
X77380198Y-79201815D01*
X77365524Y-79350800D01*
X77369201Y-79388132D01*
X77369200Y-85045489D01*
X77325263Y-85089426D01*
X77211995Y-85258944D01*
X77133974Y-85447302D01*
X77094200Y-85647261D01*
X77094200Y-85851139D01*
X77133974Y-86051098D01*
X77211995Y-86239456D01*
X77325263Y-86408974D01*
X77469426Y-86553137D01*
X77638944Y-86666405D01*
X77827302Y-86744426D01*
X78027261Y-86784200D01*
X78231139Y-86784200D01*
X78431098Y-86744426D01*
X78619456Y-86666405D01*
X78788974Y-86553137D01*
X78933137Y-86408974D01*
X79046405Y-86239456D01*
X79124426Y-86051098D01*
X79164200Y-85851139D01*
X79164200Y-85647261D01*
X79124426Y-85447302D01*
X79046405Y-85258944D01*
X78933137Y-85089426D01*
X78889200Y-85045489D01*
X78889200Y-79665601D01*
X88710621Y-69844181D01*
X88731063Y-69874774D01*
X88875226Y-70018937D01*
X88905819Y-70039379D01*
X80768998Y-78176201D01*
X80740000Y-78199999D01*
X80716202Y-78228997D01*
X80716201Y-78228998D01*
X80645026Y-78315724D01*
X80574454Y-78447754D01*
X80544180Y-78547558D01*
X80532179Y-78587123D01*
X80530998Y-78591015D01*
X80516324Y-78740000D01*
X80520001Y-78777332D01*
X80520000Y-91125198D01*
X78065199Y-93580000D01*
X78003061Y-93580000D01*
X77803102Y-93619774D01*
X77614744Y-93697795D01*
X77445226Y-93811063D01*
X77301063Y-93955226D01*
X77187795Y-94124744D01*
X77109774Y-94313102D01*
X77070000Y-94513061D01*
X77070000Y-94716939D01*
X77109774Y-94916898D01*
X77187795Y-95105256D01*
X77301063Y-95274774D01*
X77445226Y-95418937D01*
X77614744Y-95532205D01*
X77803102Y-95610226D01*
X78003061Y-95650000D01*
X78206939Y-95650000D01*
X78406898Y-95610226D01*
X78595256Y-95532205D01*
X78764774Y-95418937D01*
X78908937Y-95274774D01*
X79022205Y-95105256D01*
X79100226Y-94916898D01*
X79140000Y-94716939D01*
X79140000Y-94654801D01*
X81791004Y-92003798D01*
X81820001Y-91980001D01*
X81846332Y-91947917D01*
X81914974Y-91864277D01*
X81985546Y-91732247D01*
X81985546Y-91732246D01*
X82029003Y-91588986D01*
X82040000Y-91477333D01*
X82040000Y-91477324D01*
X82043676Y-91440001D01*
X82040000Y-91402678D01*
X82040000Y-79054801D01*
X83060001Y-78034800D01*
X83060000Y-96840198D01*
X78065199Y-101835000D01*
X78003061Y-101835000D01*
X77803102Y-101874774D01*
X77614744Y-101952795D01*
X77445226Y-102066063D01*
X77301063Y-102210226D01*
X77187795Y-102379744D01*
X77109774Y-102568102D01*
X77070000Y-102768061D01*
X77070000Y-102971939D01*
X77109774Y-103171898D01*
X77187795Y-103360256D01*
X77301063Y-103529774D01*
X77445226Y-103673937D01*
X77614744Y-103787205D01*
X77803102Y-103865226D01*
X78003061Y-103905000D01*
X78206939Y-103905000D01*
X78406898Y-103865226D01*
X78595256Y-103787205D01*
X78764774Y-103673937D01*
X78908937Y-103529774D01*
X79022205Y-103360256D01*
X79100226Y-103171898D01*
X79140000Y-102971939D01*
X79140000Y-102909801D01*
X84330000Y-97719802D01*
X84330000Y-103825198D01*
X78065199Y-110090000D01*
X78003061Y-110090000D01*
X77803102Y-110129774D01*
X77614744Y-110207795D01*
X77445226Y-110321063D01*
X77301063Y-110465226D01*
X77187795Y-110634744D01*
X77109774Y-110823102D01*
X77070000Y-111023061D01*
X77070000Y-111226939D01*
X77109774Y-111426898D01*
X77187795Y-111615256D01*
X77301063Y-111784774D01*
X77445226Y-111928937D01*
X77614744Y-112042205D01*
X77803102Y-112120226D01*
X78003061Y-112160000D01*
X78206939Y-112160000D01*
X78406898Y-112120226D01*
X78595256Y-112042205D01*
X78764774Y-111928937D01*
X78908937Y-111784774D01*
X79022205Y-111615256D01*
X79100226Y-111426898D01*
X79140000Y-111226939D01*
X79140000Y-111164801D01*
X85601004Y-104703798D01*
X85630001Y-104680001D01*
X85724974Y-104564276D01*
X85795546Y-104432247D01*
X85839003Y-104288986D01*
X85850000Y-104177333D01*
X85850000Y-104177325D01*
X85853676Y-104140000D01*
X85850000Y-104102675D01*
X85850000Y-80324801D01*
X95831004Y-70343798D01*
X95860001Y-70320001D01*
X95954974Y-70204276D01*
X96025546Y-70072247D01*
X96069003Y-69928986D01*
X96080000Y-69817333D01*
X96080000Y-69817325D01*
X96083676Y-69780000D01*
X96080000Y-69742675D01*
X96080000Y-66400444D01*
X96120000Y-66351704D01*
X96168815Y-66411185D01*
X96265506Y-66490537D01*
X96342375Y-66531625D01*
X96405750Y-66595000D01*
X96420000Y-66598072D01*
X96520000Y-66588223D01*
X96620000Y-66598072D01*
X97220000Y-66598072D01*
X97320000Y-66588223D01*
X97420000Y-66598072D01*
X97760001Y-66598072D01*
X97760000Y-68270000D01*
X97688061Y-68270000D01*
X97488102Y-68309774D01*
X97299744Y-68387795D01*
X97130226Y-68501063D01*
X96986063Y-68645226D01*
X96872795Y-68814744D01*
X96794774Y-69003102D01*
X96755000Y-69203061D01*
X96755000Y-69406939D01*
X96794774Y-69606898D01*
X96872795Y-69795256D01*
X96986063Y-69964774D01*
X97130226Y-70108937D01*
X97299744Y-70222205D01*
X97488102Y-70300226D01*
X97688061Y-70340000D01*
X97760001Y-70340000D01*
X97760000Y-72257667D01*
X97760000Y-73082678D01*
X97756324Y-73120000D01*
X97760000Y-73157322D01*
X97760000Y-73192332D01*
X97760001Y-73192342D01*
X97760001Y-93169571D01*
X97658918Y-92925537D01*
X97479987Y-92657748D01*
X97252252Y-92430013D01*
X96984463Y-92251082D01*
X96686912Y-92127832D01*
X96371033Y-92065000D01*
X96048967Y-92065000D01*
X95733088Y-92127832D01*
X95435537Y-92251082D01*
X95167748Y-92430013D01*
X94940013Y-92657748D01*
X94761082Y-92925537D01*
X94637832Y-93223088D01*
X94575000Y-93538967D01*
X94575000Y-93861033D01*
X94637832Y-94176912D01*
X94761082Y-94474463D01*
X94940013Y-94742252D01*
X95167748Y-94969987D01*
X95435537Y-95148918D01*
X95733088Y-95272168D01*
X96048967Y-95335000D01*
X96371033Y-95335000D01*
X96686912Y-95272168D01*
X96984463Y-95148918D01*
X97252252Y-94969987D01*
X97479987Y-94742252D01*
X97658918Y-94474463D01*
X97760001Y-94230429D01*
X97760000Y-118167678D01*
X97756324Y-118205000D01*
X97760000Y-118242322D01*
X97760000Y-118242332D01*
X97770997Y-118353985D01*
X97814454Y-118497246D01*
X97885026Y-118629276D01*
X97924871Y-118677826D01*
X97979999Y-118745001D01*
X98009003Y-118768804D01*
X100565000Y-121324802D01*
X100565000Y-121386939D01*
X100604774Y-121586898D01*
X100682795Y-121775256D01*
X100796063Y-121944774D01*
X100940226Y-122088937D01*
X101109744Y-122202205D01*
X101298102Y-122280226D01*
X101498061Y-122320000D01*
X101701939Y-122320000D01*
X101901898Y-122280226D01*
X102090256Y-122202205D01*
X102259774Y-122088937D01*
X102403937Y-121944774D01*
X102517205Y-121775256D01*
X102595226Y-121586898D01*
X102635000Y-121386939D01*
X102635000Y-121183061D01*
X102595226Y-120983102D01*
X102517205Y-120794744D01*
X102403937Y-120625226D01*
X102259774Y-120481063D01*
X102090256Y-120367795D01*
X101901898Y-120289774D01*
X101701939Y-120250000D01*
X101639802Y-120250000D01*
X99280000Y-117890199D01*
X99280000Y-79200000D01*
X99526928Y-79200000D01*
X99539188Y-79324482D01*
X99575498Y-79444180D01*
X99634463Y-79554494D01*
X99713815Y-79651185D01*
X99810506Y-79730537D01*
X99920820Y-79789502D01*
X100040518Y-79825812D01*
X100165000Y-79838072D01*
X100679250Y-79835000D01*
X100838000Y-79676250D01*
X100838000Y-78327000D01*
X101092000Y-78327000D01*
X101092000Y-79676250D01*
X101250750Y-79835000D01*
X101765000Y-79838072D01*
X101889482Y-79825812D01*
X102009180Y-79789502D01*
X102119494Y-79730537D01*
X102216185Y-79651185D01*
X102295537Y-79554494D01*
X102354502Y-79444180D01*
X102390812Y-79324482D01*
X102403072Y-79200000D01*
X102400000Y-78485750D01*
X102241250Y-78327000D01*
X101092000Y-78327000D01*
X100838000Y-78327000D01*
X99688750Y-78327000D01*
X99530000Y-78485750D01*
X99526928Y-79200000D01*
X99280000Y-79200000D01*
X99280000Y-77200000D01*
X99526928Y-77200000D01*
X99530000Y-77914250D01*
X99688750Y-78073000D01*
X100838000Y-78073000D01*
X100838000Y-76723750D01*
X101092000Y-76723750D01*
X101092000Y-78073000D01*
X102241250Y-78073000D01*
X102400000Y-77914250D01*
X102403072Y-77200000D01*
X102390812Y-77075518D01*
X102354502Y-76955820D01*
X102295537Y-76845506D01*
X102216185Y-76748815D01*
X102119494Y-76669463D01*
X102009180Y-76610498D01*
X101889482Y-76574188D01*
X101765000Y-76561928D01*
X101250750Y-76565000D01*
X101092000Y-76723750D01*
X100838000Y-76723750D01*
X100679250Y-76565000D01*
X100165000Y-76561928D01*
X100040518Y-76574188D01*
X99920820Y-76610498D01*
X99810506Y-76669463D01*
X99713815Y-76748815D01*
X99634463Y-76845506D01*
X99575498Y-76955820D01*
X99539188Y-77075518D01*
X99526928Y-77200000D01*
X99280000Y-77200000D01*
X99280000Y-74890711D01*
X99307753Y-74905546D01*
X99451014Y-74949003D01*
X99526928Y-74956480D01*
X99526928Y-75200000D01*
X99539188Y-75324482D01*
X99575498Y-75444180D01*
X99634463Y-75554494D01*
X99713815Y-75651185D01*
X99810506Y-75730537D01*
X99920820Y-75789502D01*
X100040518Y-75825812D01*
X100165000Y-75838072D01*
X101765000Y-75838072D01*
X101889482Y-75825812D01*
X102009180Y-75789502D01*
X102119494Y-75730537D01*
X102216185Y-75651185D01*
X102295537Y-75554494D01*
X102354502Y-75444180D01*
X102390812Y-75324482D01*
X102403072Y-75200000D01*
X102403072Y-73200000D01*
X102390812Y-73075518D01*
X102354502Y-72955820D01*
X102295537Y-72845506D01*
X102216185Y-72748815D01*
X102119494Y-72669463D01*
X102105530Y-72661999D01*
X102259774Y-72558937D01*
X102403937Y-72414774D01*
X102517205Y-72245256D01*
X102595226Y-72056898D01*
X102635000Y-71856939D01*
X102635000Y-71653061D01*
X102595226Y-71453102D01*
X102517205Y-71264744D01*
X102448113Y-71161340D01*
X102502753Y-71190546D01*
X102646014Y-71234003D01*
X102757667Y-71245000D01*
X102757677Y-71245000D01*
X102795000Y-71248676D01*
X102832322Y-71245000D01*
X112992678Y-71245000D01*
X113030000Y-71248676D01*
X113067322Y-71245000D01*
X113067333Y-71245000D01*
X113178986Y-71234003D01*
X113322247Y-71190546D01*
X113454276Y-71119974D01*
X113570001Y-71025001D01*
X113593804Y-70995997D01*
X115545000Y-69044802D01*
X115545001Y-139040000D01*
X76860000Y-139040000D01*
X76860000Y-134405000D01*
X85506928Y-134405000D01*
X85506928Y-136105000D01*
X85519188Y-136229482D01*
X85555498Y-136349180D01*
X85614463Y-136459494D01*
X85693815Y-136556185D01*
X85790506Y-136635537D01*
X85900820Y-136694502D01*
X86020518Y-136730812D01*
X86145000Y-136743072D01*
X87845000Y-136743072D01*
X87969482Y-136730812D01*
X88089180Y-136694502D01*
X88199494Y-136635537D01*
X88296185Y-136556185D01*
X88375537Y-136459494D01*
X88434502Y-136349180D01*
X88470812Y-136229482D01*
X88483072Y-136105000D01*
X107096928Y-136105000D01*
X107109188Y-136229482D01*
X107145498Y-136349180D01*
X107204463Y-136459494D01*
X107283815Y-136556185D01*
X107380506Y-136635537D01*
X107490820Y-136694502D01*
X107610518Y-136730812D01*
X107735000Y-136743072D01*
X108299250Y-136740000D01*
X108458000Y-136581250D01*
X108458000Y-135382000D01*
X108712000Y-135382000D01*
X108712000Y-136581250D01*
X108870750Y-136740000D01*
X109435000Y-136743072D01*
X109559482Y-136730812D01*
X109679180Y-136694502D01*
X109789494Y-136635537D01*
X109886185Y-136556185D01*
X109965537Y-136459494D01*
X110024502Y-136349180D01*
X110060812Y-136229482D01*
X110073072Y-136105000D01*
X110070000Y-135540750D01*
X109911250Y-135382000D01*
X108712000Y-135382000D01*
X108458000Y-135382000D01*
X107258750Y-135382000D01*
X107100000Y-135540750D01*
X107096928Y-136105000D01*
X88483072Y-136105000D01*
X88483072Y-134405000D01*
X107096928Y-134405000D01*
X107100000Y-134969250D01*
X107258750Y-135128000D01*
X108458000Y-135128000D01*
X108458000Y-133928750D01*
X108712000Y-133928750D01*
X108712000Y-135128000D01*
X109911250Y-135128000D01*
X110070000Y-134969250D01*
X110073072Y-134405000D01*
X110060812Y-134280518D01*
X110024502Y-134160820D01*
X109965537Y-134050506D01*
X109886185Y-133953815D01*
X109789494Y-133874463D01*
X109679180Y-133815498D01*
X109559482Y-133779188D01*
X109435000Y-133766928D01*
X108870750Y-133770000D01*
X108712000Y-133928750D01*
X108458000Y-133928750D01*
X108299250Y-133770000D01*
X107735000Y-133766928D01*
X107610518Y-133779188D01*
X107490820Y-133815498D01*
X107380506Y-133874463D01*
X107283815Y-133953815D01*
X107204463Y-134050506D01*
X107145498Y-134160820D01*
X107109188Y-134280518D01*
X107096928Y-134405000D01*
X88483072Y-134405000D01*
X88470812Y-134280518D01*
X88434502Y-134160820D01*
X88375537Y-134050506D01*
X88296185Y-133953815D01*
X88199494Y-133874463D01*
X88089180Y-133815498D01*
X87969482Y-133779188D01*
X87845000Y-133766928D01*
X86145000Y-133766928D01*
X86020518Y-133779188D01*
X85900820Y-133815498D01*
X85790506Y-133874463D01*
X85693815Y-133953815D01*
X85614463Y-134050506D01*
X85555498Y-134160820D01*
X85519188Y-134280518D01*
X85506928Y-134405000D01*
X76860000Y-134405000D01*
X76860000Y-42374802D01*
X77184030Y-42698833D01*
G36*
X115545000Y-40810198D02*
G01*
X111053804Y-36319003D01*
X111030001Y-36289999D01*
X110914276Y-36195026D01*
X110782247Y-36124454D01*
X110638986Y-36080997D01*
X110527333Y-36070000D01*
X110527322Y-36070000D01*
X110490000Y-36066324D01*
X110452678Y-36070000D01*
X106603072Y-36070000D01*
X106603072Y-35980000D01*
X106590812Y-35855518D01*
X106554502Y-35735820D01*
X106495537Y-35625506D01*
X106416185Y-35528815D01*
X106319494Y-35449463D01*
X106209180Y-35390498D01*
X106089482Y-35354188D01*
X105965000Y-35341928D01*
X103965000Y-35341928D01*
X103840518Y-35354188D01*
X103720820Y-35390498D01*
X103610506Y-35449463D01*
X103513815Y-35528815D01*
X103434463Y-35625506D01*
X103375498Y-35735820D01*
X103339188Y-35855518D01*
X103326928Y-35980000D01*
X103326928Y-37680000D01*
X103339188Y-37804482D01*
X103375498Y-37924180D01*
X103434463Y-38034494D01*
X103513815Y-38131185D01*
X103610506Y-38210537D01*
X103720820Y-38269502D01*
X103840518Y-38305812D01*
X103965000Y-38318072D01*
X105965000Y-38318072D01*
X106089482Y-38305812D01*
X106209180Y-38269502D01*
X106319494Y-38210537D01*
X106416185Y-38131185D01*
X106495537Y-38034494D01*
X106554502Y-37924180D01*
X106590812Y-37804482D01*
X106603072Y-37680000D01*
X106603072Y-37590000D01*
X110175199Y-37590000D01*
X114810000Y-42224802D01*
X114810001Y-44242667D01*
X114810000Y-67185000D01*
X113849802Y-67185000D01*
X113207874Y-66543072D01*
X113320000Y-66543072D01*
X113444482Y-66530812D01*
X113564180Y-66494502D01*
X113674494Y-66435537D01*
X113771185Y-66356185D01*
X113850537Y-66259494D01*
X113909502Y-66149180D01*
X113945812Y-66029482D01*
X113958072Y-65905000D01*
X113958072Y-64905000D01*
X113945812Y-64780518D01*
X113909502Y-64660820D01*
X113850537Y-64550506D01*
X113771185Y-64453815D01*
X113674494Y-64374463D01*
X113564180Y-64315498D01*
X113444482Y-64279188D01*
X113320000Y-64266928D01*
X110170000Y-64266928D01*
X110045518Y-64279188D01*
X109980000Y-64299063D01*
X109980000Y-63970937D01*
X110045518Y-63990812D01*
X110170000Y-64003072D01*
X113320000Y-64003072D01*
X113444482Y-63990812D01*
X113564180Y-63954502D01*
X113674494Y-63895537D01*
X113771185Y-63816185D01*
X113850537Y-63719494D01*
X113909502Y-63609180D01*
X113945812Y-63489482D01*
X113958072Y-63365000D01*
X113958072Y-62365000D01*
X113945812Y-62240518D01*
X113909502Y-62120820D01*
X113850537Y-62010506D01*
X113771185Y-61913815D01*
X113674494Y-61834463D01*
X113564180Y-61775498D01*
X113444482Y-61739188D01*
X113320000Y-61726928D01*
X110170000Y-61726928D01*
X110045518Y-61739188D01*
X109925820Y-61775498D01*
X109912447Y-61782646D01*
X109658802Y-61529001D01*
X109635000Y-61499998D01*
X109519275Y-61405025D01*
X109387246Y-61334453D01*
X109243985Y-61290996D01*
X109132332Y-61279999D01*
X109132321Y-61279999D01*
X109094999Y-61276323D01*
X109057677Y-61279999D01*
X108716538Y-61279999D01*
X108721185Y-61276185D01*
X108800537Y-61179494D01*
X108859502Y-61069180D01*
X108895812Y-60949482D01*
X108908072Y-60825000D01*
X109531928Y-60825000D01*
X109544188Y-60949482D01*
X109580498Y-61069180D01*
X109639463Y-61179494D01*
X109718815Y-61276185D01*
X109815506Y-61355537D01*
X109925820Y-61414502D01*
X110045518Y-61450812D01*
X110170000Y-61463072D01*
X111459250Y-61460000D01*
X111618000Y-61301250D01*
X111618000Y-60452000D01*
X111872000Y-60452000D01*
X111872000Y-61301250D01*
X112030750Y-61460000D01*
X113320000Y-61463072D01*
X113444482Y-61450812D01*
X113564180Y-61414502D01*
X113674494Y-61355537D01*
X113771185Y-61276185D01*
X113850537Y-61179494D01*
X113909502Y-61069180D01*
X113945812Y-60949482D01*
X113958072Y-60825000D01*
X113955000Y-60610750D01*
X113796250Y-60452000D01*
X111872000Y-60452000D01*
X111618000Y-60452000D01*
X109693750Y-60452000D01*
X109535000Y-60610750D01*
X109531928Y-60825000D01*
X108908072Y-60825000D01*
X108908072Y-59825000D01*
X109531928Y-59825000D01*
X109535000Y-60039250D01*
X109693750Y-60198000D01*
X111618000Y-60198000D01*
X111618000Y-59348750D01*
X111872000Y-59348750D01*
X111872000Y-60198000D01*
X113796250Y-60198000D01*
X113955000Y-60039250D01*
X113958072Y-59825000D01*
X113945812Y-59700518D01*
X113909502Y-59580820D01*
X113850537Y-59470506D01*
X113771185Y-59373815D01*
X113674494Y-59294463D01*
X113564180Y-59235498D01*
X113444482Y-59199188D01*
X113320000Y-59186928D01*
X112030750Y-59190000D01*
X111872000Y-59348750D01*
X111618000Y-59348750D01*
X111459250Y-59190000D01*
X110170000Y-59186928D01*
X110045518Y-59199188D01*
X109925820Y-59235498D01*
X109815506Y-59294463D01*
X109718815Y-59373815D01*
X109639463Y-59470506D01*
X109580498Y-59580820D01*
X109544188Y-59700518D01*
X109531928Y-59825000D01*
X108908072Y-59825000D01*
X108895812Y-59700518D01*
X108859502Y-59580820D01*
X108800537Y-59470506D01*
X108721185Y-59373815D01*
X108624494Y-59294463D01*
X108514180Y-59235498D01*
X108394482Y-59199188D01*
X108270000Y-59186928D01*
X105120000Y-59186928D01*
X104995518Y-59199188D01*
X104875820Y-59235498D01*
X104765506Y-59294463D01*
X104668815Y-59373815D01*
X104589463Y-59470506D01*
X104538954Y-59565000D01*
X104208711Y-59565000D01*
X104164774Y-59521063D01*
X103995256Y-59407795D01*
X103880818Y-59360393D01*
X111001003Y-52240209D01*
X111030001Y-52216411D01*
X111124974Y-52100686D01*
X111195546Y-51968657D01*
X111239003Y-51825396D01*
X111250000Y-51713743D01*
X111253677Y-51676410D01*
X111250000Y-51639077D01*
X111250000Y-41312322D01*
X111253676Y-41274999D01*
X111250000Y-41237676D01*
X111250000Y-41237667D01*
X111239003Y-41126014D01*
X111195546Y-40982753D01*
X111124974Y-40850724D01*
X111074307Y-40788986D01*
X111053799Y-40763996D01*
X111053795Y-40763992D01*
X111030001Y-40734999D01*
X111001009Y-40711206D01*
X108985000Y-38695199D01*
X108985000Y-38633061D01*
X108945226Y-38433102D01*
X108867205Y-38244744D01*
X108753937Y-38075226D01*
X108609774Y-37931063D01*
X108440256Y-37817795D01*
X108251898Y-37739774D01*
X108051939Y-37700000D01*
X107848061Y-37700000D01*
X107648102Y-37739774D01*
X107459744Y-37817795D01*
X107290226Y-37931063D01*
X107146063Y-38075226D01*
X107032795Y-38244744D01*
X106954774Y-38433102D01*
X106915000Y-38633061D01*
X106915000Y-38836939D01*
X106954774Y-39036898D01*
X107032795Y-39225256D01*
X107146063Y-39394774D01*
X107290226Y-39538937D01*
X107459744Y-39652205D01*
X107648102Y-39730226D01*
X107848061Y-39770000D01*
X107910199Y-39770000D01*
X109730000Y-41589803D01*
X109730000Y-43247378D01*
X105431625Y-38949004D01*
X105407822Y-38920000D01*
X105292097Y-38825027D01*
X105160068Y-38754455D01*
X105016807Y-38710998D01*
X104905154Y-38700001D01*
X104905143Y-38700001D01*
X104867821Y-38696325D01*
X104830499Y-38700001D01*
X98829803Y-38700001D01*
X98825000Y-38695198D01*
X98825000Y-38633061D01*
X98785226Y-38433102D01*
X98707205Y-38244744D01*
X98593937Y-38075226D01*
X98449774Y-37931063D01*
X98280256Y-37817795D01*
X98091898Y-37739774D01*
X97891939Y-37700000D01*
X97688061Y-37700000D01*
X97488102Y-37739774D01*
X97299744Y-37817795D01*
X97130226Y-37931063D01*
X96986063Y-38075226D01*
X96872795Y-38244744D01*
X96794774Y-38433102D01*
X96755000Y-38633061D01*
X96755000Y-38836939D01*
X96794774Y-39036898D01*
X96872795Y-39225256D01*
X96986063Y-39394774D01*
X97130226Y-39538937D01*
X97299744Y-39652205D01*
X97488102Y-39730226D01*
X97688061Y-39770000D01*
X97750198Y-39770000D01*
X97860198Y-39880000D01*
X89849802Y-39880000D01*
X89422874Y-39453072D01*
X90890000Y-39453072D01*
X91014482Y-39440812D01*
X91134180Y-39404502D01*
X91244494Y-39345537D01*
X91341185Y-39266185D01*
X91420537Y-39169494D01*
X91479502Y-39059180D01*
X91515812Y-38939482D01*
X91528072Y-38815000D01*
X91528072Y-38303095D01*
X91538815Y-38316185D01*
X91635506Y-38395537D01*
X91745820Y-38454502D01*
X91865518Y-38490812D01*
X91990000Y-38503072D01*
X93890000Y-38503072D01*
X94014482Y-38490812D01*
X94134180Y-38454502D01*
X94244494Y-38395537D01*
X94341185Y-38316185D01*
X94420537Y-38219494D01*
X94479502Y-38109180D01*
X94515812Y-37989482D01*
X94528072Y-37865000D01*
X94528072Y-37065000D01*
X94515812Y-36940518D01*
X94479502Y-36820820D01*
X94420537Y-36710506D01*
X94341185Y-36613815D01*
X94272420Y-36557381D01*
X94442929Y-36386872D01*
X96124600Y-36386872D01*
X96249082Y-36374612D01*
X96368780Y-36338302D01*
X96479094Y-36279337D01*
X96575785Y-36199985D01*
X96655137Y-36103294D01*
X96714102Y-35992980D01*
X96719656Y-35974673D01*
X96786095Y-36041112D01*
X97037505Y-36209099D01*
X97316857Y-36324811D01*
X97613416Y-36383800D01*
X97915784Y-36383800D01*
X98173530Y-36332531D01*
X99182000Y-37341002D01*
X99205799Y-37370001D01*
X99234797Y-37393799D01*
X99321523Y-37464974D01*
X99326928Y-37467863D01*
X99326928Y-37680000D01*
X99339188Y-37804482D01*
X99375498Y-37924180D01*
X99434463Y-38034494D01*
X99513815Y-38131185D01*
X99610506Y-38210537D01*
X99720820Y-38269502D01*
X99840518Y-38305812D01*
X99965000Y-38318072D01*
X101965000Y-38318072D01*
X102089482Y-38305812D01*
X102209180Y-38269502D01*
X102319494Y-38210537D01*
X102416185Y-38131185D01*
X102495537Y-38034494D01*
X102554502Y-37924180D01*
X102590812Y-37804482D01*
X102603072Y-37680000D01*
X102603072Y-35980000D01*
X102590812Y-35855518D01*
X102554502Y-35735820D01*
X102495537Y-35625506D01*
X102416185Y-35528815D01*
X102319494Y-35449463D01*
X102209180Y-35390498D01*
X102089482Y-35354188D01*
X101965000Y-35341928D01*
X99965000Y-35341928D01*
X99840518Y-35354188D01*
X99720820Y-35390498D01*
X99610506Y-35449463D01*
X99516892Y-35526290D01*
X99248331Y-35257730D01*
X99299600Y-34999984D01*
X99299600Y-34697616D01*
X99240611Y-34401057D01*
X99204965Y-34315000D01*
X115545000Y-34315000D01*
X115545000Y-40810198D01*
X115545000Y-40810198D01*
G37*
X115545000Y-40810198D02*
X111053804Y-36319003D01*
X111030001Y-36289999D01*
X110914276Y-36195026D01*
X110782247Y-36124454D01*
X110638986Y-36080997D01*
X110527333Y-36070000D01*
X110527322Y-36070000D01*
X110490000Y-36066324D01*
X110452678Y-36070000D01*
X106603072Y-36070000D01*
X106603072Y-35980000D01*
X106590812Y-35855518D01*
X106554502Y-35735820D01*
X106495537Y-35625506D01*
X106416185Y-35528815D01*
X106319494Y-35449463D01*
X106209180Y-35390498D01*
X106089482Y-35354188D01*
X105965000Y-35341928D01*
X103965000Y-35341928D01*
X103840518Y-35354188D01*
X103720820Y-35390498D01*
X103610506Y-35449463D01*
X103513815Y-35528815D01*
X103434463Y-35625506D01*
X103375498Y-35735820D01*
X103339188Y-35855518D01*
X103326928Y-35980000D01*
X103326928Y-37680000D01*
X103339188Y-37804482D01*
X103375498Y-37924180D01*
X103434463Y-38034494D01*
X103513815Y-38131185D01*
X103610506Y-38210537D01*
X103720820Y-38269502D01*
X103840518Y-38305812D01*
X103965000Y-38318072D01*
X105965000Y-38318072D01*
X106089482Y-38305812D01*
X106209180Y-38269502D01*
X106319494Y-38210537D01*
X106416185Y-38131185D01*
X106495537Y-38034494D01*
X106554502Y-37924180D01*
X106590812Y-37804482D01*
X106603072Y-37680000D01*
X106603072Y-37590000D01*
X110175199Y-37590000D01*
X114810000Y-42224802D01*
X114810001Y-44242667D01*
X114810000Y-67185000D01*
X113849802Y-67185000D01*
X113207874Y-66543072D01*
X113320000Y-66543072D01*
X113444482Y-66530812D01*
X113564180Y-66494502D01*
X113674494Y-66435537D01*
X113771185Y-66356185D01*
X113850537Y-66259494D01*
X113909502Y-66149180D01*
X113945812Y-66029482D01*
X113958072Y-65905000D01*
X113958072Y-64905000D01*
X113945812Y-64780518D01*
X113909502Y-64660820D01*
X113850537Y-64550506D01*
X113771185Y-64453815D01*
X113674494Y-64374463D01*
X113564180Y-64315498D01*
X113444482Y-64279188D01*
X113320000Y-64266928D01*
X110170000Y-64266928D01*
X110045518Y-64279188D01*
X109980000Y-64299063D01*
X109980000Y-63970937D01*
X110045518Y-63990812D01*
X110170000Y-64003072D01*
X113320000Y-64003072D01*
X113444482Y-63990812D01*
X113564180Y-63954502D01*
X113674494Y-63895537D01*
X113771185Y-63816185D01*
X113850537Y-63719494D01*
X113909502Y-63609180D01*
X113945812Y-63489482D01*
X113958072Y-63365000D01*
X113958072Y-62365000D01*
X113945812Y-62240518D01*
X113909502Y-62120820D01*
X113850537Y-62010506D01*
X113771185Y-61913815D01*
X113674494Y-61834463D01*
X113564180Y-61775498D01*
X113444482Y-61739188D01*
X113320000Y-61726928D01*
X110170000Y-61726928D01*
X110045518Y-61739188D01*
X109925820Y-61775498D01*
X109912447Y-61782646D01*
X109658802Y-61529001D01*
X109635000Y-61499998D01*
X109519275Y-61405025D01*
X109387246Y-61334453D01*
X109243985Y-61290996D01*
X109132332Y-61279999D01*
X109132321Y-61279999D01*
X109094999Y-61276323D01*
X109057677Y-61279999D01*
X108716538Y-61279999D01*
X108721185Y-61276185D01*
X108800537Y-61179494D01*
X108859502Y-61069180D01*
X108895812Y-60949482D01*
X108908072Y-60825000D01*
X109531928Y-60825000D01*
X109544188Y-60949482D01*
X109580498Y-61069180D01*
X109639463Y-61179494D01*
X109718815Y-61276185D01*
X109815506Y-61355537D01*
X109925820Y-61414502D01*
X110045518Y-61450812D01*
X110170000Y-61463072D01*
X111459250Y-61460000D01*
X111618000Y-61301250D01*
X111618000Y-60452000D01*
X111872000Y-60452000D01*
X111872000Y-61301250D01*
X112030750Y-61460000D01*
X113320000Y-61463072D01*
X113444482Y-61450812D01*
X113564180Y-61414502D01*
X113674494Y-61355537D01*
X113771185Y-61276185D01*
X113850537Y-61179494D01*
X113909502Y-61069180D01*
X113945812Y-60949482D01*
X113958072Y-60825000D01*
X113955000Y-60610750D01*
X113796250Y-60452000D01*
X111872000Y-60452000D01*
X111618000Y-60452000D01*
X109693750Y-60452000D01*
X109535000Y-60610750D01*
X109531928Y-60825000D01*
X108908072Y-60825000D01*
X108908072Y-59825000D01*
X109531928Y-59825000D01*
X109535000Y-60039250D01*
X109693750Y-60198000D01*
X111618000Y-60198000D01*
X111618000Y-59348750D01*
X111872000Y-59348750D01*
X111872000Y-60198000D01*
X113796250Y-60198000D01*
X113955000Y-60039250D01*
X113958072Y-59825000D01*
X113945812Y-59700518D01*
X113909502Y-59580820D01*
X113850537Y-59470506D01*
X113771185Y-59373815D01*
X113674494Y-59294463D01*
X113564180Y-59235498D01*
X113444482Y-59199188D01*
X113320000Y-59186928D01*
X112030750Y-59190000D01*
X111872000Y-59348750D01*
X111618000Y-59348750D01*
X111459250Y-59190000D01*
X110170000Y-59186928D01*
X110045518Y-59199188D01*
X109925820Y-59235498D01*
X109815506Y-59294463D01*
X109718815Y-59373815D01*
X109639463Y-59470506D01*
X109580498Y-59580820D01*
X109544188Y-59700518D01*
X109531928Y-59825000D01*
X108908072Y-59825000D01*
X108895812Y-59700518D01*
X108859502Y-59580820D01*
X108800537Y-59470506D01*
X108721185Y-59373815D01*
X108624494Y-59294463D01*
X108514180Y-59235498D01*
X108394482Y-59199188D01*
X108270000Y-59186928D01*
X105120000Y-59186928D01*
X104995518Y-59199188D01*
X104875820Y-59235498D01*
X104765506Y-59294463D01*
X104668815Y-59373815D01*
X104589463Y-59470506D01*
X104538954Y-59565000D01*
X104208711Y-59565000D01*
X104164774Y-59521063D01*
X103995256Y-59407795D01*
X103880818Y-59360393D01*
X111001003Y-52240209D01*
X111030001Y-52216411D01*
X111124974Y-52100686D01*
X111195546Y-51968657D01*
X111239003Y-51825396D01*
X111250000Y-51713743D01*
X111253677Y-51676410D01*
X111250000Y-51639077D01*
X111250000Y-41312322D01*
X111253676Y-41274999D01*
X111250000Y-41237676D01*
X111250000Y-41237667D01*
X111239003Y-41126014D01*
X111195546Y-40982753D01*
X111124974Y-40850724D01*
X111074307Y-40788986D01*
X111053799Y-40763996D01*
X111053795Y-40763992D01*
X111030001Y-40734999D01*
X111001009Y-40711206D01*
X108985000Y-38695199D01*
X108985000Y-38633061D01*
X108945226Y-38433102D01*
X108867205Y-38244744D01*
X108753937Y-38075226D01*
X108609774Y-37931063D01*
X108440256Y-37817795D01*
X108251898Y-37739774D01*
X108051939Y-37700000D01*
X107848061Y-37700000D01*
X107648102Y-37739774D01*
X107459744Y-37817795D01*
X107290226Y-37931063D01*
X107146063Y-38075226D01*
X107032795Y-38244744D01*
X106954774Y-38433102D01*
X106915000Y-38633061D01*
X106915000Y-38836939D01*
X106954774Y-39036898D01*
X107032795Y-39225256D01*
X107146063Y-39394774D01*
X107290226Y-39538937D01*
X107459744Y-39652205D01*
X107648102Y-39730226D01*
X107848061Y-39770000D01*
X107910199Y-39770000D01*
X109730000Y-41589803D01*
X109730000Y-43247378D01*
X105431625Y-38949004D01*
X105407822Y-38920000D01*
X105292097Y-38825027D01*
X105160068Y-38754455D01*
X105016807Y-38710998D01*
X104905154Y-38700001D01*
X104905143Y-38700001D01*
X104867821Y-38696325D01*
X104830499Y-38700001D01*
X98829803Y-38700001D01*
X98825000Y-38695198D01*
X98825000Y-38633061D01*
X98785226Y-38433102D01*
X98707205Y-38244744D01*
X98593937Y-38075226D01*
X98449774Y-37931063D01*
X98280256Y-37817795D01*
X98091898Y-37739774D01*
X97891939Y-37700000D01*
X97688061Y-37700000D01*
X97488102Y-37739774D01*
X97299744Y-37817795D01*
X97130226Y-37931063D01*
X96986063Y-38075226D01*
X96872795Y-38244744D01*
X96794774Y-38433102D01*
X96755000Y-38633061D01*
X96755000Y-38836939D01*
X96794774Y-39036898D01*
X96872795Y-39225256D01*
X96986063Y-39394774D01*
X97130226Y-39538937D01*
X97299744Y-39652205D01*
X97488102Y-39730226D01*
X97688061Y-39770000D01*
X97750198Y-39770000D01*
X97860198Y-39880000D01*
X89849802Y-39880000D01*
X89422874Y-39453072D01*
X90890000Y-39453072D01*
X91014482Y-39440812D01*
X91134180Y-39404502D01*
X91244494Y-39345537D01*
X91341185Y-39266185D01*
X91420537Y-39169494D01*
X91479502Y-39059180D01*
X91515812Y-38939482D01*
X91528072Y-38815000D01*
X91528072Y-38303095D01*
X91538815Y-38316185D01*
X91635506Y-38395537D01*
X91745820Y-38454502D01*
X91865518Y-38490812D01*
X91990000Y-38503072D01*
X93890000Y-38503072D01*
X94014482Y-38490812D01*
X94134180Y-38454502D01*
X94244494Y-38395537D01*
X94341185Y-38316185D01*
X94420537Y-38219494D01*
X94479502Y-38109180D01*
X94515812Y-37989482D01*
X94528072Y-37865000D01*
X94528072Y-37065000D01*
X94515812Y-36940518D01*
X94479502Y-36820820D01*
X94420537Y-36710506D01*
X94341185Y-36613815D01*
X94272420Y-36557381D01*
X94442929Y-36386872D01*
X96124600Y-36386872D01*
X96249082Y-36374612D01*
X96368780Y-36338302D01*
X96479094Y-36279337D01*
X96575785Y-36199985D01*
X96655137Y-36103294D01*
X96714102Y-35992980D01*
X96719656Y-35974673D01*
X96786095Y-36041112D01*
X97037505Y-36209099D01*
X97316857Y-36324811D01*
X97613416Y-36383800D01*
X97915784Y-36383800D01*
X98173530Y-36332531D01*
X99182000Y-37341002D01*
X99205799Y-37370001D01*
X99234797Y-37393799D01*
X99321523Y-37464974D01*
X99326928Y-37467863D01*
X99326928Y-37680000D01*
X99339188Y-37804482D01*
X99375498Y-37924180D01*
X99434463Y-38034494D01*
X99513815Y-38131185D01*
X99610506Y-38210537D01*
X99720820Y-38269502D01*
X99840518Y-38305812D01*
X99965000Y-38318072D01*
X101965000Y-38318072D01*
X102089482Y-38305812D01*
X102209180Y-38269502D01*
X102319494Y-38210537D01*
X102416185Y-38131185D01*
X102495537Y-38034494D01*
X102554502Y-37924180D01*
X102590812Y-37804482D01*
X102603072Y-37680000D01*
X102603072Y-35980000D01*
X102590812Y-35855518D01*
X102554502Y-35735820D01*
X102495537Y-35625506D01*
X102416185Y-35528815D01*
X102319494Y-35449463D01*
X102209180Y-35390498D01*
X102089482Y-35354188D01*
X101965000Y-35341928D01*
X99965000Y-35341928D01*
X99840518Y-35354188D01*
X99720820Y-35390498D01*
X99610506Y-35449463D01*
X99516892Y-35526290D01*
X99248331Y-35257730D01*
X99299600Y-34999984D01*
X99299600Y-34697616D01*
X99240611Y-34401057D01*
X99204965Y-34315000D01*
X115545000Y-34315000D01*
X115545000Y-40810198D01*
G36*
X95992998Y-63944649D02*
G01*
X95974494Y-63929463D01*
X95919373Y-63900000D01*
X95986939Y-63900000D01*
X95992998Y-63898795D01*
X95992998Y-63944649D01*
X95992998Y-63944649D01*
G37*
X95992998Y-63944649D02*
X95974494Y-63929463D01*
X95919373Y-63900000D01*
X95986939Y-63900000D01*
X95992998Y-63898795D01*
X95992998Y-63944649D01*
G36*
X96247002Y-63856861D02*
G01*
X96247002Y-63835330D01*
X96261784Y-63829207D01*
X96247002Y-63856861D01*
X96247002Y-63856861D01*
G37*
X96247002Y-63856861D02*
X96247002Y-63835330D01*
X96261784Y-63829207D01*
X96247002Y-63856861D01*
G36*
X95368815Y-57911185D02*
G01*
X95465506Y-57990537D01*
X95542375Y-58031625D01*
X95605750Y-58095000D01*
X95620000Y-58098072D01*
X95720000Y-58088223D01*
X95820000Y-58098072D01*
X96420000Y-58098072D01*
X96520000Y-58088223D01*
X96620000Y-58098072D01*
X96634250Y-58095000D01*
X96697625Y-58031625D01*
X96774494Y-57990537D01*
X96871185Y-57911185D01*
X96891333Y-57886634D01*
X96895997Y-57933986D01*
X96939453Y-58077247D01*
X96960001Y-58115689D01*
X96960000Y-63372677D01*
X96959792Y-63374791D01*
X96957678Y-63374999D01*
X96957668Y-63374999D01*
X96846015Y-63385996D01*
X96765307Y-63410478D01*
X96802205Y-63355256D01*
X96880226Y-63166898D01*
X96920000Y-62966939D01*
X96920000Y-62763061D01*
X96880226Y-62563102D01*
X96802205Y-62374744D01*
X96688937Y-62205226D01*
X96544774Y-62061063D01*
X96375256Y-61947795D01*
X96186898Y-61869774D01*
X95986939Y-61830000D01*
X95783061Y-61830000D01*
X95642718Y-61857916D01*
X93833804Y-60049003D01*
X93810001Y-60019999D01*
X93694276Y-59925026D01*
X93658072Y-59905674D01*
X93658072Y-59460000D01*
X93648223Y-59360000D01*
X93658072Y-59260000D01*
X93658072Y-58660000D01*
X93648223Y-58560000D01*
X93658072Y-58460000D01*
X93658072Y-58098072D01*
X94020000Y-58098072D01*
X94120000Y-58088223D01*
X94220000Y-58098072D01*
X94820000Y-58098072D01*
X94920000Y-58088223D01*
X95020000Y-58098072D01*
X95034250Y-58095000D01*
X95097625Y-58031625D01*
X95174494Y-57990537D01*
X95271185Y-57911185D01*
X95320000Y-57851704D01*
X95368815Y-57911185D01*
X95368815Y-57911185D01*
G37*
X95368815Y-57911185D02*
X95465506Y-57990537D01*
X95542375Y-58031625D01*
X95605750Y-58095000D01*
X95620000Y-58098072D01*
X95720000Y-58088223D01*
X95820000Y-58098072D01*
X96420000Y-58098072D01*
X96520000Y-58088223D01*
X96620000Y-58098072D01*
X96634250Y-58095000D01*
X96697625Y-58031625D01*
X96774494Y-57990537D01*
X96871185Y-57911185D01*
X96891333Y-57886634D01*
X96895997Y-57933986D01*
X96939453Y-58077247D01*
X96960001Y-58115689D01*
X96960000Y-63372677D01*
X96959792Y-63374791D01*
X96957678Y-63374999D01*
X96957668Y-63374999D01*
X96846015Y-63385996D01*
X96765307Y-63410478D01*
X96802205Y-63355256D01*
X96880226Y-63166898D01*
X96920000Y-62966939D01*
X96920000Y-62763061D01*
X96880226Y-62563102D01*
X96802205Y-62374744D01*
X96688937Y-62205226D01*
X96544774Y-62061063D01*
X96375256Y-61947795D01*
X96186898Y-61869774D01*
X95986939Y-61830000D01*
X95783061Y-61830000D01*
X95642718Y-61857916D01*
X93833804Y-60049003D01*
X93810001Y-60019999D01*
X93694276Y-59925026D01*
X93658072Y-59905674D01*
X93658072Y-59460000D01*
X93648223Y-59360000D01*
X93658072Y-59260000D01*
X93658072Y-58660000D01*
X93648223Y-58560000D01*
X93658072Y-58460000D01*
X93658072Y-58098072D01*
X94020000Y-58098072D01*
X94120000Y-58088223D01*
X94220000Y-58098072D01*
X94820000Y-58098072D01*
X94920000Y-58088223D01*
X95020000Y-58098072D01*
X95034250Y-58095000D01*
X95097625Y-58031625D01*
X95174494Y-57990537D01*
X95271185Y-57911185D01*
X95320000Y-57851704D01*
X95368815Y-57911185D01*
G36*
X107825000Y-44764803D02*
G01*
X107825001Y-49480197D01*
X107235822Y-50069376D01*
X107248072Y-49945000D01*
X107248072Y-47845000D01*
X107235812Y-47720518D01*
X107199502Y-47600820D01*
X107140537Y-47490506D01*
X107061185Y-47393815D01*
X106964494Y-47314463D01*
X106854180Y-47255498D01*
X106734482Y-47219188D01*
X106610000Y-47206928D01*
X101010000Y-47206928D01*
X100966057Y-47211256D01*
X100900000Y-47145199D01*
X100900000Y-45888072D01*
X101140000Y-45888072D01*
X101264482Y-45875812D01*
X101384180Y-45839502D01*
X101494494Y-45780537D01*
X101591185Y-45701185D01*
X101670537Y-45604494D01*
X101729502Y-45494180D01*
X101765812Y-45374482D01*
X101778072Y-45250000D01*
X102501928Y-45250000D01*
X102514188Y-45374482D01*
X102550498Y-45494180D01*
X102609463Y-45604494D01*
X102688815Y-45701185D01*
X102785506Y-45780537D01*
X102895820Y-45839502D01*
X103015518Y-45875812D01*
X103140000Y-45888072D01*
X103854250Y-45885000D01*
X104013000Y-45726250D01*
X104013000Y-44577000D01*
X104267000Y-44577000D01*
X104267000Y-45726250D01*
X104425750Y-45885000D01*
X105140000Y-45888072D01*
X105264482Y-45875812D01*
X105384180Y-45839502D01*
X105494494Y-45780537D01*
X105591185Y-45701185D01*
X105670537Y-45604494D01*
X105729502Y-45494180D01*
X105765812Y-45374482D01*
X105778072Y-45250000D01*
X105775000Y-44735750D01*
X105616250Y-44577000D01*
X104267000Y-44577000D01*
X104013000Y-44577000D01*
X102663750Y-44577000D01*
X102505000Y-44735750D01*
X102501928Y-45250000D01*
X101778072Y-45250000D01*
X101778072Y-43650000D01*
X102501928Y-43650000D01*
X102505000Y-44164250D01*
X102663750Y-44323000D01*
X104013000Y-44323000D01*
X104013000Y-43173750D01*
X104267000Y-43173750D01*
X104267000Y-44323000D01*
X105616250Y-44323000D01*
X105775000Y-44164250D01*
X105778072Y-43650000D01*
X105765812Y-43525518D01*
X105729502Y-43405820D01*
X105670537Y-43295506D01*
X105591185Y-43198815D01*
X105494494Y-43119463D01*
X105384180Y-43060498D01*
X105264482Y-43024188D01*
X105140000Y-43011928D01*
X104425750Y-43015000D01*
X104267000Y-43173750D01*
X104013000Y-43173750D01*
X103854250Y-43015000D01*
X103140000Y-43011928D01*
X103015518Y-43024188D01*
X102895820Y-43060498D01*
X102785506Y-43119463D01*
X102688815Y-43198815D01*
X102609463Y-43295506D01*
X102550498Y-43405820D01*
X102514188Y-43525518D01*
X102501928Y-43650000D01*
X101778072Y-43650000D01*
X101765812Y-43525518D01*
X101729502Y-43405820D01*
X101670537Y-43295506D01*
X101591185Y-43198815D01*
X101494494Y-43119463D01*
X101384180Y-43060498D01*
X101264482Y-43024188D01*
X101140000Y-43011928D01*
X99140000Y-43011928D01*
X99015518Y-43024188D01*
X98895820Y-43060498D01*
X98785506Y-43119463D01*
X98688815Y-43198815D01*
X98609463Y-43295506D01*
X98550498Y-43405820D01*
X98514188Y-43525518D01*
X98501928Y-43650000D01*
X98501928Y-45250000D01*
X98514188Y-45374482D01*
X98550498Y-45494180D01*
X98609463Y-45604494D01*
X98688815Y-45701185D01*
X98785506Y-45780537D01*
X98895820Y-45839502D01*
X99015518Y-45875812D01*
X99140000Y-45888072D01*
X99380000Y-45888072D01*
X99380001Y-47422668D01*
X99376324Y-47460000D01*
X99390998Y-47608985D01*
X99434454Y-47752246D01*
X99505026Y-47884276D01*
X99576201Y-47971002D01*
X99600000Y-48000001D01*
X99628998Y-48023799D01*
X100371928Y-48766730D01*
X100371928Y-49945000D01*
X100384188Y-50069482D01*
X100420498Y-50189180D01*
X100479463Y-50299494D01*
X100558815Y-50396185D01*
X100655506Y-50475537D01*
X100765820Y-50534502D01*
X100815000Y-50549421D01*
X100815001Y-54690197D01*
X100030101Y-55475098D01*
X99974494Y-55429463D01*
X99864180Y-55370498D01*
X99744482Y-55334188D01*
X99620000Y-55321928D01*
X99280000Y-55321928D01*
X99280000Y-53627325D01*
X99283676Y-53590000D01*
X99280000Y-53552675D01*
X99280000Y-53552667D01*
X99269003Y-53441014D01*
X99225546Y-53297753D01*
X99154974Y-53165724D01*
X99060001Y-53049999D01*
X99031004Y-53026202D01*
X96587873Y-50583072D01*
X97110000Y-50583072D01*
X97234482Y-50570812D01*
X97354180Y-50534502D01*
X97464494Y-50475537D01*
X97561185Y-50396185D01*
X97640537Y-50299494D01*
X97699502Y-50189180D01*
X97735812Y-50069482D01*
X97748072Y-49945000D01*
X97748072Y-47845000D01*
X97735812Y-47720518D01*
X97699502Y-47600820D01*
X97640537Y-47490506D01*
X97561185Y-47393815D01*
X97464494Y-47314463D01*
X97354180Y-47255498D01*
X97234482Y-47219188D01*
X97110000Y-47206928D01*
X91510000Y-47206928D01*
X91466058Y-47211256D01*
X90740000Y-46485199D01*
X90740000Y-45888072D01*
X90980000Y-45888072D01*
X91104482Y-45875812D01*
X91224180Y-45839502D01*
X91334494Y-45780537D01*
X91431185Y-45701185D01*
X91510537Y-45604494D01*
X91569502Y-45494180D01*
X91605812Y-45374482D01*
X91618072Y-45250000D01*
X92341928Y-45250000D01*
X92354188Y-45374482D01*
X92390498Y-45494180D01*
X92449463Y-45604494D01*
X92528815Y-45701185D01*
X92625506Y-45780537D01*
X92735820Y-45839502D01*
X92855518Y-45875812D01*
X92980000Y-45888072D01*
X93694250Y-45885000D01*
X93853000Y-45726250D01*
X93853000Y-44577000D01*
X94107000Y-44577000D01*
X94107000Y-45726250D01*
X94265750Y-45885000D01*
X94980000Y-45888072D01*
X95104482Y-45875812D01*
X95224180Y-45839502D01*
X95334494Y-45780537D01*
X95431185Y-45701185D01*
X95510537Y-45604494D01*
X95569502Y-45494180D01*
X95605812Y-45374482D01*
X95618072Y-45250000D01*
X95615000Y-44735750D01*
X95456250Y-44577000D01*
X94107000Y-44577000D01*
X93853000Y-44577000D01*
X92503750Y-44577000D01*
X92345000Y-44735750D01*
X92341928Y-45250000D01*
X91618072Y-45250000D01*
X91618072Y-43650000D01*
X92341928Y-43650000D01*
X92345000Y-44164250D01*
X92503750Y-44323000D01*
X93853000Y-44323000D01*
X93853000Y-43173750D01*
X94107000Y-43173750D01*
X94107000Y-44323000D01*
X95456250Y-44323000D01*
X95615000Y-44164250D01*
X95618072Y-43650000D01*
X95605812Y-43525518D01*
X95569502Y-43405820D01*
X95510537Y-43295506D01*
X95431185Y-43198815D01*
X95334494Y-43119463D01*
X95224180Y-43060498D01*
X95104482Y-43024188D01*
X94980000Y-43011928D01*
X94265750Y-43015000D01*
X94107000Y-43173750D01*
X93853000Y-43173750D01*
X93694250Y-43015000D01*
X92980000Y-43011928D01*
X92855518Y-43024188D01*
X92735820Y-43060498D01*
X92625506Y-43119463D01*
X92528815Y-43198815D01*
X92449463Y-43295506D01*
X92390498Y-43405820D01*
X92354188Y-43525518D01*
X92341928Y-43650000D01*
X91618072Y-43650000D01*
X91605812Y-43525518D01*
X91569502Y-43405820D01*
X91510537Y-43295506D01*
X91431185Y-43198815D01*
X91334494Y-43119463D01*
X91224180Y-43060498D01*
X91104482Y-43024188D01*
X90980000Y-43011928D01*
X88980000Y-43011928D01*
X88855518Y-43024188D01*
X88735820Y-43060498D01*
X88625506Y-43119463D01*
X88528815Y-43198815D01*
X88449463Y-43295506D01*
X88390498Y-43405820D01*
X88354188Y-43525518D01*
X88341928Y-43650000D01*
X88341928Y-45250000D01*
X88354188Y-45374482D01*
X88390498Y-45494180D01*
X88449463Y-45604494D01*
X88528815Y-45701185D01*
X88625506Y-45780537D01*
X88735820Y-45839502D01*
X88855518Y-45875812D01*
X88980000Y-45888072D01*
X89220001Y-45888072D01*
X89220001Y-46762668D01*
X89216324Y-46800000D01*
X89230998Y-46948985D01*
X89274454Y-47092246D01*
X89345026Y-47224276D01*
X89370650Y-47255498D01*
X89440000Y-47340001D01*
X89468998Y-47363799D01*
X90871928Y-48766730D01*
X90871928Y-49945000D01*
X90884188Y-50069482D01*
X90920498Y-50189180D01*
X90979463Y-50299494D01*
X91058815Y-50396185D01*
X91155506Y-50475537D01*
X91265820Y-50534502D01*
X91385518Y-50570812D01*
X91510000Y-50583072D01*
X94438271Y-50583072D01*
X97760000Y-53904802D01*
X97760001Y-54882649D01*
X97682332Y-54874999D01*
X97682321Y-54874999D01*
X97644999Y-54871323D01*
X97607677Y-54874999D01*
X96232323Y-54874999D01*
X96195000Y-54871323D01*
X96157678Y-54874999D01*
X96157668Y-54874999D01*
X96046015Y-54885996D01*
X95902754Y-54929453D01*
X95770725Y-55000025D01*
X95655000Y-55094998D01*
X95631200Y-55123998D01*
X95609000Y-55146198D01*
X95579999Y-55169999D01*
X95524871Y-55237174D01*
X95485026Y-55285724D01*
X95439713Y-55370498D01*
X95414454Y-55417754D01*
X95392803Y-55489128D01*
X95368815Y-55508815D01*
X95320000Y-55568296D01*
X95271185Y-55508815D01*
X95174494Y-55429463D01*
X95097625Y-55388375D01*
X95034250Y-55325000D01*
X95020000Y-55321928D01*
X94920000Y-55331777D01*
X94820000Y-55321928D01*
X94472598Y-55321928D01*
X94469003Y-55285426D01*
X94425546Y-55142165D01*
X94354974Y-55010135D01*
X94283799Y-54923409D01*
X94260001Y-54894411D01*
X94231003Y-54870613D01*
X82030389Y-42670000D01*
X105730199Y-42670000D01*
X107825000Y-44764803D01*
X107825000Y-44764803D01*
G37*
X107825000Y-44764803D02*
X107825001Y-49480197D01*
X107235822Y-50069376D01*
X107248072Y-49945000D01*
X107248072Y-47845000D01*
X107235812Y-47720518D01*
X107199502Y-47600820D01*
X107140537Y-47490506D01*
X107061185Y-47393815D01*
X106964494Y-47314463D01*
X106854180Y-47255498D01*
X106734482Y-47219188D01*
X106610000Y-47206928D01*
X101010000Y-47206928D01*
X100966057Y-47211256D01*
X100900000Y-47145199D01*
X100900000Y-45888072D01*
X101140000Y-45888072D01*
X101264482Y-45875812D01*
X101384180Y-45839502D01*
X101494494Y-45780537D01*
X101591185Y-45701185D01*
X101670537Y-45604494D01*
X101729502Y-45494180D01*
X101765812Y-45374482D01*
X101778072Y-45250000D01*
X102501928Y-45250000D01*
X102514188Y-45374482D01*
X102550498Y-45494180D01*
X102609463Y-45604494D01*
X102688815Y-45701185D01*
X102785506Y-45780537D01*
X102895820Y-45839502D01*
X103015518Y-45875812D01*
X103140000Y-45888072D01*
X103854250Y-45885000D01*
X104013000Y-45726250D01*
X104013000Y-44577000D01*
X104267000Y-44577000D01*
X104267000Y-45726250D01*
X104425750Y-45885000D01*
X105140000Y-45888072D01*
X105264482Y-45875812D01*
X105384180Y-45839502D01*
X105494494Y-45780537D01*
X105591185Y-45701185D01*
X105670537Y-45604494D01*
X105729502Y-45494180D01*
X105765812Y-45374482D01*
X105778072Y-45250000D01*
X105775000Y-44735750D01*
X105616250Y-44577000D01*
X104267000Y-44577000D01*
X104013000Y-44577000D01*
X102663750Y-44577000D01*
X102505000Y-44735750D01*
X102501928Y-45250000D01*
X101778072Y-45250000D01*
X101778072Y-43650000D01*
X102501928Y-43650000D01*
X102505000Y-44164250D01*
X102663750Y-44323000D01*
X104013000Y-44323000D01*
X104013000Y-43173750D01*
X104267000Y-43173750D01*
X104267000Y-44323000D01*
X105616250Y-44323000D01*
X105775000Y-44164250D01*
X105778072Y-43650000D01*
X105765812Y-43525518D01*
X105729502Y-43405820D01*
X105670537Y-43295506D01*
X105591185Y-43198815D01*
X105494494Y-43119463D01*
X105384180Y-43060498D01*
X105264482Y-43024188D01*
X105140000Y-43011928D01*
X104425750Y-43015000D01*
X104267000Y-43173750D01*
X104013000Y-43173750D01*
X103854250Y-43015000D01*
X103140000Y-43011928D01*
X103015518Y-43024188D01*
X102895820Y-43060498D01*
X102785506Y-43119463D01*
X102688815Y-43198815D01*
X102609463Y-43295506D01*
X102550498Y-43405820D01*
X102514188Y-43525518D01*
X102501928Y-43650000D01*
X101778072Y-43650000D01*
X101765812Y-43525518D01*
X101729502Y-43405820D01*
X101670537Y-43295506D01*
X101591185Y-43198815D01*
X101494494Y-43119463D01*
X101384180Y-43060498D01*
X101264482Y-43024188D01*
X101140000Y-43011928D01*
X99140000Y-43011928D01*
X99015518Y-43024188D01*
X98895820Y-43060498D01*
X98785506Y-43119463D01*
X98688815Y-43198815D01*
X98609463Y-43295506D01*
X98550498Y-43405820D01*
X98514188Y-43525518D01*
X98501928Y-43650000D01*
X98501928Y-45250000D01*
X98514188Y-45374482D01*
X98550498Y-45494180D01*
X98609463Y-45604494D01*
X98688815Y-45701185D01*
X98785506Y-45780537D01*
X98895820Y-45839502D01*
X99015518Y-45875812D01*
X99140000Y-45888072D01*
X99380000Y-45888072D01*
X99380001Y-47422668D01*
X99376324Y-47460000D01*
X99390998Y-47608985D01*
X99434454Y-47752246D01*
X99505026Y-47884276D01*
X99576201Y-47971002D01*
X99600000Y-48000001D01*
X99628998Y-48023799D01*
X100371928Y-48766730D01*
X100371928Y-49945000D01*
X100384188Y-50069482D01*
X100420498Y-50189180D01*
X100479463Y-50299494D01*
X100558815Y-50396185D01*
X100655506Y-50475537D01*
X100765820Y-50534502D01*
X100815000Y-50549421D01*
X100815001Y-54690197D01*
X100030101Y-55475098D01*
X99974494Y-55429463D01*
X99864180Y-55370498D01*
X99744482Y-55334188D01*
X99620000Y-55321928D01*
X99280000Y-55321928D01*
X99280000Y-53627325D01*
X99283676Y-53590000D01*
X99280000Y-53552675D01*
X99280000Y-53552667D01*
X99269003Y-53441014D01*
X99225546Y-53297753D01*
X99154974Y-53165724D01*
X99060001Y-53049999D01*
X99031004Y-53026202D01*
X96587873Y-50583072D01*
X97110000Y-50583072D01*
X97234482Y-50570812D01*
X97354180Y-50534502D01*
X97464494Y-50475537D01*
X97561185Y-50396185D01*
X97640537Y-50299494D01*
X97699502Y-50189180D01*
X97735812Y-50069482D01*
X97748072Y-49945000D01*
X97748072Y-47845000D01*
X97735812Y-47720518D01*
X97699502Y-47600820D01*
X97640537Y-47490506D01*
X97561185Y-47393815D01*
X97464494Y-47314463D01*
X97354180Y-47255498D01*
X97234482Y-47219188D01*
X97110000Y-47206928D01*
X91510000Y-47206928D01*
X91466058Y-47211256D01*
X90740000Y-46485199D01*
X90740000Y-45888072D01*
X90980000Y-45888072D01*
X91104482Y-45875812D01*
X91224180Y-45839502D01*
X91334494Y-45780537D01*
X91431185Y-45701185D01*
X91510537Y-45604494D01*
X91569502Y-45494180D01*
X91605812Y-45374482D01*
X91618072Y-45250000D01*
X92341928Y-45250000D01*
X92354188Y-45374482D01*
X92390498Y-45494180D01*
X92449463Y-45604494D01*
X92528815Y-45701185D01*
X92625506Y-45780537D01*
X92735820Y-45839502D01*
X92855518Y-45875812D01*
X92980000Y-45888072D01*
X93694250Y-45885000D01*
X93853000Y-45726250D01*
X93853000Y-44577000D01*
X94107000Y-44577000D01*
X94107000Y-45726250D01*
X94265750Y-45885000D01*
X94980000Y-45888072D01*
X95104482Y-45875812D01*
X95224180Y-45839502D01*
X95334494Y-45780537D01*
X95431185Y-45701185D01*
X95510537Y-45604494D01*
X95569502Y-45494180D01*
X95605812Y-45374482D01*
X95618072Y-45250000D01*
X95615000Y-44735750D01*
X95456250Y-44577000D01*
X94107000Y-44577000D01*
X93853000Y-44577000D01*
X92503750Y-44577000D01*
X92345000Y-44735750D01*
X92341928Y-45250000D01*
X91618072Y-45250000D01*
X91618072Y-43650000D01*
X92341928Y-43650000D01*
X92345000Y-44164250D01*
X92503750Y-44323000D01*
X93853000Y-44323000D01*
X93853000Y-43173750D01*
X94107000Y-43173750D01*
X94107000Y-44323000D01*
X95456250Y-44323000D01*
X95615000Y-44164250D01*
X95618072Y-43650000D01*
X95605812Y-43525518D01*
X95569502Y-43405820D01*
X95510537Y-43295506D01*
X95431185Y-43198815D01*
X95334494Y-43119463D01*
X95224180Y-43060498D01*
X95104482Y-43024188D01*
X94980000Y-43011928D01*
X94265750Y-43015000D01*
X94107000Y-43173750D01*
X93853000Y-43173750D01*
X93694250Y-43015000D01*
X92980000Y-43011928D01*
X92855518Y-43024188D01*
X92735820Y-43060498D01*
X92625506Y-43119463D01*
X92528815Y-43198815D01*
X92449463Y-43295506D01*
X92390498Y-43405820D01*
X92354188Y-43525518D01*
X92341928Y-43650000D01*
X91618072Y-43650000D01*
X91605812Y-43525518D01*
X91569502Y-43405820D01*
X91510537Y-43295506D01*
X91431185Y-43198815D01*
X91334494Y-43119463D01*
X91224180Y-43060498D01*
X91104482Y-43024188D01*
X90980000Y-43011928D01*
X88980000Y-43011928D01*
X88855518Y-43024188D01*
X88735820Y-43060498D01*
X88625506Y-43119463D01*
X88528815Y-43198815D01*
X88449463Y-43295506D01*
X88390498Y-43405820D01*
X88354188Y-43525518D01*
X88341928Y-43650000D01*
X88341928Y-45250000D01*
X88354188Y-45374482D01*
X88390498Y-45494180D01*
X88449463Y-45604494D01*
X88528815Y-45701185D01*
X88625506Y-45780537D01*
X88735820Y-45839502D01*
X88855518Y-45875812D01*
X88980000Y-45888072D01*
X89220001Y-45888072D01*
X89220001Y-46762668D01*
X89216324Y-46800000D01*
X89230998Y-46948985D01*
X89274454Y-47092246D01*
X89345026Y-47224276D01*
X89370650Y-47255498D01*
X89440000Y-47340001D01*
X89468998Y-47363799D01*
X90871928Y-48766730D01*
X90871928Y-49945000D01*
X90884188Y-50069482D01*
X90920498Y-50189180D01*
X90979463Y-50299494D01*
X91058815Y-50396185D01*
X91155506Y-50475537D01*
X91265820Y-50534502D01*
X91385518Y-50570812D01*
X91510000Y-50583072D01*
X94438271Y-50583072D01*
X97760000Y-53904802D01*
X97760001Y-54882649D01*
X97682332Y-54874999D01*
X97682321Y-54874999D01*
X97644999Y-54871323D01*
X97607677Y-54874999D01*
X96232323Y-54874999D01*
X96195000Y-54871323D01*
X96157678Y-54874999D01*
X96157668Y-54874999D01*
X96046015Y-54885996D01*
X95902754Y-54929453D01*
X95770725Y-55000025D01*
X95655000Y-55094998D01*
X95631200Y-55123998D01*
X95609000Y-55146198D01*
X95579999Y-55169999D01*
X95524871Y-55237174D01*
X95485026Y-55285724D01*
X95439713Y-55370498D01*
X95414454Y-55417754D01*
X95392803Y-55489128D01*
X95368815Y-55508815D01*
X95320000Y-55568296D01*
X95271185Y-55508815D01*
X95174494Y-55429463D01*
X95097625Y-55388375D01*
X95034250Y-55325000D01*
X95020000Y-55321928D01*
X94920000Y-55331777D01*
X94820000Y-55321928D01*
X94472598Y-55321928D01*
X94469003Y-55285426D01*
X94425546Y-55142165D01*
X94354974Y-55010135D01*
X94283799Y-54923409D01*
X94260001Y-54894411D01*
X94231003Y-54870613D01*
X82030389Y-42670000D01*
X105730199Y-42670000D01*
X107825000Y-44764803D01*
G36*
X93686528Y-34993670D02*
G01*
X92428998Y-36251201D01*
X92400000Y-36274999D01*
X92376202Y-36303997D01*
X92376201Y-36303998D01*
X92305026Y-36390724D01*
X92285674Y-36426928D01*
X91990000Y-36426928D01*
X91865518Y-36439188D01*
X91745820Y-36475498D01*
X91635506Y-36534463D01*
X91538815Y-36613815D01*
X91459463Y-36710506D01*
X91450857Y-36726607D01*
X91366250Y-36642000D01*
X90067000Y-36642000D01*
X90067000Y-36662000D01*
X89813000Y-36662000D01*
X89813000Y-36642000D01*
X88513750Y-36642000D01*
X88450750Y-36705000D01*
X86918072Y-36705000D01*
X86918072Y-36615000D01*
X86905812Y-36490518D01*
X86869502Y-36370820D01*
X86810537Y-36260506D01*
X86731185Y-36163815D01*
X86671704Y-36115000D01*
X88351928Y-36115000D01*
X88355000Y-36229250D01*
X88513750Y-36388000D01*
X89813000Y-36388000D01*
X89813000Y-35638750D01*
X90067000Y-35638750D01*
X90067000Y-36388000D01*
X91366250Y-36388000D01*
X91525000Y-36229250D01*
X91528072Y-36115000D01*
X91515812Y-35990518D01*
X91479502Y-35870820D01*
X91420537Y-35760506D01*
X91341185Y-35663815D01*
X91244494Y-35584463D01*
X91134180Y-35525498D01*
X91014482Y-35489188D01*
X90890000Y-35476928D01*
X90225750Y-35480000D01*
X90067000Y-35638750D01*
X89813000Y-35638750D01*
X89654250Y-35480000D01*
X88990000Y-35476928D01*
X88865518Y-35489188D01*
X88745820Y-35525498D01*
X88635506Y-35584463D01*
X88538815Y-35663815D01*
X88459463Y-35760506D01*
X88400498Y-35870820D01*
X88364188Y-35990518D01*
X88351928Y-36115000D01*
X86671704Y-36115000D01*
X86634494Y-36084463D01*
X86524180Y-36025498D01*
X86404482Y-35989188D01*
X86280000Y-35976928D01*
X84280000Y-35976928D01*
X84155518Y-35989188D01*
X84035820Y-36025498D01*
X83925506Y-36084463D01*
X83828815Y-36163815D01*
X83749463Y-36260506D01*
X83690498Y-36370820D01*
X83654188Y-36490518D01*
X83641928Y-36615000D01*
X83641928Y-38315000D01*
X83654188Y-38439482D01*
X83690498Y-38559180D01*
X83749463Y-38669494D01*
X83828815Y-38766185D01*
X83925506Y-38845537D01*
X84035820Y-38904502D01*
X84155518Y-38940812D01*
X84280000Y-38953072D01*
X86280000Y-38953072D01*
X86404482Y-38940812D01*
X86524180Y-38904502D01*
X86600341Y-38863792D01*
X86634774Y-39036898D01*
X86712795Y-39225256D01*
X86826063Y-39394774D01*
X86970226Y-39538937D01*
X87139744Y-39652205D01*
X87328102Y-39730226D01*
X87528061Y-39770000D01*
X87590199Y-39770000D01*
X88970198Y-41150000D01*
X81594802Y-41150000D01*
X79140000Y-38695199D01*
X79140000Y-38633061D01*
X79100226Y-38433102D01*
X79022205Y-38244744D01*
X79009013Y-38225000D01*
X79641928Y-38225000D01*
X79641928Y-38315000D01*
X79654188Y-38439482D01*
X79690498Y-38559180D01*
X79749463Y-38669494D01*
X79828815Y-38766185D01*
X79925506Y-38845537D01*
X80035820Y-38904502D01*
X80155518Y-38940812D01*
X80280000Y-38953072D01*
X82280000Y-38953072D01*
X82404482Y-38940812D01*
X82524180Y-38904502D01*
X82634494Y-38845537D01*
X82731185Y-38766185D01*
X82810537Y-38669494D01*
X82869502Y-38559180D01*
X82905812Y-38439482D01*
X82918072Y-38315000D01*
X82918072Y-36615000D01*
X82905812Y-36490518D01*
X82869502Y-36370820D01*
X82810537Y-36260506D01*
X82731185Y-36163815D01*
X82634494Y-36084463D01*
X82524180Y-36025498D01*
X82404482Y-35989188D01*
X82280000Y-35976928D01*
X80280000Y-35976928D01*
X80155518Y-35989188D01*
X80035820Y-36025498D01*
X79925506Y-36084463D01*
X79828815Y-36163815D01*
X79749463Y-36260506D01*
X79690498Y-36370820D01*
X79654188Y-36490518D01*
X79641928Y-36615000D01*
X79641928Y-36705000D01*
X78339320Y-36705000D01*
X78301997Y-36701324D01*
X78264674Y-36705000D01*
X78264665Y-36705000D01*
X78153012Y-36715997D01*
X78009751Y-36759454D01*
X77877722Y-36830026D01*
X77877720Y-36830027D01*
X77877721Y-36830027D01*
X77790994Y-36901201D01*
X77790990Y-36901205D01*
X77761997Y-36924999D01*
X77738203Y-36953992D01*
X77595000Y-37097195D01*
X77595000Y-36509801D01*
X78143602Y-35961200D01*
X78205739Y-35961200D01*
X78405698Y-35921426D01*
X78594056Y-35843405D01*
X78763574Y-35730137D01*
X78907737Y-35585974D01*
X79021005Y-35416456D01*
X79099026Y-35228098D01*
X79138800Y-35028139D01*
X79138800Y-34824261D01*
X79099026Y-34624302D01*
X79021005Y-34435944D01*
X78940193Y-34315000D01*
X93686528Y-34315000D01*
X93686528Y-34993670D01*
X93686528Y-34993670D01*
G37*
X93686528Y-34993670D02*
X92428998Y-36251201D01*
X92400000Y-36274999D01*
X92376202Y-36303997D01*
X92376201Y-36303998D01*
X92305026Y-36390724D01*
X92285674Y-36426928D01*
X91990000Y-36426928D01*
X91865518Y-36439188D01*
X91745820Y-36475498D01*
X91635506Y-36534463D01*
X91538815Y-36613815D01*
X91459463Y-36710506D01*
X91450857Y-36726607D01*
X91366250Y-36642000D01*
X90067000Y-36642000D01*
X90067000Y-36662000D01*
X89813000Y-36662000D01*
X89813000Y-36642000D01*
X88513750Y-36642000D01*
X88450750Y-36705000D01*
X86918072Y-36705000D01*
X86918072Y-36615000D01*
X86905812Y-36490518D01*
X86869502Y-36370820D01*
X86810537Y-36260506D01*
X86731185Y-36163815D01*
X86671704Y-36115000D01*
X88351928Y-36115000D01*
X88355000Y-36229250D01*
X88513750Y-36388000D01*
X89813000Y-36388000D01*
X89813000Y-35638750D01*
X90067000Y-35638750D01*
X90067000Y-36388000D01*
X91366250Y-36388000D01*
X91525000Y-36229250D01*
X91528072Y-36115000D01*
X91515812Y-35990518D01*
X91479502Y-35870820D01*
X91420537Y-35760506D01*
X91341185Y-35663815D01*
X91244494Y-35584463D01*
X91134180Y-35525498D01*
X91014482Y-35489188D01*
X90890000Y-35476928D01*
X90225750Y-35480000D01*
X90067000Y-35638750D01*
X89813000Y-35638750D01*
X89654250Y-35480000D01*
X88990000Y-35476928D01*
X88865518Y-35489188D01*
X88745820Y-35525498D01*
X88635506Y-35584463D01*
X88538815Y-35663815D01*
X88459463Y-35760506D01*
X88400498Y-35870820D01*
X88364188Y-35990518D01*
X88351928Y-36115000D01*
X86671704Y-36115000D01*
X86634494Y-36084463D01*
X86524180Y-36025498D01*
X86404482Y-35989188D01*
X86280000Y-35976928D01*
X84280000Y-35976928D01*
X84155518Y-35989188D01*
X84035820Y-36025498D01*
X83925506Y-36084463D01*
X83828815Y-36163815D01*
X83749463Y-36260506D01*
X83690498Y-36370820D01*
X83654188Y-36490518D01*
X83641928Y-36615000D01*
X83641928Y-38315000D01*
X83654188Y-38439482D01*
X83690498Y-38559180D01*
X83749463Y-38669494D01*
X83828815Y-38766185D01*
X83925506Y-38845537D01*
X84035820Y-38904502D01*
X84155518Y-38940812D01*
X84280000Y-38953072D01*
X86280000Y-38953072D01*
X86404482Y-38940812D01*
X86524180Y-38904502D01*
X86600341Y-38863792D01*
X86634774Y-39036898D01*
X86712795Y-39225256D01*
X86826063Y-39394774D01*
X86970226Y-39538937D01*
X87139744Y-39652205D01*
X87328102Y-39730226D01*
X87528061Y-39770000D01*
X87590199Y-39770000D01*
X88970198Y-41150000D01*
X81594802Y-41150000D01*
X79140000Y-38695199D01*
X79140000Y-38633061D01*
X79100226Y-38433102D01*
X79022205Y-38244744D01*
X79009013Y-38225000D01*
X79641928Y-38225000D01*
X79641928Y-38315000D01*
X79654188Y-38439482D01*
X79690498Y-38559180D01*
X79749463Y-38669494D01*
X79828815Y-38766185D01*
X79925506Y-38845537D01*
X80035820Y-38904502D01*
X80155518Y-38940812D01*
X80280000Y-38953072D01*
X82280000Y-38953072D01*
X82404482Y-38940812D01*
X82524180Y-38904502D01*
X82634494Y-38845537D01*
X82731185Y-38766185D01*
X82810537Y-38669494D01*
X82869502Y-38559180D01*
X82905812Y-38439482D01*
X82918072Y-38315000D01*
X82918072Y-36615000D01*
X82905812Y-36490518D01*
X82869502Y-36370820D01*
X82810537Y-36260506D01*
X82731185Y-36163815D01*
X82634494Y-36084463D01*
X82524180Y-36025498D01*
X82404482Y-35989188D01*
X82280000Y-35976928D01*
X80280000Y-35976928D01*
X80155518Y-35989188D01*
X80035820Y-36025498D01*
X79925506Y-36084463D01*
X79828815Y-36163815D01*
X79749463Y-36260506D01*
X79690498Y-36370820D01*
X79654188Y-36490518D01*
X79641928Y-36615000D01*
X79641928Y-36705000D01*
X78339320Y-36705000D01*
X78301997Y-36701324D01*
X78264674Y-36705000D01*
X78264665Y-36705000D01*
X78153012Y-36715997D01*
X78009751Y-36759454D01*
X77877722Y-36830026D01*
X77877720Y-36830027D01*
X77877721Y-36830027D01*
X77790994Y-36901201D01*
X77790990Y-36901205D01*
X77761997Y-36924999D01*
X77738203Y-36953992D01*
X77595000Y-37097195D01*
X77595000Y-36509801D01*
X78143602Y-35961200D01*
X78205739Y-35961200D01*
X78405698Y-35921426D01*
X78594056Y-35843405D01*
X78763574Y-35730137D01*
X78907737Y-35585974D01*
X79021005Y-35416456D01*
X79099026Y-35228098D01*
X79138800Y-35028139D01*
X79138800Y-34824261D01*
X79099026Y-34624302D01*
X79021005Y-34435944D01*
X78940193Y-34315000D01*
X93686528Y-34315000D01*
X93686528Y-34993670D01*
M02*
