G04 #@! TF.GenerationSoftware,KiCad,Pcbnew,(5.1.0)-1*
G04 #@! TF.CreationDate,2019-03-25T17:59:43+01:00*
G04 #@! TF.ProjectId,jvc_remote,6a76635f-7265-46d6-9f74-652e6b696361,rev?*
G04 #@! TF.SameCoordinates,Original*
G04 #@! TF.FileFunction,Legend,Bot*
G04 #@! TF.FilePolarity,Positive*
%FSLAX46Y46*%
G04 Gerber Fmt 4.6, Leading zero omitted, Abs format (unit mm)*
G04 Created by KiCad (PCBNEW (5.1.0)-1) date 2019-03-25 17:59:43*
%MOMM*%
%LPD*%
G04 APERTURE LIST*
%ADD10C,0.050000*%
%ADD11C,0.254000*%
%ADD12C,0.200000*%
%ADD13C,0.120000*%
%ADD14C,0.150000*%
G04 APERTURE END LIST*
D10*
X76200000Y-139700000D02*
X76200000Y-33655000D01*
X116205000Y-139700000D02*
X76200000Y-139700000D01*
X116205000Y-33655000D02*
X116205000Y-139700000D01*
X76200000Y-33655000D02*
X116205000Y-33655000D01*
D11*
X92720000Y-56360000D02*
G75*
G03X92720000Y-56360000I-200000J0D01*
G01*
D12*
X99670000Y-57810000D02*
X93370000Y-57810000D01*
X99670000Y-64110000D02*
X99670000Y-57810000D01*
X93370000Y-64110000D02*
X99670000Y-64110000D01*
X93370000Y-57810000D02*
X93370000Y-64110000D01*
D13*
X92200000Y-35885000D02*
X90740000Y-35885000D01*
X92200000Y-39045000D02*
X89040000Y-39045000D01*
X92200000Y-39045000D02*
X92200000Y-38115000D01*
X92200000Y-35885000D02*
X92200000Y-36815000D01*
X106620000Y-66735000D02*
X111820000Y-66735000D01*
X106620000Y-58995000D02*
X111820000Y-58995000D01*
X105180000Y-66165000D02*
X106620000Y-66165000D01*
X106620000Y-66735000D02*
X106620000Y-66165000D01*
X111820000Y-66735000D02*
X111820000Y-66165000D01*
X106620000Y-59565000D02*
X106620000Y-58995000D01*
X111820000Y-59565000D02*
X111820000Y-58995000D01*
X106620000Y-64645000D02*
X106620000Y-63625000D01*
X111820000Y-64645000D02*
X111820000Y-63625000D01*
X106620000Y-62105000D02*
X106620000Y-61085000D01*
X111820000Y-62105000D02*
X111820000Y-61085000D01*
X99945000Y-77200000D02*
X99945000Y-75200000D01*
X101985000Y-75200000D02*
X101985000Y-77200000D01*
X92980000Y-45470000D02*
X90980000Y-45470000D01*
X90980000Y-43430000D02*
X92980000Y-43430000D01*
X101140000Y-43430000D02*
X103140000Y-43430000D01*
X103140000Y-45470000D02*
X101140000Y-45470000D01*
X98054600Y-29778800D02*
G75*
G03X94934600Y-29778800I-1560000J0D01*
G01*
X94934600Y-33638800D02*
X94934600Y-29778800D01*
X98054600Y-33638800D02*
X98054600Y-29778800D01*
X94934600Y-33638800D02*
X98054600Y-33638800D01*
X98454600Y-33638800D02*
X98454600Y-32518800D01*
X98454600Y-32518800D02*
X98054600Y-32518800D01*
X98054600Y-32518800D02*
X98054600Y-33638800D01*
X98054600Y-33638800D02*
X98454600Y-33638800D01*
X95224600Y-33768800D02*
X95224600Y-33638800D01*
X95224600Y-33638800D02*
X95224600Y-33638800D01*
X95224600Y-33638800D02*
X95224600Y-33768800D01*
X95224600Y-33768800D02*
X95224600Y-33768800D01*
X97764600Y-33768800D02*
X97764600Y-33638800D01*
X97764600Y-33638800D02*
X97764600Y-33638800D01*
X97764600Y-33638800D02*
X97764600Y-33768800D01*
X97764600Y-33768800D02*
X97764600Y-33768800D01*
X84020000Y-58690000D02*
X84020000Y-60690000D01*
X86160000Y-60690000D02*
X86160000Y-58690000D01*
X101965000Y-37900000D02*
X103965000Y-37900000D01*
X103965000Y-35760000D02*
X101965000Y-35760000D01*
X82280000Y-38535000D02*
X84280000Y-38535000D01*
X84280000Y-36395000D02*
X82280000Y-36395000D01*
D12*
X104760000Y-46545000D02*
X93360000Y-46545000D01*
X93360000Y-51245000D02*
X104760000Y-51245000D01*
X104760000Y-51245000D02*
X104760000Y-50259000D01*
X104760000Y-46545000D02*
X104760000Y-47531000D01*
X93360000Y-46545000D02*
X93360000Y-47531000D01*
X93360000Y-51245000D02*
X93360000Y-50259000D01*
D11*
X107524760Y-48917000D02*
G75*
G03X107524760Y-48917000I-92760J0D01*
G01*
X97487619Y-60264523D02*
X97487619Y-61292619D01*
X97427142Y-61413571D01*
X97366666Y-61474047D01*
X97245714Y-61534523D01*
X97003809Y-61534523D01*
X96882857Y-61474047D01*
X96822380Y-61413571D01*
X96761904Y-61292619D01*
X96761904Y-60264523D01*
X95491904Y-61534523D02*
X96217619Y-61534523D01*
X95854761Y-61534523D02*
X95854761Y-60264523D01*
X95975714Y-60445952D01*
X96096666Y-60566904D01*
X96217619Y-60627380D01*
D14*
X91535238Y-40512619D02*
X91630476Y-40465000D01*
X91725714Y-40369761D01*
X91868571Y-40226904D01*
X91963809Y-40179285D01*
X92059047Y-40179285D01*
X92011428Y-40417380D02*
X92106666Y-40369761D01*
X92201904Y-40274523D01*
X92249523Y-40084047D01*
X92249523Y-39750714D01*
X92201904Y-39560238D01*
X92106666Y-39465000D01*
X92011428Y-39417380D01*
X91820952Y-39417380D01*
X91725714Y-39465000D01*
X91630476Y-39560238D01*
X91582857Y-39750714D01*
X91582857Y-40084047D01*
X91630476Y-40274523D01*
X91725714Y-40369761D01*
X91820952Y-40417380D01*
X92011428Y-40417380D01*
X90630476Y-40417380D02*
X91201904Y-40417380D01*
X90916190Y-40417380D02*
X90916190Y-39417380D01*
X91011428Y-39560238D01*
X91106666Y-39655476D01*
X91201904Y-39703095D01*
X109553333Y-67187380D02*
X109553333Y-67901666D01*
X109600952Y-68044523D01*
X109696190Y-68139761D01*
X109839047Y-68187380D01*
X109934285Y-68187380D01*
X108553333Y-68187380D02*
X109124761Y-68187380D01*
X108839047Y-68187380D02*
X108839047Y-67187380D01*
X108934285Y-67330238D01*
X109029523Y-67425476D01*
X109124761Y-67473095D01*
X99572142Y-76033333D02*
X99619761Y-75985714D01*
X99667380Y-75842857D01*
X99667380Y-75747619D01*
X99619761Y-75604761D01*
X99524523Y-75509523D01*
X99429285Y-75461904D01*
X99238809Y-75414285D01*
X99095952Y-75414285D01*
X98905476Y-75461904D01*
X98810238Y-75509523D01*
X98715000Y-75604761D01*
X98667380Y-75747619D01*
X98667380Y-75842857D01*
X98715000Y-75985714D01*
X98762619Y-76033333D01*
X99667380Y-76985714D02*
X99667380Y-76414285D01*
X99667380Y-76700000D02*
X98667380Y-76700000D01*
X98810238Y-76604761D01*
X98905476Y-76509523D01*
X98953095Y-76414285D01*
X92146666Y-46557142D02*
X92194285Y-46604761D01*
X92337142Y-46652380D01*
X92432380Y-46652380D01*
X92575238Y-46604761D01*
X92670476Y-46509523D01*
X92718095Y-46414285D01*
X92765714Y-46223809D01*
X92765714Y-46080952D01*
X92718095Y-45890476D01*
X92670476Y-45795238D01*
X92575238Y-45700000D01*
X92432380Y-45652380D01*
X92337142Y-45652380D01*
X92194285Y-45700000D01*
X92146666Y-45747619D01*
X91765714Y-45747619D02*
X91718095Y-45700000D01*
X91622857Y-45652380D01*
X91384761Y-45652380D01*
X91289523Y-45700000D01*
X91241904Y-45747619D01*
X91194285Y-45842857D01*
X91194285Y-45938095D01*
X91241904Y-46080952D01*
X91813333Y-46652380D01*
X91194285Y-46652380D01*
X102306666Y-46557142D02*
X102354285Y-46604761D01*
X102497142Y-46652380D01*
X102592380Y-46652380D01*
X102735238Y-46604761D01*
X102830476Y-46509523D01*
X102878095Y-46414285D01*
X102925714Y-46223809D01*
X102925714Y-46080952D01*
X102878095Y-45890476D01*
X102830476Y-45795238D01*
X102735238Y-45700000D01*
X102592380Y-45652380D01*
X102497142Y-45652380D01*
X102354285Y-45700000D01*
X102306666Y-45747619D01*
X101973333Y-45652380D02*
X101354285Y-45652380D01*
X101687619Y-46033333D01*
X101544761Y-46033333D01*
X101449523Y-46080952D01*
X101401904Y-46128571D01*
X101354285Y-46223809D01*
X101354285Y-46461904D01*
X101401904Y-46557142D01*
X101449523Y-46604761D01*
X101544761Y-46652380D01*
X101830476Y-46652380D01*
X101925714Y-46604761D01*
X101973333Y-46557142D01*
X97232695Y-37261180D02*
X97232695Y-36261180D01*
X96994600Y-36261180D01*
X96851742Y-36308800D01*
X96756504Y-36404038D01*
X96708885Y-36499276D01*
X96661266Y-36689752D01*
X96661266Y-36832609D01*
X96708885Y-37023085D01*
X96756504Y-37118323D01*
X96851742Y-37213561D01*
X96994600Y-37261180D01*
X97232695Y-37261180D01*
X95708885Y-37261180D02*
X96280314Y-37261180D01*
X95994600Y-37261180D02*
X95994600Y-36261180D01*
X96089838Y-36404038D01*
X96185076Y-36499276D01*
X96280314Y-36546895D01*
X87392380Y-59523333D02*
X86916190Y-59190000D01*
X87392380Y-58951904D02*
X86392380Y-58951904D01*
X86392380Y-59332857D01*
X86440000Y-59428095D01*
X86487619Y-59475714D01*
X86582857Y-59523333D01*
X86725714Y-59523333D01*
X86820952Y-59475714D01*
X86868571Y-59428095D01*
X86916190Y-59332857D01*
X86916190Y-58951904D01*
X87392380Y-60475714D02*
X87392380Y-59904285D01*
X87392380Y-60190000D02*
X86392380Y-60190000D01*
X86535238Y-60094761D01*
X86630476Y-59999523D01*
X86678095Y-59904285D01*
X103131666Y-35432380D02*
X103465000Y-34956190D01*
X103703095Y-35432380D02*
X103703095Y-34432380D01*
X103322142Y-34432380D01*
X103226904Y-34480000D01*
X103179285Y-34527619D01*
X103131666Y-34622857D01*
X103131666Y-34765714D01*
X103179285Y-34860952D01*
X103226904Y-34908571D01*
X103322142Y-34956190D01*
X103703095Y-34956190D01*
X102750714Y-34527619D02*
X102703095Y-34480000D01*
X102607857Y-34432380D01*
X102369761Y-34432380D01*
X102274523Y-34480000D01*
X102226904Y-34527619D01*
X102179285Y-34622857D01*
X102179285Y-34718095D01*
X102226904Y-34860952D01*
X102798333Y-35432380D01*
X102179285Y-35432380D01*
X83446666Y-39767380D02*
X83780000Y-39291190D01*
X84018095Y-39767380D02*
X84018095Y-38767380D01*
X83637142Y-38767380D01*
X83541904Y-38815000D01*
X83494285Y-38862619D01*
X83446666Y-38957857D01*
X83446666Y-39100714D01*
X83494285Y-39195952D01*
X83541904Y-39243571D01*
X83637142Y-39291190D01*
X84018095Y-39291190D01*
X83113333Y-38767380D02*
X82494285Y-38767380D01*
X82827619Y-39148333D01*
X82684761Y-39148333D01*
X82589523Y-39195952D01*
X82541904Y-39243571D01*
X82494285Y-39338809D01*
X82494285Y-39576904D01*
X82541904Y-39672142D01*
X82589523Y-39719761D01*
X82684761Y-39767380D01*
X82970476Y-39767380D01*
X83065714Y-39719761D01*
X83113333Y-39672142D01*
D11*
X99990761Y-48745761D02*
X99990761Y-49350523D01*
X100414095Y-48080523D02*
X99990761Y-48745761D01*
X99567428Y-48080523D01*
X98478857Y-49350523D02*
X99204571Y-49350523D01*
X98841714Y-49350523D02*
X98841714Y-48080523D01*
X98962666Y-48261952D01*
X99083619Y-48382904D01*
X99204571Y-48443380D01*
M02*
